<svg xmlns="http://www.w3.org/2000/svg" width="72" height="71" viewBox="0 0 72 71">
  <g id="Group_334" data-name="Group 334" transform="translate(-853 -1028)">
    <rect id="Rectangle_825" data-name="Rectangle 825" width="72" height="71" rx="12" transform="translate(853 1028)" fill="#ffefe5"/>
    <g id="_61483" data-name="61483" transform="translate(869.445 1026.621)">
      <g id="Group_209" data-name="Group 209" transform="translate(0 22.379)">
        <path id="Path_327" data-name="Path 327" d="M10.086,122.149a21.621,21.621,0,0,0,2.811-.18v-9.78a21.633,21.633,0,0,0-2.811-.18C4.516,112.009,0,114.057,0,116.583v.992C0,120.1,4.516,122.149,10.086,122.149Z" transform="translate(-0.001 -104.262)" fill="#ff5f00"/>
        <path id="Path_328" data-name="Path 328" d="M10.086,219.677a21.651,21.651,0,0,0,2.811-.18V216.63a21.63,21.63,0,0,1-2.811.181c-4.862,0-8.92-1.56-9.873-3.637a2.231,2.231,0,0,0-.212.937v.992C0,217.629,4.516,219.677,10.086,219.677Z" transform="translate(-0.001 -196.683)" fill="#ff5f00"/>
        <path id="Path_329" data-name="Path 329" d="M12.9,275.937v-.223a21.633,21.633,0,0,1-2.811.181c-4.862,0-8.92-1.56-9.873-3.637a2.23,2.23,0,0,0-.212.937v.992c0,2.526,4.515,4.574,10.085,4.574a21.422,21.422,0,0,0,3.187-.233,3.608,3.608,0,0,1-.376-1.6Z" transform="translate(0 -250.661)" fill="#ff5f00"/>
        <path id="Path_330" data-name="Path 330" d="M178.324,22.379c-5.57,0-10.085,2.048-10.085,4.574v.992c0,2.526,4.515,4.574,10.085,4.574s10.085-2.048,10.085-4.574v-.992C188.409,24.427,183.893,22.379,178.324,22.379Z" transform="translate(-153.698 -22.379)" fill="#ff5f00"/>
        <path id="Path_331" data-name="Path 331" d="M178.324,127.181c-4.862,0-8.92-1.56-9.873-3.637a2.23,2.23,0,0,0-.212.937v.992c0,2.526,4.515,4.574,10.085,4.574s10.085-2.048,10.085-4.574v-.992a2.23,2.23,0,0,0-.212-.937C187.243,125.621,183.186,127.181,178.324,127.181Z" transform="translate(-153.698 -114.8)" fill="#ff5f00"/>
        <path id="Path_332" data-name="Path 332" d="M178.324,186.265c-4.862,0-8.92-1.56-9.873-3.637a2.23,2.23,0,0,0-.212.937v.992c0,2.526,4.515,4.574,10.085,4.574s10.085-2.048,10.085-4.574v-.992a2.23,2.23,0,0,0-.212-.937C187.243,184.7,183.186,186.265,178.324,186.265Z" transform="translate(-153.698 -168.778)" fill="#ff5f00"/>
        <path id="Path_333" data-name="Path 333" d="M178.324,248.538c-4.862,0-8.92-1.56-9.873-3.637a2.23,2.23,0,0,0-.212.937v.992c0,2.526,4.515,4.574,10.085,4.574s10.085-2.048,10.085-4.574v-.992a2.23,2.23,0,0,0-.212-.937C187.243,246.978,183.186,248.538,178.324,248.538Z" transform="translate(-153.698 -225.668)" fill="#ff5f00"/>
        <path id="Path_334" data-name="Path 334" d="M178.324,307.621c-4.862,0-8.92-1.56-9.873-3.637a2.231,2.231,0,0,0-.212.937v.992c0,2.526,4.515,4.574,10.085,4.574s10.085-2.048,10.085-4.574v-.992a2.23,2.23,0,0,0-.212-.937C187.243,306.061,183.186,307.621,178.324,307.621Z" transform="translate(-153.698 -279.645)" fill="#ff5f00"/>
      </g>
    </g>
  </g>
</svg>
