<svg xmlns="http://www.w3.org/2000/svg" width="72" height="71" viewBox="0 0 72 71">
  <g id="Group_332" data-name="Group 332" transform="translate(-1417 -1028)">
    <rect id="Rectangle_820" data-name="Rectangle 820" width="72" height="71" rx="12" transform="translate(1417 1028)" fill="#ffefe5"/>
    <g id="Group_172" data-name="Group 172" transform="translate(1094.684 566.159)">
      <g id="Group_167" data-name="Group 167" transform="translate(348.118 486.642)">
        <g id="Group_166" data-name="Group 166">
          <path id="Path_222" data-name="Path 222" d="M348.294,486.818v19.465h21.4V486.818ZM362.6,501.707a5.156,5.156,0,1,1,5.157-5.156A5.156,5.156,0,0,1,362.6,501.707Z" transform="translate(-348.294 -486.818)" fill="#ff5f00"/>
        </g>
      </g>
      <g id="Group_169" data-name="Group 169" transform="translate(359.203 493.152)">
        <g id="Group_168" data-name="Group 168">
          <path id="Path_223" data-name="Path 223" d="M362.937,493.525a3.222,3.222,0,1,0,3.222,3.222A3.222,3.222,0,0,0,362.937,493.525Zm0,4.511a1.289,1.289,0,1,1,1.289-1.289A1.289,1.289,0,0,1,362.937,498.036Z" transform="translate(-359.715 -493.525)" fill="#ff5f00"/>
        </g>
      </g>
      <g id="Group_171" data-name="Group 171" transform="translate(342.317 480.841)">
        <g id="Group_170" data-name="Group 170">
          <path id="Path_224" data-name="Path 224" d="M370.483,480.841H347.151a4.839,4.839,0,0,0-4.834,4.834v21.4a4.84,4.84,0,0,0,4.834,4.834v1.934h3.868v-1.933h15.6v1.933h3.868v-1.933a4.84,4.84,0,0,0,4.833-4.834v-21.4A4.839,4.839,0,0,0,370.483,480.841Zm.971,27.2h-25.27V484.708H371.45Z" transform="translate(-342.317 -480.841)" fill="#ff5f00"/>
        </g>
      </g>
    </g>
  </g>
</svg>
