<svg xmlns="http://www.w3.org/2000/svg" width="72" height="71" viewBox="0 0 72 71">
  <g id="Group_335" data-name="Group 335" transform="translate(-566 -1028)">
    <rect id="Rectangle_830" data-name="Rectangle 830" width="72" height="71" rx="12" transform="translate(566 1028)" fill="#ffefe5"/>
    <path id="_3602249" data-name="3602249" d="M22.125,24.75H21V21.068a6.474,6.474,0,0,0-2.141-4.808l-1.9-1.713a1.407,1.407,0,0,1,0-2.091l1.9-1.713A6.48,6.48,0,0,0,21,5.932V2.25h1.125a1.125,1.125,0,0,0,0-2.25h-18a1.125,1.125,0,0,0,0,2.25H5.25V5.932A6.474,6.474,0,0,0,7.391,10.74l1.9,1.713a1.407,1.407,0,0,1,0,2.091l-1.9,1.713A6.48,6.48,0,0,0,5.25,21.068V24.75H4.125a1.125,1.125,0,0,0,0,2.25h18a1.125,1.125,0,0,0,0-2.25Zm-13.5-3.567a3.073,3.073,0,0,1,.907-2.188l3-3a.844.844,0,0,1,1.194,0l3,3a3.073,3.073,0,0,1,.907,2.188V24.75h-9Z" transform="translate(590 1049)" fill="#ff5f00"/>
  </g>
</svg>
