<svg xmlns="http://www.w3.org/2000/svg" width="115" height="117" viewBox="0 0 115 117">
  <g id="Group_337" data-name="Group 337" transform="translate(-1250 -2581)">
    <rect id="Rectangle_553" data-name="Rectangle 553" width="115" height="117" rx="16" transform="translate(1250 2581)" fill="#ffebe0"/>
    <rect id="Rectangle_554" data-name="Rectangle 554" width="95" height="95" rx="12" transform="translate(1260 2592)" fill="#ff5f00"/>
    <g id="_x3C_Group_x3E__4_" transform="translate(1286.597 2618.597)">
      <g id="Group_224" data-name="Group 224" transform="translate(14.534 14.533)">
        <path id="Path_364" data-name="Path 364" d="M201.522,208.268l-6.975-6.974-3.381,3.381a1.195,1.195,0,0,1-1.979-.467l-6.763-20.289a1.195,1.195,0,0,1,1.512-1.512l20.289,6.763a1.194,1.194,0,0,1,.467,1.979l-3.381,3.381,6.974,6.975a1.2,1.2,0,0,1,0,1.691l-5.072,5.072A1.2,1.2,0,0,1,201.522,208.268Z" transform="translate(-182.362 -182.344)" fill="#fff"/>
      </g>
      <g id="Group_225" data-name="Group 225" transform="translate(14.346)">
        <path id="Path_365" data-name="Path 365" d="M181.2,9.564a1.2,1.2,0,0,1-1.2-1.2V1.2a1.2,1.2,0,1,1,2.391,0V8.369A1.2,1.2,0,0,1,181.2,9.564Z" transform="translate(-180)" fill="#fff"/>
      </g>
      <g id="Group_226" data-name="Group 226" transform="translate(4.202 4.202)">
        <path id="Path_366" data-name="Path 366" d="M58.143,59.833,53.07,54.761a1.2,1.2,0,1,1,1.691-1.691l5.073,5.073a1.2,1.2,0,0,1-1.69,1.691Z" transform="translate(-52.72 -52.72)" fill="#fff"/>
      </g>
      <g id="Group_227" data-name="Group 227" transform="translate(4.202 19.418)">
        <path id="Path_367" data-name="Path 367" d="M53.07,250.747a1.2,1.2,0,0,1,0-1.691l5.073-5.073a1.2,1.2,0,0,1,1.691,1.691l-5.073,5.073A1.2,1.2,0,0,1,53.07,250.747Z" transform="translate(-52.72 -243.634)" fill="#fff"/>
      </g>
      <g id="Group_228" data-name="Group 228" transform="translate(19.418 4.202)">
        <path id="Path_368" data-name="Path 368" d="M243.983,59.834a1.2,1.2,0,0,1,0-1.691l5.073-5.073a1.2,1.2,0,1,1,1.691,1.691l-5.073,5.073A1.2,1.2,0,0,1,243.983,59.834Z" transform="translate(-243.633 -52.721)" fill="#fff"/>
      </g>
      <g id="Group_229" data-name="Group 229" transform="translate(0 14.346)">
        <path id="Path_369" data-name="Path 369" d="M8.369,182.391H1.2A1.2,1.2,0,1,1,1.2,180H8.369a1.2,1.2,0,1,1,0,2.391Z" transform="translate(0 -180)" fill="#fff"/>
      </g>
    </g>
  </g>
</svg>
