<svg xmlns="http://www.w3.org/2000/svg" width="115" height="117" viewBox="0 0 115 117">
  <g id="Group_336" data-name="Group 336" transform="translate(-1465 -2581)">
    <rect id="Rectangle_552" data-name="Rectangle 552" width="115" height="117" rx="16" transform="translate(1465 2581)" fill="#ffebe0"/>
    <rect id="Rectangle_551" data-name="Rectangle 551" width="95" height="95" rx="12" transform="translate(1475 2592)" fill="#ff5f00"/>
    <path id="Path_151" data-name="Path 151" d="M324.467,517.82h0a17.8,17.8,0,0,0-17.6,17.985v9.435a17.794,17.794,0,0,0,17.6,17.984h0a17.794,17.794,0,0,0,17.595-17.984v-9.435A17.8,17.8,0,0,0,324.467,517.82Zm-12.829,30.6A12.182,12.182,0,0,0,323.2,536.274a1.013,1.013,0,0,1,1.014-1.014h0a1.014,1.014,0,0,1,1.014,1.014h0a15.054,15.054,0,0,1-.679,4.362,13.667,13.667,0,0,1-3.477,5.677,14.093,14.093,0,0,1-8.618,4.085A13.1,13.1,0,0,1,311.637,548.418Zm1.977,3.863a16.243,16.243,0,0,0,13.631-16.013,3.041,3.041,0,0,0-6.082,0,10.13,10.13,0,0,1-9.991,10.135,13.1,13.1,0,0,1-.146-1.958v-.067a8.12,8.12,0,0,0,8.11-8.11,5.068,5.068,0,1,1,10.137,0,18.252,18.252,0,0,1-14.092,17.776A13.3,13.3,0,0,1,313.614,552.281Zm10.59,5.344a13.392,13.392,0,0,1-1.37-.07,24.323,24.323,0,0,0,2.894-1.891l.183.186a16.4,16.4,0,0,0,1.552,1.367A13.244,13.244,0,0,1,324.2,557.624Zm5.589-1.245a14.386,14.386,0,0,1-3.82-3.552,22.242,22.242,0,0,1-6.278,4,13.194,13.194,0,0,1-2.511-1.235,20.19,20.19,0,0,0,8.179-4.988l.966-.972.674,1.1a12.312,12.312,0,0,0,4.811,4.464A13.329,13.329,0,0,1,329.794,556.379Zm3.728-2.62a10.176,10.176,0,0,1-5.728-6.077,20.217,20.217,0,0,0,1.51-2.61,8.132,8.132,0,0,0,5.623,7.032,13.53,13.53,0,0,1-1.406,1.655Zm2.487-3.455a6.093,6.093,0,0,1-4.707-5.926v-8.11a7.1,7.1,0,1,0-14.193,0,6.092,6.092,0,0,1-6.082,6.082v-2.028a4.062,4.062,0,0,0,4.054-4.054,9.124,9.124,0,1,1,18.249,0v8.11a4.062,4.062,0,0,0,3.453,4.01,13.148,13.148,0,0,1-.776,1.915Zm1.375-5.853a13.464,13.464,0,0,1-.146,1.955,2.03,2.03,0,0,1-1.883-2.022v-8.11a11.152,11.152,0,1,0-22.3,0,2.031,2.031,0,0,1-2.028,2.028v-2.028a13.179,13.179,0,1,1,26.358,0Z" transform="translate(1197.131 2099.18)" fill="#fff"/>
  </g>
</svg>
