<svg xmlns="http://www.w3.org/2000/svg" width="115" height="117" viewBox="0 0 115 117">
  <g id="Group_338" data-name="Group 338" transform="translate(-1024 -2581)">
    <rect id="Rectangle_555" data-name="Rectangle 555" width="115" height="117" rx="16" transform="translate(1024 2581)" fill="#ffebe0"/>
    <rect id="Rectangle_556" data-name="Rectangle 556" width="95" height="95" rx="12" transform="translate(1034 2592)" fill="#ff5f00"/>
    <g id="_2921571" data-name="2921571" transform="translate(1061 2620)">
      <path id="Path_310" data-name="Path 310" d="M5.925,11.082a7.808,7.808,0,0,1,7.8-7.8H28.719A4.506,4.506,0,0,0,24.4,0H5.515A4.519,4.519,0,0,0,1,4.515V29.963a4.519,4.519,0,0,0,4.515,4.515h.41Z" fill="#fff"/>
      <path id="Path_311" data-name="Path 311" d="M29.4,4H10.515A4.519,4.519,0,0,0,6,8.515V32.321a4.519,4.519,0,0,0,4.515,4.515H29.4a4.519,4.519,0,0,0,4.515-4.515V8.515A4.519,4.519,0,0,0,29.4,4ZM26.112,31.911H13.8a1.231,1.231,0,1,1,0-2.463H26.112a1.231,1.231,0,0,1,0,2.463Zm0-6.567H13.8a1.231,1.231,0,0,1,0-2.463H26.112a1.231,1.231,0,0,1,0,2.463Zm0-5.746H13.8a1.231,1.231,0,0,1,0-2.463H26.112a1.231,1.231,0,0,1,0,2.463Zm0-6.567H13.8a1.231,1.231,0,0,1,0-2.463H26.112a1.231,1.231,0,0,1,0,2.463Z" transform="translate(3.209 2.567)" fill="#fff"/>
    </g>
  </g>
</svg>
