<svg xmlns="http://www.w3.org/2000/svg" width="115" height="117" viewBox="0 0 115 117">
  <g id="Group_340" data-name="Group 340" transform="translate(-1133 -2746)">
    <rect id="Rectangle_553" data-name="Rectangle 553" width="115" height="117" rx="14" transform="translate(1133 2746)" fill="#ffebe0"/>
    <rect id="Rectangle_554" data-name="Rectangle 554" width="95" height="95" rx="12" transform="translate(1143 2757)" fill="#ff5f00"/>
    <g id="_617396" data-name=" 617396" transform="translate(899.047 2297.003)">
      <g id="Group_159" data-name="Group 159" transform="translate(271.953 488.997)">
        <g id="Group_158" data-name="Group 158">
          <path id="Path_215" data-name="Path 215" d="M296.794,488a15.866,15.866,0,0,0-12.715,25.385l-7.317,7.318a2.763,2.763,0,0,0,0,3.907h0a2.763,2.763,0,0,0,3.907,0l7.432-7.432A15.889,15.889,0,1,0,296.794,488Zm0,27.63a11.745,11.745,0,1,1,11.743-11.743h0A11.756,11.756,0,0,1,296.794,515.627Z" transform="translate(-275.953 -487.997)" fill="#fff"/>
        </g>
      </g>
    </g>
  </g>
</svg>
