<svg xmlns="http://www.w3.org/2000/svg" width="72" height="71" viewBox="0 0 72 71">
  <g id="Group_332" data-name="Group 332" transform="translate(-1414 -2277)">
    <rect id="Rectangle_457" data-name="Rectangle 457" width="72" height="71" rx="12" transform="translate(1414 2277)" fill="#ffefe5"/>
    <g id="_1007963" data-name="1007963" transform="translate(1403.943 2296)">
      <g id="Group_140" data-name="Group 140" transform="translate(33.057)">
        <g id="Group_139" data-name="Group 139" transform="translate(0)">
          <path id="Path_143" data-name="Path 143" d="M278.557.767A1.541,1.541,0,0,0,277.228,0h-5.712V6.756h10.505Z" transform="translate(-258.794)" fill="#ff5f00"/>
          <path id="Path_144" data-name="Path 144" d="M54.348,0H48.583a1.541,1.541,0,0,0-1.331.769L43.8,6.756H54.348V0Z" transform="translate(-43.228)" fill="#ff5f00"/>
          <path id="Path_145" data-name="Path 145" d="M33.057,156.648v17.075a1.885,1.885,0,0,0,1.883,1.882H54.962a1.885,1.885,0,0,0,1.883-1.882V156.648Zm15.528,7.181-4.14,4.14a.8.8,0,0,1-1.132,0l-1.941-1.94A.8.8,0,1,1,42.5,164.9l1.374,1.375,3.575-3.575a.8.8,0,1,1,1.132,1.132Z" transform="translate(-33.057 -148.291)" fill="#ff5f00"/>
        </g>
      </g>
    </g>
  </g>
</svg>
