<svg xmlns="http://www.w3.org/2000/svg" width="72" height="71" viewBox="0 0 72 71">
  <g id="Group_338" data-name="Group 338" transform="translate(-564 -2277)">
    <rect id="Rectangle_460" data-name="Rectangle 460" width="72" height="71" rx="12" transform="translate(564 2277)" fill="#ffefe5"/>
    <path id="_3103164" data-name="3103164" d="M18.311.03V16.97l7.371,15.273H25.7A17.231,17.231,0,0,0,18.311.03ZM16.543,18.306H.02A17.059,17.059,0,0,0,5.049,29.413a16.955,16.955,0,0,0,5.575,3.75,17.161,17.161,0,0,0,6.609,1.307,16.886,16.886,0,0,0,6.494-1.279ZM.034,16.151H16.155V.03A17.221,17.221,0,0,0,.034,16.151Z" transform="translate(582.98 2294.97)" fill="#ff5f00"/>
  </g>
</svg>
