<svg xmlns="http://www.w3.org/2000/svg" width="115" height="117" viewBox="0 0 115 117">
  <g id="Group_339" data-name="Group 339" transform="translate(-1342 -2746)">
    <rect id="Rectangle_552" data-name="Rectangle 552" width="115" height="117" rx="14" transform="translate(1342 2746)" fill="#ffebe0"/>
    <rect id="Rectangle_551" data-name="Rectangle 551" width="95" height="95" rx="12" transform="translate(1352 2757)" fill="#ff5f00"/>
    <path id="Path_266" data-name="Path 266" d="M44.429,9.745V7.632a.693.693,0,0,1,.692-.692H58.144a.693.693,0,0,1,.692.692V9.745a.693.693,0,0,1-.692.692H45.122A.693.693,0,0,1,44.429,9.745Zm11.2-6.059a4.008,4.008,0,0,0-7.991,0ZM68.741,12V44.817a4.378,4.378,0,0,1-4.373,4.373H38.9a4.378,4.378,0,0,1-4.373-4.373V12A4.378,4.378,0,0,1,38.9,7.626h2.278V9.745a3.95,3.95,0,0,0,3.945,3.945H58.144A3.95,3.95,0,0,0,62.09,9.745V7.626h2.278A4.378,4.378,0,0,1,68.741,12ZM62.232,32.419a1.627,1.627,0,0,0-2.238.531l-1.538,2.495-.794-.625a1.626,1.626,0,0,0-2.012,2.556l2.227,1.754a1.627,1.627,0,0,0,2.391-.424l2.5-4.048A1.626,1.626,0,0,0,62.232,32.419Zm0-11.71a1.626,1.626,0,0,0-2.238.531l-1.538,2.495-.794-.625a1.626,1.626,0,0,0-2.012,2.556l2.227,1.754a1.627,1.627,0,0,0,2.391-.424l2.5-4.048A1.627,1.627,0,0,0,62.232,20.708ZM52.18,36.54a1.626,1.626,0,0,0-1.626-1.626H39.928a1.626,1.626,0,0,0,0,3.253H50.554A1.626,1.626,0,0,0,52.18,36.54Zm0-11.71A1.626,1.626,0,0,0,50.554,23.2H39.928a1.626,1.626,0,0,0,0,3.253H50.554A1.626,1.626,0,0,0,52.18,24.83Z" transform="translate(1347.259 2774.822)" fill="#fff"/>
  </g>
</svg>
