<svg xmlns="http://www.w3.org/2000/svg" width="115" height="117" viewBox="0 0 115 117">
  <g id="Group_341" data-name="Group 341" transform="translate(-675 -2746)">
    <rect id="Rectangle_598" data-name="Rectangle 598" width="115" height="117" rx="14" transform="translate(675 2746)" fill="#ffebe0"/>
    <rect id="Rectangle_599" data-name="Rectangle 599" width="95" height="95" rx="12" transform="translate(685 2757)" fill="#ff5f00"/>
    <g id="_3122137" data-name="3122137" transform="translate(653 2780)">
      <path id="Path_268" data-name="Path 268" d="M177.852,92.343A1.342,1.342,0,0,0,176.51,91h-4.028v28.195a4.032,4.032,0,0,1-4.028,4.028H151v4.117a1.342,1.342,0,0,0,1.343,1.343H176.51a1.342,1.342,0,0,0,1.343-1.343Z" transform="translate(-81.944 -82.855)" fill="#f2f4f6"/>
      <circle id="Ellipse_18" data-name="Ellipse 18" cx="1.5" cy="1.5" r="1.5" transform="translate(78 28)" fill="#f2f4f6"/>
      <path id="Path_269" data-name="Path 269" d="M87.852,36.34v-35A1.342,1.342,0,0,0,86.51,0H62.343A1.342,1.342,0,0,0,61,1.343v35a1.342,1.342,0,0,0,1.343,1.343H86.51A1.342,1.342,0,0,0,87.852,36.34ZM71.741,28.284H66.37a1.343,1.343,0,0,1,0-2.685h5.37a1.343,1.343,0,1,1,0,2.685Zm8.056,5.37a4.028,4.028,0,1,1,4.028-4.028A4.032,4.032,0,0,1,79.8,33.655Zm2.685-10.741H66.37a1.343,1.343,0,0,1,0-2.685H82.482a1.343,1.343,0,1,1,0,2.685Zm0-5.37H66.37a1.343,1.343,0,0,1,0-2.685H82.482a1.343,1.343,0,1,1,0,2.685ZM70.4,10.83a1.342,1.342,0,0,1,1.343-1.343h5.37a1.343,1.343,0,1,1,0,2.685h-5.37A1.342,1.342,0,0,1,70.4,10.83ZM82.482,6.8H66.37a1.343,1.343,0,0,1,0-2.685H82.482a1.343,1.343,0,1,1,0,2.685Z" fill="#f2f4f6"/>
    </g>
  </g>
</svg>
