<svg xmlns="http://www.w3.org/2000/svg" width="115" height="117" viewBox="0 0 115 117">
  <g id="Group_342" data-name="Group 342" transform="translate(-443 -2746)">
    <rect id="Rectangle_596" data-name="Rectangle 596" width="115" height="117" rx="14" transform="translate(443 2746)" fill="#ffebe0"/>
    <rect id="Rectangle_597" data-name="Rectangle 597" width="95" height="95" rx="12" transform="translate(453 2757)" fill="#ff5f00"/>
    <g id="_2223548" data-name="2223548" transform="translate(482 2786)">
      <path id="Path_257" data-name="Path 257" d="M172.6,7.1h-.814V4.71a4.71,4.71,0,1,0-9.419,0V7.1h-.814A1.553,1.553,0,0,0,160,8.655v5.523a7.077,7.077,0,1,0,14.153,0V8.655A1.553,1.553,0,0,0,172.6,7.1ZM165.474,4.71a1.6,1.6,0,1,1,3.206,0V7.1h-3.206Z" transform="translate(-148.164)" fill="#fff"/>
      <path id="Path_258" data-name="Path 258" d="M30.748,320H7.077a7.077,7.077,0,0,0,0,14.154H30.748a7.077,7.077,0,0,0,0-14.154Zm-21.3,8.655a1.578,1.578,0,1,1,1.578-1.578A1.578,1.578,0,0,1,9.444,328.655Zm6.312,0a1.578,1.578,0,1,1,1.578-1.578A1.578,1.578,0,0,1,15.756,328.655Zm6.312,0a1.578,1.578,0,1,1,1.578-1.578A1.578,1.578,0,0,1,22.068,328.655Zm6.312,0a1.578,1.578,0,1,1,1.578-1.578A1.578,1.578,0,0,1,28.381,328.655Z" transform="translate(0 -296.329)" fill="#fff"/>
    </g>
  </g>
</svg>
