<svg xmlns="http://www.w3.org/2000/svg" width="36.632" height="38.179" viewBox="0 0 36.632 38.179">
  <g id="Group_176" data-name="Group 176" transform="translate(72.163 -122.527)">
    <path id="Path_267" data-name="Path 267" d="M-37.3,142.107a1.122,1.122,0,0,1,0-.989l1.423-2.912a3.314,3.314,0,0,0-1.43-4.4l-2.863-1.516a1.122,1.122,0,0,1-.579-.8l-.56-3.193a3.314,3.314,0,0,0-3.743-2.72l-3.21.454a1.119,1.119,0,0,1-.94-.306l-2.333-2.254a3.313,3.313,0,0,0-4.626,0l-2.329,2.254a1.117,1.117,0,0,1-.94.306l-3.21-.454a3.314,3.314,0,0,0-3.743,2.72l-.561,3.193a1.116,1.116,0,0,1-.579.8l-2.865,1.519a3.314,3.314,0,0,0-1.43,4.4l1.423,2.912a1.114,1.114,0,0,1,0,.989l-1.423,2.912a3.313,3.313,0,0,0,1.43,4.4l2.864,1.519a1.116,1.116,0,0,1,.579.8l.56,3.193a3.313,3.313,0,0,0,3.267,2.754,3.437,3.437,0,0,0,.476-.034l3.21-.454a1.12,1.12,0,0,1,.94.306l2.329,2.254a3.313,3.313,0,0,0,4.626,0l2.329-2.254a1.123,1.123,0,0,1,.94-.306l3.21.454a3.313,3.313,0,0,0,3.743-2.72l.56-3.193a1.122,1.122,0,0,1,.579-.8l2.868-1.53a3.313,3.313,0,0,0,1.43-4.4Zm-19.484,7.247-6.67-6.668,2.936-2.936,3.734,3.733,9.605-9.6,2.937,2.936Z" transform="translate(0)" fill="#f2f4f6"/>
  </g>
</svg>
