<svg id="icon--color-black" xmlns="http://www.w3.org/2000/svg" width="21.528" height="21.529" viewBox="0 0 21.528 21.529">
  <g id="Group_2" data-name="Group 2" transform="translate(0 0)">
    <path id="Path_2" data-name="Path 2" d="M106.07,91.473l-1.984-.527a3.333,3.333,0,0,0-4.077,2.366l-.5,1.869A10.208,10.208,0,0,1,106.07,91.473Z" transform="translate(-96.779 -90.834)" fill="#fff"/>
    <path id="Path_3" data-name="Path 3" d="M91.432,130.167,90.946,132a3.333,3.333,0,0,0,2.366,4.077l1.9.5A10.212,10.212,0,0,1,91.432,130.167Z" transform="translate(-90.834 -117.775)" fill="#fff"/>
    <path id="Path_4" data-name="Path 4" d="M146.683,99.863,144.56,99.3a10.209,10.209,0,0,1,3.906,6.837l.583-2.2A3.333,3.333,0,0,0,146.683,99.863Z" transform="translate(-127.633 -96.632)" fill="#fff"/>
    <path id="Path_5" data-name="Path 5" d="M129.522,148.443l2.031.54a3.333,3.333,0,0,0,4.077-2.366l.572-2.154A10.215,10.215,0,0,1,129.522,148.443Z" transform="translate(-117.333 -127.567)" fill="#fff"/>
  </g>
  <path id="Path_6" data-name="Path 6" d="M104.708,95.375a9.334,9.334,0,1,0,9.333,9.334A9.333,9.333,0,0,0,104.708,95.375Zm-5.285,4.657a2.667,2.667,0,1,1,2.114,3.123A2.667,2.667,0,0,1,99.423,100.032ZM103.3,108.1a2.667,2.667,0,1,1-2.114-3.123A2.667,2.667,0,0,1,103.3,108.1Zm1.132-2.158a1.185,1.185,0,1,1,1.388-.94A1.185,1.185,0,0,1,104.434,105.938Zm5.56,3.447a2.667,2.667,0,1,1-2.114-3.123A2.667,2.667,0,0,1,109.994,109.385Zm-1.764-4.942a2.667,2.667,0,1,1,3.123-2.114A2.667,2.667,0,0,1,108.229,104.444Z" transform="translate(-93.944 -93.944)" fill="#fff"/>
</svg>
