<svg id="instagram-seeklogo.com" xmlns="http://www.w3.org/2000/svg" width="21.817" height="21.818" viewBox="0 0 21.817 21.818">
  <path id="Path_7" data-name="Path 7" d="M10.908,1.966c2.913,0,3.258.011,4.408.064a6.038,6.038,0,0,1,2.026.376,3.38,3.38,0,0,1,1.254.816,3.38,3.38,0,0,1,.816,1.254A6.037,6.037,0,0,1,19.788,6.5c.052,1.15.063,1.5.063,4.408s-.011,3.258-.063,4.408a6.037,6.037,0,0,1-.376,2.026,3.612,3.612,0,0,1-2.07,2.07,6.035,6.035,0,0,1-2.026.376c-1.15.052-1.5.064-4.408.064s-3.258-.011-4.408-.064a6.034,6.034,0,0,1-2.026-.376A3.379,3.379,0,0,1,3.221,18.6,3.38,3.38,0,0,1,2.4,17.342a6.037,6.037,0,0,1-.376-2.026c-.052-1.15-.064-1.5-.064-4.408s.011-3.258.064-4.408A6.037,6.037,0,0,1,2.4,4.475a3.38,3.38,0,0,1,.816-1.254A3.38,3.38,0,0,1,4.475,2.4,6.037,6.037,0,0,1,6.5,2.029c1.15-.052,1.5-.064,4.408-.064m0-1.966c-2.963,0-3.334.013-4.5.066A8.007,8.007,0,0,0,3.763.573,5.347,5.347,0,0,0,1.831,1.831,5.347,5.347,0,0,0,.573,3.763,8.007,8.007,0,0,0,.066,6.411C.013,7.575,0,7.946,0,10.909s.013,3.334.066,4.5a8.007,8.007,0,0,0,.507,2.648,5.348,5.348,0,0,0,1.258,1.932,5.347,5.347,0,0,0,1.932,1.258,8.006,8.006,0,0,0,2.648.507c1.164.053,1.535.066,4.5.066s3.334-.013,4.5-.066a8.006,8.006,0,0,0,2.648-.507,5.578,5.578,0,0,0,3.19-3.19,8.008,8.008,0,0,0,.507-2.648c.053-1.163.066-1.535.066-4.5s-.013-3.334-.066-4.5a8.008,8.008,0,0,0-.507-2.648,5.347,5.347,0,0,0-1.258-1.932A5.347,5.347,0,0,0,18.054.573,8.007,8.007,0,0,0,15.406.066C14.243.013,13.871,0,10.908,0Zm0,5.307a5.6,5.6,0,1,0,5.6,5.6A5.6,5.6,0,0,0,10.908,5.307Zm0,9.238a3.636,3.636,0,1,1,3.636-3.636A3.636,3.636,0,0,1,10.908,14.545ZM18.04,5.086a1.309,1.309,0,1,1-1.309-1.309A1.309,1.309,0,0,1,18.04,5.086Z" transform="translate(0 0)" fill="#fff"/>
</svg>
