<svg xmlns="http://www.w3.org/2000/svg" width="24.988" height="21.74" viewBox="0 0 24.988 21.74">
  <path id="Path_100" data-name="Path 100" d="M1650.873-1003.434a2.24,2.24,0,0,0-.1.526c-.152.705-.308,1.41-.459,2.115-.129.6-.253,1.206-.38,1.809l-.479,2.288c-.126.6-.255,1.206-.378,1.809-.131.64-.25,1.282-.385,1.921-.087.416-.184.831-.3,1.241a1.031,1.031,0,0,1-.206.364.6.6,0,0,1-.853.051c-.537-.374-1.064-.762-1.594-1.146q-1.087-.787-2.171-1.577c-.543-.394-1.083-.791-1.63-1.179a4.583,4.583,0,0,0-.55-.334.958.958,0,0,0-1.08.141c-.483.367-.951.756-1.425,1.134-.6.48-1.2.962-1.805,1.436a.711.711,0,0,1-.293.136c-.272.052-.445-.048-.581-.344s-.26-.6-.366-.9c-.144-.417-.267-.841-.395-1.263-.179-.593-.35-1.189-.531-1.781-.282-.924-.57-1.846-.855-2.769a1.374,1.374,0,0,1-.053-.213.635.635,0,0,0-.5-.535c-.532-.177-1.057-.379-1.591-.552-.649-.21-1.309-.387-1.956-.6a7.847,7.847,0,0,1-1.844-.757c-.49-.317-.5-.685-.049-1.056a5.923,5.923,0,0,1,1.519-.846c.615-.254,1.235-.5,1.856-.737.777-.3,1.558-.592,2.336-.892.621-.239,1.239-.487,1.86-.727.778-.3,1.558-.593,2.336-.892.621-.239,1.239-.487,1.86-.726s1.235-.468,1.851-.7c.513-.2,1.024-.4,1.538-.6.724-.279,1.45-.553,2.173-.833.621-.24,1.239-.488,1.86-.727.778-.3,1.558-.592,2.336-.891.518-.2,1.033-.41,1.551-.61a2.912,2.912,0,0,1,1.039-.242.491.491,0,0,1,.533.622c-.048.323-.124.641-.189.962-.106.521-.212,1.042-.321,1.562-.082.392-.173.782-.254,1.174-.108.515-.209,1.032-.316,1.547-.075.361-.156.72-.233,1.081-.1.453-.19.907-.286,1.36C1651.064-1004.328,1650.935-1003.558,1650.873-1003.434Zm-1.742-5.365-.039-.04a.282.282,0,0,0-.074.015c-.265.135-.534.263-.792.411-.9.518-1.8,1.044-2.7,1.565-.748.433-1.5.861-2.245,1.294-.779.451-1.554.91-2.335,1.357-.235.135-1.021.582-1.088.638a1.826,1.826,0,0,1-.226.138c-.652.4-1.308.791-1.954,1.2a6.373,6.373,0,0,0-1.338,1.032,1.394,1.394,0,0,0-.4,1.138,6.485,6.485,0,0,0,.188.929c.184.674.388,1.343.579,2.015.155.541.293,1.086.459,1.624a3.188,3.188,0,0,0,.281.592.12.12,0,0,0,.226,0,1.107,1.107,0,0,0,.15-.342c.078-.393.155-.787.2-1.184.074-.672.118-1.348.187-2.021a1.052,1.052,0,0,1,.131-.429,4.8,4.8,0,0,1,.474-.646,28.392,28.392,0,0,1,2.682-2.62c.994-.875,2-1.738,3.006-2.6.963-.824,1.938-1.634,2.9-2.458.478-.409.944-.831,1.411-1.254A4.485,4.485,0,0,0,1649.131-1008.8Z" transform="translate(-1627.741 1012.897)" fill="#fff"/>
</svg>
