<svg xmlns="http://www.w3.org/2000/svg" width="72" height="71" viewBox="0 0 72 71">
  <g id="Group_386" data-name="Group 386" transform="translate(-842 -1061)">
    <rect id="Rectangle_368" data-name="Rectangle 368" width="72" height="71" rx="12" transform="translate(842 1061)" fill="#ffefe5"/>
    <g id="Group_146" data-name="Group 146" transform="translate(-18.002 1109.068)">
      <path id="Path_148" data-name="Path 148" d="M886.077-10.206a.665.665,0,0,0,.076,0,.654.654,0,0,0,.409-.143.667.667,0,0,0,.063-.057c.38-.385,3.738-4.794,4.178-5.372a.683.683,0,0,0,.21-.684c-.058-.139-.209-.3-.595-.3H888.6a7.624,7.624,0,0,1,7.612-7.425,7.623,7.623,0,0,1,7.615,7.615v.282a.7.7,0,0,0,.005.218l0,.02a.63.63,0,0,0,.2.323l.017.014a.934.934,0,0,0,.64.189c.352,0,1.162-.008,1.877-.015.61-.006,1.188-.012,1.4-.012a.781.781,0,0,0,.58-.214l.02-.021a.669.669,0,0,0,.164-.393v-.99h-.025a12.435,12.435,0,0,0-3.879-8.449,12.438,12.438,0,0,0-8.945-3.442,12.456,12.456,0,0,0-8.642,3.769,12.456,12.456,0,0,0-3.563,8.649h-2.124a.5.5,0,0,0-.524.286c-.113.284.125.565.249.686l4.358,5.227A.654.654,0,0,0,886.077-10.206Z" transform="translate(0)" fill="#ff5f00"/>
      <path id="Path_149" data-name="Path 149" d="M953.165,225.022l-4.358-5.227a.659.659,0,0,0-.921-.109.644.644,0,0,0-.063.056c-.365.364-3.739,4.795-4.181,5.375a.683.683,0,0,0-.21.684c.058.139.209.3.595.3h1.819a7.615,7.615,0,0,1-15.227-.189v-.282a.7.7,0,0,0-.005-.218l0-.02a.63.63,0,0,0-.2-.323l-.017-.014a.936.936,0,0,0-.64-.188c-.352,0-1.162.008-1.877.015-.61.006-1.186.012-1.4.012a.783.783,0,0,0-.591.221l-.017.018a.668.668,0,0,0-.164.393v.994h.021a12.524,12.524,0,0,0,12.511,12.061h.153A12.524,12.524,0,0,0,950.764,226h2.127a.5.5,0,0,0,.518-.283C953.526,225.429,953.288,225.144,953.165,225.022Z" transform="translate(-42.118 -234.244)" fill="#ff5f00"/>
    </g>
  </g>
</svg>
