<svg xmlns="http://www.w3.org/2000/svg" width="72" height="71" viewBox="0 0 72 71">
  <g id="Group_384" data-name="Group 384" transform="translate(-1355 -1061)">
    <rect id="Rectangle_369" data-name="Rectangle 369" width="72" height="71" rx="12" transform="translate(1355 1061)" fill="#ffefe5"/>
    <path id="_3103164" data-name="3103164" d="M16.688.03V15.468l6.717,13.919h.013A15.7,15.7,0,0,0,16.688.03ZM15.078,16.685H.02A15.546,15.546,0,0,0,4.6,26.807a15.451,15.451,0,0,0,5.08,3.417,15.639,15.639,0,0,0,6.023,1.192,15.388,15.388,0,0,0,5.918-1.165ZM.033,14.721H14.724V.03A15.694,15.694,0,0,0,.033,14.721Z" transform="translate(1374.98 1080.971)" fill="#ff5f00"/>
  </g>
</svg>
