<svg xmlns="http://www.w3.org/2000/svg" width="72" height="71" viewBox="0 0 72 71">
  <g id="Group_385" data-name="Group 385" transform="translate(-1184 -1061)">
    <rect id="Rectangle_371" data-name="Rectangle 371" width="72" height="71" rx="12" transform="translate(1184 1061)" fill="#ffefe5"/>
    <path id="Path_142" data-name="Path 142" d="M29.652-50.11h0A14.652,14.652,0,0,0,15-35.458v7.686A14.652,14.652,0,0,0,29.652-13.12h0A14.652,14.652,0,0,0,44.3-27.772v-7.686A14.652,14.652,0,0,0,29.652-50.11ZM20.883-26.219a8.325,8.325,0,0,0,7.9-8.3.693.693,0,0,1,.693-.693.693.693,0,0,1,.693.693,10.263,10.263,0,0,1-.464,2.981,9.337,9.337,0,0,1-2.376,3.88,9.626,9.626,0,0,1-5.89,2.792A8.947,8.947,0,0,1,20.883-26.219Zm1.351,2.64A11.1,11.1,0,0,0,31.55-34.523,2.081,2.081,0,0,0,29.472-36.6a2.081,2.081,0,0,0-2.079,2.079,6.884,6.884,0,0,1-2.028,4.9,6.882,6.882,0,0,1-4.8,2.027,9.035,9.035,0,0,1-.1-1.338v-.046a5.549,5.549,0,0,0,5.543-5.543,3.468,3.468,0,0,1,3.464-3.464,3.468,3.468,0,0,1,3.464,3.464A12.391,12.391,0,0,1,29.285-25.7a12.383,12.383,0,0,1-5.98,3.328A9.1,9.1,0,0,1,22.234-23.579Zm7.238,3.652a9.076,9.076,0,0,1-.936-.048,16.507,16.507,0,0,0,1.978-1.292l.125.127a11.248,11.248,0,0,0,1.061.934A8.992,8.992,0,0,1,29.472-19.927Zm3.82-.851a9.776,9.776,0,0,1-1.673-1.342,9.787,9.787,0,0,1-.938-1.086,15.171,15.171,0,0,1-4.291,2.737,8.98,8.98,0,0,1-1.716-.844,13.784,13.784,0,0,0,5.59-3.409l.66-.664.461.751A8.36,8.36,0,0,0,32.6-23.1a8.328,8.328,0,0,0,2.073,1.516A9.013,9.013,0,0,1,33.292-20.778Zm2.548-1.791a6.912,6.912,0,0,1-2.261-1.51,6.9,6.9,0,0,1-1.654-2.643,13.733,13.733,0,0,0,1.032-1.784A5.556,5.556,0,0,0,36.8-23.7,9.083,9.083,0,0,1,35.839-22.569Zm1.7-2.361a4.165,4.165,0,0,1-3.217-4.05v-5.543a4.856,4.856,0,0,0-4.85-4.85,4.856,4.856,0,0,0-4.85,4.85,4.162,4.162,0,0,1-4.157,4.157v-1.386a2.775,2.775,0,0,0,2.771-2.771,6.243,6.243,0,0,1,6.236-6.236,6.243,6.243,0,0,1,6.236,6.236v5.543a2.776,2.776,0,0,0,2.36,2.741A8.957,8.957,0,0,1,37.539-24.93Zm.94-4a9.039,9.039,0,0,1-.1,1.336,1.387,1.387,0,0,1-1.287-1.382v-5.543a7.63,7.63,0,0,0-7.622-7.622,7.63,7.63,0,0,0-7.622,7.622,1.387,1.387,0,0,1-1.386,1.386v-1.386a9.018,9.018,0,0,1,9.007-9.007,9.018,9.018,0,0,1,9.007,9.007Z" transform="translate(1190 1128.109)" fill="#ff5f00"/>
  </g>
</svg>
