<svg width="0" height="0" class="hidden">
  <symbol xmlns="http://www.w3.org/2000/svg" viewBox="0 0 72 71" id="Group 332">
    <g transform="translate(-1414 -2277)">
      <rect width="72" height="71" rx="12" transform="translate(1414 2277)" fill="#ffefe5"></rect>
      <path d="M1456.763 2296.767a1.541 1.541 0 00-1.329-.767h-5.712v6.756h10.505zm-8.643-.767h-5.765a1.541 1.541 0 00-1.331.769l-3.452 5.987h10.548V2296zm-11.12 8.357v17.075a1.885 1.885 0 001.883 1.882h20.022a1.885 1.885 0 001.883-1.882v-17.075zm15.528 7.181l-4.14 4.14a.8.8 0 01-1.132 0l-1.941-1.94a.8.8 0 111.128-1.129l1.374 1.375 3.575-3.575a.8.8 0 111.132 1.132z" fill="#ff5f00"></path>
    </g>
  </symbol>
  <symbol xmlns="http://www.w3.org/2000/svg" viewBox="0 0 72 71" id="Group 337">
    <g transform="translate(-850 -2278)">
      <rect width="72" height="71" rx="12" transform="translate(850 2278)" fill="#ffefe5"></rect>
      <g transform="translate(869 2296.677)" fill="#ff5f00">
        <ellipse cx="4.5" cy="4" rx="4.5" ry="4" transform="translate(5 18.323)"></ellipse>
        <path d="M2.102 33.146a1 1 0 001 1h12.006a1 1 0 001-1 7.003 7.003 0 00-14.006 0z"></path>
        <circle cx="4" cy="4" r="4" transform="translate(21 18.323)"></circle>
        <path d="M18.076 33.146a1 1 0 001 1h12.006a1 1 0 001-1 7.003 7.003 0 00-14.006 0zM31.149 0H3a3 3 0 00-3 3v8a3 3 0 003 3h3.589L8.3 15.715a1 1 0 001.415 0l1.708-1.708H22.73l1.708 1.708a1 1 0 001.415 0l1.708-1.708h3.588a3 3 0 003-3V3a3 3 0 00-3-3zM13.006 10H5a1 1 0 110-2h8a1 1 0 110 2zm0-4H5a1 1 0 010-2h8a1 1 0 110 2zm16.141 4h-8a1 1 0 010-2h8a1 1 0 110 2zm0-4h-8a1 1 0 010-2h8a1 1 0 110 2z"></path>
      </g>
    </g>
  </symbol>
  <symbol xmlns="http://www.w3.org/2000/svg" viewBox="0 0 72 71" id="Group 338">
    <g transform="translate(-564 -2277)">
      <rect width="72" height="71" rx="12" transform="translate(564 2277)" fill="#ffefe5"></rect>
      <path d="M601.291 2295v16.94l7.371 15.273h.018a17.231 17.231 0 00-7.389-32.213zm-1.768 18.276H583a17.059 17.059 0 005.029 11.107 16.955 16.955 0 005.575 3.75 17.161 17.161 0 006.609 1.307 16.886 16.886 0 006.494-1.279zm-16.509-2.155h16.121V2295a17.221 17.221 0 00-16.121 16.121z" fill="#ff5f00"></path>
    </g>
  </symbol>
  <symbol xmlns="http://www.w3.org/2000/svg" viewBox="0 0 72 71" id="Group 336">
    <g transform="translate(-1129 -2277)">
      <rect width="72" height="71" rx="12" transform="translate(1129 2277)" fill="#ffefe5"></rect>
      <g transform="translate(1090 2287.699)" fill="#ff5f00">
        <rect width="10" height="17" rx="2" transform="translate(59 21.301)"></rect>
        <rect width="9" height="26" rx="2" transform="translate(71 12.301)"></rect>
        <rect width="9" height="21" rx="2" transform="translate(83 17.301)"></rect>
      </g>
    </g>
  </symbol>

  <symbol xmlns="http://www.w3.org/2000/svg" viewBox="0 0 115 117" id="Group 341">
    <g transform="translate(-675 -2746)">
      <rect width="115" height="117" rx="14" transform="translate(675 2746)" fill="#ffebe0"></rect>
      <rect width="95" height="95" rx="12" transform="translate(685 2757)" fill="#ff5f00"></rect>
      <g transform="translate(653 2780)" fill="#f2f4f6">
        <path d="M95.908 9.488a1.342 1.342 0 00-1.342-1.343h-4.028V36.34a4.032 4.032 0 01-4.028 4.028H69.056v4.117a1.342 1.342 0 001.343 1.343h24.167a1.342 1.342 0 001.343-1.343z"></path>
        <circle cx="1.5" cy="1.5" r="1.5" transform="translate(78 28)"></circle>
        <path d="M87.852 36.34v-35A1.342 1.342 0 0086.51 0H62.343A1.342 1.342 0 0061 1.343v35a1.342 1.342 0 001.343 1.343H86.51a1.342 1.342 0 001.342-1.346zm-16.111-8.056H66.37a1.343 1.343 0 010-2.685h5.37a1.343 1.343 0 110 2.685zm8.056 5.37a4.028 4.028 0 114.028-4.028 4.032 4.032 0 01-4.025 4.029zm2.685-10.741H66.37a1.343 1.343 0 010-2.685h16.112a1.343 1.343 0 110 2.685zm0-5.37H66.37a1.343 1.343 0 010-2.685h16.112a1.343 1.343 0 110 2.685zM70.4 10.83a1.342 1.342 0 011.343-1.343h5.37a1.343 1.343 0 110 2.685h-5.37A1.342 1.342 0 0170.4 10.83zM82.482 6.8H66.37a1.343 1.343 0 010-2.685h16.112a1.343 1.343 0 110 2.685z"></path>
      </g>
    </g>
  </symbol>
  <symbol xmlns="http://www.w3.org/2000/svg" viewBox="0 0 115 117" id="Group 342">
    <g transform="translate(-443 -2746)">
      <rect width="115" height="117" rx="14" transform="translate(443 2746)" fill="#ffebe0"></rect>
      <rect width="95" height="95" rx="12" transform="translate(453 2757)" fill="#ff5f00"></rect>
      <path d="M506.436 2793.1h-.814v-2.39a4.71 4.71 0 10-9.419 0v2.39h-.814a1.553 1.553 0 00-1.553 1.555v5.523a7.077 7.077 0 1014.153 0v-5.523a1.553 1.553 0 00-1.553-1.555zm-7.126-2.39a1.603 1.603 0 113.206 0v2.39h-3.206zm13.438 18.961h-23.671a7.077 7.077 0 000 14.154h23.671a7.077 7.077 0 000-14.154zm-21.3 8.655a1.578 1.578 0 111.578-1.578 1.578 1.578 0 01-1.582 1.578zm6.312 0a1.578 1.578 0 111.578-1.578 1.578 1.578 0 01-1.582 1.578zm6.312 0a1.578 1.578 0 111.578-1.578 1.578 1.578 0 01-1.582 1.578zm6.312 0a1.578 1.578 0 111.578-1.578 1.578 1.578 0 01-1.581 1.578z" fill="#fff"></path>
    </g>
  </symbol>
  <symbol xmlns="http://www.w3.org/2000/svg" viewBox="0 0 115 117" id="Group 343">
    <g transform="translate(-901 -2746)">
      <rect width="115" height="117" rx="14" transform="translate(901 2746)" fill="#ffebe0"></rect>
      <rect width="95" height="95" rx="12" transform="translate(911 2757)" fill="#ff5f00"></rect>
      <path d="M976.352 2802.962a1.122 1.122 0 010-.989l1.423-2.912a3.314 3.314 0 00-1.43-4.4l-2.863-1.516a1.122 1.122 0 01-.579-.8l-.56-3.193a3.314 3.314 0 00-3.743-2.72l-3.21.454a1.119 1.119 0 01-.94-.306l-2.333-2.254a3.313 3.313 0 00-4.626 0l-2.329 2.254a1.117 1.117 0 01-.94.306l-3.21-.454a3.314 3.314 0 00-3.743 2.72l-.561 3.193a1.116 1.116 0 01-.579.8l-2.865 1.519a3.314 3.314 0 00-1.43 4.4l1.423 2.912a1.114 1.114 0 010 .989l-1.423 2.912a3.313 3.313 0 001.43 4.4l2.864 1.519a1.116 1.116 0 01.579.8l.56 3.193a3.313 3.313 0 003.267 2.754 3.437 3.437 0 00.476-.034l3.21-.454a1.12 1.12 0 01.94.306l2.329 2.254a3.313 3.313 0 004.626 0l2.329-2.254a1.123 1.123 0 01.94-.306l3.21.454a3.313 3.313 0 003.743-2.72l.56-3.193a1.122 1.122 0 01.579-.8l2.868-1.53a3.313 3.313 0 001.43-4.4zm-19.484 7.247l-6.67-6.668 2.936-2.936 3.734 3.733 9.605-9.6 2.937 2.936z" fill="#f2f4f6"></path>
    </g>
  </symbol>
  <symbol xmlns="http://www.w3.org/2000/svg" viewBox="0 0 115 117" id="Group 339">
    <g transform="translate(-1342 -2746)">
      <rect width="115" height="117" rx="14" transform="translate(1342 2746)" fill="#ffebe0"></rect>
      <rect width="95" height="95" rx="12" transform="translate(1352 2757)" fill="#ff5f00"></rect>
      <path d="M1391.688 2784.567v-2.113a.693.693 0 01.692-.692h13.023a.693.693 0 01.692.692v2.113a.693.693 0 01-.692.692h-13.022a.693.693 0 01-.693-.692zm11.2-6.059a4.008 4.008 0 00-7.991 0zm13.112 8.314v32.817a4.378 4.378 0 01-4.373 4.373h-25.468a4.378 4.378 0 01-4.373-4.373v-32.817a4.378 4.378 0 014.373-4.374h2.278v2.119a3.95 3.95 0 003.945 3.945h13.021a3.95 3.95 0 003.946-3.945v-2.119h2.278a4.378 4.378 0 014.373 4.374zm-6.509 20.419a1.627 1.627 0 00-2.238.531l-1.538 2.495-.794-.625a1.626 1.626 0 00-2.012 2.556l2.227 1.754a1.627 1.627 0 002.391-.424l2.5-4.048a1.626 1.626 0 00-.536-2.239zm0-11.71a1.626 1.626 0 00-2.238.531l-1.538 2.495-.794-.625a1.626 1.626 0 00-2.012 2.556l2.227 1.754a1.627 1.627 0 002.391-.424l2.5-4.048a1.627 1.627 0 00-.536-2.24zm-10.052 15.831a1.626 1.626 0 00-1.626-1.626h-10.626a1.627 1.627 0 000 3.253h10.626a1.626 1.626 0 001.626-1.627zm0-11.71a1.626 1.626 0 00-1.626-1.63h-10.626a1.627 1.627 0 000 3.253h10.626a1.626 1.626 0 001.626-1.623z" fill="#fff"></path>
    </g>
  </symbol>
  <symbol xmlns="http://www.w3.org/2000/svg" viewBox="0 0 115 117" id="Group 340">
    <g transform="translate(-1133 -2746)">
      <rect width="115" height="117" rx="14" transform="translate(1133 2746)" fill="#ffebe0"></rect>
      <rect width="95" height="95" rx="12" transform="translate(1143 2757)" fill="#ff5f00"></rect>
      <path d="M1191.841 2786.003a15.866 15.866 0 00-12.715 25.385l-7.317 7.318a2.763 2.763 0 000 3.907 2.763 2.763 0 003.907 0l7.432-7.432a15.889 15.889 0 108.693-29.178zm0 27.63a11.745 11.745 0 1111.743-11.743 11.756 11.756 0 01-11.743 11.74z" fill="#fff"></path>
    </g>
  </symbol>
  <symbol xmlns="http://www.w3.org/2000/svg" viewBox="0 0 72 71" id="Group 345">
    <g transform="translate(-1133 -975)">
      <rect width="72" height="71" rx="12" transform="translate(1133 975)" fill="#ffefe5"></rect>
      <path d="M1183.862 1001.595h-30.109a.753.753 0 00-.753.753v3.635a.753.753 0 00.753.753h.78l2.317 12.419a4.817 4.817 0 107.307 4.123 4.73 4.73 0 00-.018-.4h9.338a4.905 4.905 0 00-.018.4 4.817 4.817 0 107.307-4.123l2.317-12.419h.78a.753.753 0 00.753-.753v-3.635a.753.753 0 00-.754-.753zm-24.523 23.488a1.807 1.807 0 111.807-1.807 1.809 1.809 0 01-1.807 1.807zm18.936 0a1.807 1.807 0 111.807-1.807 1.809 1.809 0 01-1.807 1.807zm1.653-28.845a.2.2 0 00-.07-.076l-1.812-1.137a.2.2 0 00-.255.035l-.4.446-.4-1.355a.2.2 0 00-.071-.1l-2.292-1.734a.2.2 0 00-.2-.025l-2.1.9-2.389.387-2.065-1.007-.026-.01-1.706-.552a.2.2 0 00-.181.03l-1.5 1.112-1.933-.065a.2.2 0 00-.122.036l-2.111 1.477a.2.2 0 00-.086.165v.658l-1.381 1.139-.016.014-2.828 2.924 25.679.012z" fill="#ff5f00"></path>
    </g>
  </symbol>
  <symbol xmlns="http://www.w3.org/2000/svg" viewBox="0 0 72 71" id="Group 346">
    <g transform="translate(-852 -975)">
      <rect width="72" height="71" rx="12" transform="translate(852 975)" fill="#ffefe5"></rect>
      <path d="M900.936 1014.416l-6.315-2.429a7.584 7.584 0 00-1.284-6.033l6.6-6.6a5.043 5.043 0 10-1.7-1.7l-6.6 6.6a7.586 7.586 0 00-9.4.381l-3.359-2.855a5.043 5.043 0 10-1.556 1.829l3.358 2.854a7.586 7.586 0 00.341 8.406l-4.388 4.394a6.323 6.323 0 101.7 1.7l4.392-4.392a7.583 7.583 0 006.277 1.229l2.73 6.453a3.76 3.76 0 102.211-.937l-2.73-6.454a7.662 7.662 0 002.545-2.63l6.316 2.43a3.762 3.762 0 10.863-2.241z" fill="#ff5f00"></path>
    </g>
  </symbol>
  <symbol xmlns="http://www.w3.org/2000/svg" viewBox="0 0 72 71" id="Group 347">
    <g transform="translate(-565 -975)">
      <rect width="72" height="71" rx="12" transform="translate(565 975)" fill="#ffefe5"></rect>
      <path d="M612.543 1003.831v.349h-22.361v-.349a5.243 5.243 0 015.241-5.241h1.747v-4.542a1.047 1.047 0 011.048-1.048h6.289a1.047 1.047 0 011.048 1.048v4.542h1.747a5.243 5.243 0 015.241 5.241zm-22.361 2.446h22.361v12.578h-22.361zm0 14.675h22.361v.349a5.252 5.252 0 01-5.241 5.241h-11.879a5.252 5.252 0 01-5.241-5.241z" fill="#ff5f00"></path>
    </g>
  </symbol>
  <symbol xmlns="http://www.w3.org/2000/svg" viewBox="0 0 72 71" id="Group 348">
    <g transform="translate(-1133 -1128)">
      <rect width="72" height="71" rx="12" transform="translate(1133 1128)" fill="#ffefe5"></rect>
      <path d="M1181.234 1158.253a.883.883 0 00-.769-.448h-11.573l1.94-14.824a.888.888 0 00-1.628-.577l-14.074 24.656a.883.883 0 00.752 1.346h11.4l-1.537 14.847a.889.889 0 001.637.544l13.841-24.654a.883.883 0 00.011-.889z" fill="#ff5f00"></path>
    </g>
  </symbol>
  <symbol xmlns="http://www.w3.org/2000/svg" viewBox="0 0 72 71" id="Group 349">
    <g transform="translate(-852 -1128)">
      <rect width="72" height="71" rx="12" transform="translate(852 1128)" fill="#ffefe5"></rect>
      <g fill="#ff5f00">
        <path d="M877 1180.102v2.652a2.506 2.506 0 002.5 2.5h15.611a2.506 2.506 0 002.5-2.5v-2.652zm20.614-25.801v-2.652a2.506 2.506 0 00-2.5-2.5h-15.611a2.506 2.506 0 00-2.5 2.5v2.652zm-5.262-12.031a1.272 1.272 0 00-1.27-1.27h-7.548a1.272 1.272 0 00-1.27 1.27v4.282h10.088v-4.282zm5.262 35.238v-20.614H877v20.614zm-10.956-17.45a1.3 1.3 0 011.3 0 10.113 10.113 0 015.037 8.727v.278a5.687 5.687 0 01-11.365 0v-.278a10.113 10.113 0 015.028-8.727z"></path>
        <path d="M884.217 1168.995a3.094 3.094 0 006.181 0v-.208a7.514 7.514 0 00-3.093-6.06 7.514 7.514 0 00-3.093 6.06l.005.208z"></path>
      </g>
    </g>
  </symbol>
  <symbol xmlns="http://www.w3.org/2000/svg" viewBox="0 0 72 71" id="Group 344">
    <g transform="translate(-1416 -975)">
      <rect width="72" height="71" rx="12" transform="translate(1416 975)" fill="#ffefe5"></rect>
      <g fill="#ff5f00">
        <path d="M1461.174 996h-19.232a1.644 1.644 0 000 3.288h3.484a.921.921 0 010 1.841h-2.917v6.985h-.567a1.644 1.644 0 100 3.288h3.484a.921.921 0 110 1.841h-2.917v6.98h-.567a1.644 1.644 0 100 3.288h14.48a7.989 7.989 0 01-2.945-6.2c0-1.842 1.145-4.282 3.5-7.461a51.187 51.187 0 013.3-3.991l.331-.355v-6.216h.567a1.644 1.644 0 100-3.288z"></path>
        <path d="M1465.037 1011.199c-1.439-1.942-2.9-3.512-2.914-3.528a.394.394 0 00-.576 0 45.96 45.96 0 00-2.914 3.528c-1.966 2.652-2.963 4.711-2.963 6.119a6.165 6.165 0 1012.33 0c.001-1.408-.996-3.467-2.963-6.119zm-2.586 10.289a4.3 4.3 0 01-5.293-4.187 4.462 4.462 0 01.58-1.885.223.223 0 01.421.125 2.222 2.222 0 00-.017.26 5.371 5.371 0 004.3 5.252.223.223 0 01.008.435z"></path>
      </g>
    </g>
  </symbol>
  <symbol xmlns="http://www.w3.org/2000/svg" viewBox="0 0 79 78" id="Group 351">
    <g transform="translate(-1253 -2733)">
      <rect width="79" height="78" rx="12" transform="translate(1253 2733)" fill="#ffefe5"></rect>
      <path d="M1299.186 2753.889a1.415 1.415 0 00-1.314-.889h-11.316a1.415 1.415 0 00-1.314.889l-4.527 11.316a1.415 1.415 0 001.313 1.94h20.37a1.415 1.415 0 001.313-1.94zm-12.541 16.974a1.415 1.415 0 00-1.313-.889h-11.316a1.415 1.415 0 00-1.314.889l-4.529 11.316a1.415 1.415 0 001.313 1.94h20.37a1.415 1.415 0 001.313-1.94zm25.081 0a1.415 1.415 0 00-1.314-.889h-11.316a1.415 1.415 0 00-1.314.889l-4.527 11.316a1.415 1.415 0 001.313 1.94h20.37a1.415 1.415 0 001.313-1.94z" fill="#ff5f00"></path>
    </g>
  </symbol>
  <symbol xmlns="http://www.w3.org/2000/svg" viewBox="0 0 79 78" id="Group 352">
    <g transform="translate(-978 -2733)">
      <rect width="79" height="78" rx="12" transform="translate(978 2733)" fill="#ffefe5"></rect>
      <path d="M1038.617 2790.337v-4.713h-3.519v-23.533h-.859v-2.188h.6v-2.4h-1.315v-2.283h-1.237v-3.078a3.384 3.384 0 00-3.564-3.159h-3.775a3.384 3.384 0 00-3.564 3.159v3.473a3.175 3.175 0 00-.549-.048h-.84a3.184 3.184 0 00-.531.045v-2.867a3.163 3.163 0 00-3.159-3.159h-3.27a3.163 3.163 0 00-3.159 3.159v8.9h-1.6a3.163 3.163 0 00-3.159 3.159v6.749h-.384a5.507 5.507 0 00-5.507 5.507v13.276h-3.288v4.944h43.547v-4.944zm-16.16-38.191a2.315 2.315 0 012.488-2.083h3.775a2.315 2.315 0 012.488 2.083v3.078h-1.243v2.283h-1.461v2.396h.621v2.192h-.785v23.533h-1.443v4.713h-2.9v-4.184a.77.77 0 00.767-.77.77.77 0 00-.767-.77v-4.469a.77.77 0 00.767-.77.77.77 0 00-.767-.77v-4.695a.77.77 0 00.767-.77.77.77 0 00-.767-.77v-4.695a.77.77 0 00.767-.77.77.77 0 00-.767-.77v-4.695a.77.77 0 00.767-.77.77.77 0 00-.767-.77v-1.169a3.158 3.158 0 00-1.535-2.71zm-11.508.6a2.085 2.085 0 012.083-2.083h3.27a2.085 2.085 0 012.083 2.083v3.261a3.158 3.158 0 00-1.553 2.721v1.175h-.119a.77.77 0 00-.77.77.77.77 0 00.77.77h.119v4.694h-.119a.77.77 0 00-.77.77.77.77 0 00.77.77h.119v4.694h-.119a.77.77 0 00-.77.77.77.77 0 00.77.77h.119v4.694h-.119a.77.77 0 00-.77.77.77.77 0 00.77.77h.119v4.468h-.119a.77.77 0 00-.77.77.77.77 0 00.77.77h.119v4.184h-2.129v-25.534a3.163 3.163 0 00-3.159-3.159h-.594zm-4.762 12.057a2.086 2.086 0 012.083-2.083h1.6v9.929a5.483 5.483 0 00-3.3-1.1h-.384zm4.758 8.91v-10.993h.594a2.085 2.085 0 012.083 2.083v25.533h-1.535v-13.276a5.483 5.483 0 00-1.138-3.346z" fill="#ff5f00"></path>
    </g>
  </symbol>
  <symbol xmlns="http://www.w3.org/2000/svg" viewBox="0 0 80 78" id="Group 353">
    <g transform="translate(-704 -2733)">
      <rect width="80" height="78" rx="12" transform="translate(704 2733)" fill="#ffefe5"></rect>
      <path d="M752.693 2757H736.05a6.335 6.335 0 00-6.316 6.316v16.643a6.335 6.335 0 006.316 6.316h16.643a6.335 6.335 0 006.316-6.316v-16.643a6.335 6.335 0 00-6.316-6.316zm-10.05 7.756a.519.519 0 01.518-.517h2.423a.519.519 0 01.518.517v2.423a.519.519 0 01-.518.517h-2.423a.519.519 0 01-.518-.517zm3.458 14.087a.519.519 0 01-.518.517h-2.423a.519.519 0 01-.518-.517v-2.421a.519.519 0 01.518-.517h2.423a.519.519 0 01.518.517zm6.066-6.372a.752.752 0 01-.751.752h-14.087a.751.751 0 01-.751-.752v-1.342a.752.752 0 01.751-.752h14.088a.752.752 0 01.751.752z" fill="#ff5f00"></path>
    </g>
  </symbol>
  <symbol xmlns="http://www.w3.org/2000/svg" viewBox="0 0 80 78" id="Group 354">
    <g transform="translate(-429 -2733)">
      <rect width="80" height="78" rx="12" transform="translate(429 2733)" fill="#ffefe5"></rect>
      <g fill="#ff5f00">
        <path d="M479.139 2756.287H457.99a1.808 1.808 0 100 3.615h3.832a1.012 1.012 0 010 2.025h-3.209v7.678h-.623a1.808 1.808 0 100 3.615l3.832.005a1.012 1.012 0 110 2.025h-3.209v7.676h-.623a1.808 1.808 0 100 3.615h15.923a8.785 8.785 0 01-3.239-6.814c0-2.026 1.26-4.709 3.851-8.2a56.29 56.29 0 013.625-4.388l.364-.391v-6.846h.624a1.808 1.808 0 100-3.615z"></path>
        <path d="M483.388 2773.001c-1.583-2.135-3.188-3.863-3.2-3.88a.433.433 0 00-.633 0 50.094 50.094 0 00-3.2 3.88c-2.162 2.916-3.258 5.18-3.258 6.729a6.78 6.78 0 1013.559 0c-.009-1.548-1.106-3.812-3.268-6.729zm-2.844 11.315a4.733 4.733 0 01-5.82-4.6 4.906 4.906 0 01.638-2.073.245.245 0 01.463.138 2.445 2.445 0 00-.018.286 5.907 5.907 0 004.729 5.776.245.245 0 01.008.479z"></path>
      </g>
    </g>
  </symbol>
  <symbol xmlns="http://www.w3.org/2000/svg" viewBox="0 0 79 78" id="Group 350">
    <g transform="translate(-1527 -2733)">
      <rect width="79" height="78" rx="12" transform="translate(1527 2733)" fill="#ffefe5"></rect>
      <path d="M1579.234 2767.253a.883.883 0 00-.769-.448h-11.573l1.94-14.824a.888.888 0 00-1.628-.577l-14.074 24.656a.883.883 0 00.752 1.346h11.4l-1.537 14.847a.889.889 0 001.637.544l13.841-24.654a.883.883 0 00.011-.889z" fill="#ff5f00"></path>
    </g>
  </symbol>
  <symbol xmlns="http://www.w3.org/2000/svg" viewBox="0 0 72 71" id="Group 357">
    <g transform="translate(-581 -11895)">
      <rect width="72" height="71" rx="14" transform="translate(581 11895)" fill="#ffefe5"></rect>
      <g fill="#ff5f00">
        <path d="M639.1 11923.063l-21.652-7.639a1.347 1.347 0 00-.9 0l-21.648 7.639a1.348 1.348 0 000 2.541l21.652 7.7a1.347 1.347 0 00.9 0l21.652-7.7a1.348 1.348 0 000-2.541zm-2.339 17.989v-11.755l-2.7.958v10.8a2.706 2.706 0 000 4.694v6.623a1.35 1.35 0 002.7 0v-6.623a2.706 2.706 0 000-4.694z"></path>
        <path d="M617 11936.075a4.033 4.033 0 01-1.354-.234l-12.172-4.327v5.93c0 1.451 1.514 2.678 4.5 3.647a31.77 31.77 0 0018.056 0c2.985-.969 4.5-2.2 4.5-3.647v-5.93l-12.172 4.327a4.034 4.034 0 01-1.358.234z"></path>
      </g>
    </g>
  </symbol>
  <symbol xmlns="http://www.w3.org/2000/svg" viewBox="0 0 72 71" id="Group 358">
    <g transform="translate(-1400 -11895)">
      <rect width="72" height="71" rx="14" transform="translate(1400 11895)" fill="#ffefe5"></rect>
      <path d="M1437.291 11915v16.94l7.371 15.273h.018a17.231 17.231 0 00-7.389-32.213zm-1.768 18.276H1419a17.059 17.059 0 005.029 11.107 16.955 16.955 0 005.575 3.75 17.161 17.161 0 006.609 1.307 16.886 16.886 0 006.494-1.279zm-16.509-2.155h16.121V11915a17.221 17.221 0 00-16.121 16.121z" fill="#ff5f00"></path>
    </g>
  </symbol>
  <symbol xmlns="http://www.w3.org/2000/svg" viewBox="0 0 72 71" id="Group 356">
    <g transform="translate(-854 -11896)">
      <rect width="72" height="71" rx="14" transform="translate(854 11896)" fill="#ffefe5"></rect>
      <g transform="translate(873 11911.677)" fill="#ff5f00">
        <ellipse cx="4.5" cy="4" rx="4.5" ry="4" transform="translate(5 18.323)"></ellipse>
        <path d="M2.102 33.146a1 1 0 001 1h12.006a1 1 0 001-1 7.003 7.003 0 00-14.006 0z"></path>
        <circle cx="4" cy="4" r="4" transform="translate(21 18.323)"></circle>
        <path d="M18.076 33.146a1 1 0 001 1h12.006a1 1 0 001-1 7.003 7.003 0 00-14.006 0zM31.149 0H3a3 3 0 00-3 3v8a3 3 0 003 3h3.589L8.3 15.715a1 1 0 001.415 0l1.708-1.708H22.73l1.708 1.708a1 1 0 001.415 0l1.708-1.708h3.588a3 3 0 003-3V3a3 3 0 00-3-3zM13.006 10H5a1 1 0 110-2h8a1 1 0 110 2zm0-4H5a1 1 0 010-2h8a1 1 0 110 2zm16.141 4h-8a1 1 0 010-2h8a1 1 0 110 2zm0-4h-8a1 1 0 010-2h8a1 1 0 110 2z"></path>
      </g>
    </g>
  </symbol>
  <symbol xmlns="http://www.w3.org/2000/svg" viewBox="0 0 115 117" id="Group 360">
    <g transform="translate(-679 -12412)">
      <rect width="115" height="117" rx="16" transform="translate(679 12412)" fill="#ffebe0"></rect>
      <rect width="95" height="95" rx="12" transform="translate(689 12423)" fill="#ff5f00"></rect>
      <path d="M724.62 12449.164l15.626 11.619 15.626-11.619z" fill="#fff"></path>
      <path d="M740.985 12463.316a1.237 1.237 0 01-1.476 0l-16.396-12.192v12.358a15.635 15.635 0 0120.6 12h12.427a1.237 1.237 0 001.237-1.237v-23.121z" fill="#fff"></path>
      <path d="M728.323 12465.061a13.16 13.16 0 1013.16 13.16 13.175 13.175 0 00-13.16-13.16zm4.849 14.035a1.237 1.237 0 01-1.749 0l-1.861-1.862v4.963a1.237 1.237 0 01-2.474 0v-4.963l-1.863 1.863a1.237 1.237 0 01-1.749-1.749l3.974-3.975a1.237 1.237 0 011.749 0l3.975 3.974a1.237 1.237 0 01-.002 1.75z" fill="#fff"></path>
    </g>
  </symbol>
  <symbol xmlns="http://www.w3.org/2000/svg" viewBox="0 0 115 117" id="Group 361">
    <g transform="translate(-456 -12412)">
      <rect width="115" height="117" rx="16" transform="translate(456 12412)" fill="#ffebe0"></rect>
      <rect width="95" height="95" rx="12" transform="translate(463 12423)" fill="#ff5f00"></rect>
      <path d="M515.436 12456.1h-.814v-2.39a4.71 4.71 0 10-9.419 0v2.39h-.814a1.553 1.553 0 00-1.553 1.555v5.523a7.077 7.077 0 1014.153 0v-5.523a1.553 1.553 0 00-1.553-1.555zm-7.126-2.39a1.603 1.603 0 113.206 0v2.39h-3.206zm13.438 18.961h-23.671a7.077 7.077 0 000 14.154h23.671a7.077 7.077 0 000-14.154zm-21.3 8.655a1.578 1.578 0 111.578-1.578 1.578 1.578 0 01-1.582 1.578zm6.312 0a1.578 1.578 0 111.578-1.578 1.578 1.578 0 01-1.582 1.578zm6.312 0a1.578 1.578 0 111.578-1.578 1.578 1.578 0 01-1.582 1.578zm6.312 0a1.578 1.578 0 111.578-1.578 1.578 1.578 0 01-1.581 1.578z" fill="#fff"></path>
    </g>
  </symbol>
  <symbol xmlns="http://www.w3.org/2000/svg" viewBox="0 0 115 117" id="Group 362">
    <g transform="translate(-1344 -12412)">
      <rect width="115" height="117" rx="16" transform="translate(1344 12412)" fill="#ffebe0"></rect>
      <rect width="95" height="95" rx="12" transform="translate(1354 12423)" fill="#ff5f00"></rect>
      <path d="M1394.815 12476.803a1.034 1.034 0 01-.932-.6 3.129 3.129 0 01-.213-.623q-.966-3.773-1.924-7.547-1.833-7.2-3.662-14.412c-.27-1.065-.528-2.134-.792-3.2a1.007 1.007 0 01.076-.726.959.959 0 011.463-.315 2.006 2.006 0 01.217.218l7.385 8.047c.9.984 1.808 1.967 2.707 2.954a1.763 1.763 0 00.745.526 1.526 1.526 0 001.076-.056 4.225 4.225 0 00.738-.388q7.95-5.216 15.9-10.439c.479-.315.966-.614 1.449-.92a.671.671 0 01.539-.129.434.434 0 01.328.634 1.607 1.607 0 01-.273.4q-2.042 2.25-4.091 4.493l-10.36 11.353q-4.586 5.027-9.173 10.052c-.108.119-.217.24-.334.35a1.283 1.283 0 01-.869.328zm25.436 12.711a.959.959 0 01-.564.983.884.884 0 01-.986-.149 1.786 1.786 0 01-.184-.189l-8.517-9.279-1.427-1.559-.209-.227a1.5 1.5 0 00-1.76-.42 3.846 3.846 0 00-.743.375q-2.583 1.684-5.154 3.384-5.408 3.554-10.819 7.107c-.466.305-.941.6-1.414.894a1.24 1.24 0 01-.234.121.52.52 0 01-.552-.179.387.387 0 01-.016-.454 2.233 2.233 0 01.283-.389c.619-.687 1.243-1.371 1.866-2.053l14.485-15.875 7.274-7.971a1.806 1.806 0 01.761-.576 1.042 1.042 0 011.3.531 4 4 0 01.239.708c.33 1.277.651 2.557.976 3.835l3.685 14.493q.779 3.07 1.553 6.141c.071.282.121.571.157.748z" fill="#fff"></path>
    </g>
  </symbol>
  <symbol xmlns="http://www.w3.org/2000/svg" viewBox="0 0 115 117" id="Group 358">
    <g transform="translate(-1129 -12412)">
      <rect width="115" height="117" rx="16" transform="translate(1129 12412)" fill="#ffebe0"></rect>
      <rect width="95" height="95" rx="12" transform="translate(1139 12423)" fill="#ff5f00"></rect>
      <path d="M1184.598 12448a17.8 17.8 0 00-17.6 17.985v9.435a17.794 17.794 0 0017.6 17.984 17.794 17.794 0 0017.595-17.984v-9.435a17.8 17.8 0 00-17.595-17.985zm-12.829 30.6a12.182 12.182 0 0011.562-12.146 1.013 1.013 0 011.014-1.014 1.014 1.014 0 011.014 1.014 15.054 15.054 0 01-.679 4.362 13.667 13.667 0 01-3.477 5.677 14.093 14.093 0 01-8.618 4.085 13.1 13.1 0 01-.817-1.98zm1.977 3.863a16.243 16.243 0 0013.631-16.013 3.041 3.041 0 00-6.082 0 10.13 10.13 0 01-9.991 10.135 13.1 13.1 0 01-.146-1.958v-.067a8.12 8.12 0 008.11-8.11 5.069 5.069 0 1110.137 0 18.252 18.252 0 01-14.092 17.776 13.3 13.3 0 01-1.568-1.765zm10.59 5.344a13.392 13.392 0 01-1.37-.07 24.323 24.323 0 002.894-1.891l.183.186a16.4 16.4 0 001.552 1.367 13.244 13.244 0 01-3.264.405zm5.589-1.245a14.386 14.386 0 01-3.82-3.552 22.242 22.242 0 01-6.278 4 13.194 13.194 0 01-2.511-1.235 20.19 20.19 0 008.179-4.988l.966-.972.674 1.1a12.312 12.312 0 004.811 4.464 13.329 13.329 0 01-2.021 1.18zm3.728-2.62a10.176 10.176 0 01-5.728-6.077 20.217 20.217 0 001.51-2.61 8.132 8.132 0 005.623 7.032 13.53 13.53 0 01-1.406 1.655zm2.487-3.455a6.093 6.093 0 01-4.707-5.926v-8.11a7.1 7.1 0 10-14.193 0 6.092 6.092 0 01-6.082 6.082v-2.028a4.062 4.062 0 004.054-4.054 9.124 9.124 0 1118.249 0v8.11a4.062 4.062 0 003.453 4.01 13.148 13.148 0 01-.776 1.915zm1.375-5.853a13.464 13.464 0 01-.146 1.955 2.03 2.03 0 01-1.883-2.022v-8.11a11.152 11.152 0 10-22.3 0 2.031 2.031 0 01-2.028 2.028v-2.028a13.179 13.179 0 1126.358 0z" fill="#fff"></path>
    </g>
  </symbol>
  <symbol xmlns="http://www.w3.org/2000/svg" viewBox="0 0 115 117" id="Group 359">
    <g transform="translate(-903 -12412)">
      <rect width="115" height="117" rx="16" transform="translate(903 12412)" fill="#ffebe0"></rect>
      <rect width="95" height="95" rx="12" transform="translate(913 12423)" fill="#ff5f00"></rect>
      <g fill="#fff">
        <path d="M945.925 12462.082a7.808 7.808 0 017.8-7.8h14.994a4.506 4.506 0 00-4.319-3.282h-18.885a4.519 4.519 0 00-4.515 4.515v25.448a4.519 4.519 0 004.515 4.515h.41z"></path>
        <path d="M972.609 12457.567h-18.885a4.519 4.519 0 00-4.515 4.515v23.806a4.519 4.519 0 004.515 4.515h18.885a4.519 4.519 0 004.515-4.515v-23.806a4.519 4.519 0 00-4.515-4.515zm-3.288 27.911h-12.312a1.232 1.232 0 110-2.463h12.312a1.232 1.232 0 010 2.463zm0-6.567h-12.312a1.232 1.232 0 010-2.463h12.312a1.232 1.232 0 010 2.463zm0-5.746h-12.312a1.232 1.232 0 010-2.463h12.312a1.232 1.232 0 010 2.463zm0-6.567h-12.312a1.232 1.232 0 010-2.463h12.312a1.232 1.232 0 010 2.463z"></path>
      </g>
    </g>
  </symbol>
  <symbol xmlns="http://www.w3.org/2000/svg" viewBox="0 0 115 117" id="Group 363">
    <g transform="translate(-1129 -12412)">
      <rect width="115" height="117" rx="16" transform="translate(1129 12412)" fill="#ffebe0"></rect>
      <rect width="95" height="95" rx="12" transform="translate(1139 12423)" fill="#ff5f00"></rect>
      <path d="M1184.598 12448a17.8 17.8 0 00-17.6 17.985v9.435a17.794 17.794 0 0017.6 17.984 17.794 17.794 0 0017.595-17.984v-9.435a17.8 17.8 0 00-17.595-17.985zm-12.829 30.6a12.182 12.182 0 0011.562-12.146 1.013 1.013 0 011.014-1.014 1.014 1.014 0 011.014 1.014 15.054 15.054 0 01-.679 4.362 13.667 13.667 0 01-3.477 5.677 14.093 14.093 0 01-8.618 4.085 13.1 13.1 0 01-.817-1.98zm1.977 3.863a16.243 16.243 0 0013.631-16.013 3.041 3.041 0 00-6.082 0 10.13 10.13 0 01-9.991 10.135 13.1 13.1 0 01-.146-1.958v-.067a8.12 8.12 0 008.11-8.11 5.069 5.069 0 1110.137 0 18.252 18.252 0 01-14.092 17.776 13.3 13.3 0 01-1.568-1.765zm10.59 5.344a13.392 13.392 0 01-1.37-.07 24.323 24.323 0 002.894-1.891l.183.186a16.4 16.4 0 001.552 1.367 13.244 13.244 0 01-3.264.405zm5.589-1.245a14.386 14.386 0 01-3.82-3.552 22.242 22.242 0 01-6.278 4 13.194 13.194 0 01-2.511-1.235 20.19 20.19 0 008.179-4.988l.966-.972.674 1.1a12.312 12.312 0 004.811 4.464 13.329 13.329 0 01-2.021 1.18zm3.728-2.62a10.176 10.176 0 01-5.728-6.077 20.217 20.217 0 001.51-2.61 8.132 8.132 0 005.623 7.032 13.53 13.53 0 01-1.406 1.655zm2.487-3.455a6.093 6.093 0 01-4.707-5.926v-8.11a7.1 7.1 0 10-14.193 0 6.092 6.092 0 01-6.082 6.082v-2.028a4.062 4.062 0 004.054-4.054 9.124 9.124 0 1118.249 0v8.11a4.062 4.062 0 003.453 4.01 13.148 13.148 0 01-.776 1.915zm1.375-5.853a13.464 13.464 0 01-.146 1.955 2.03 2.03 0 01-1.883-2.022v-8.11a11.152 11.152 0 10-22.3 0 2.031 2.031 0 01-2.028 2.028v-2.028a13.179 13.179 0 1126.358 0z" fill="#fff"></path>
    </g>
  </symbol>
  <symbol xmlns="http://www.w3.org/2000/svg" viewBox="0 0 115 117" id="Group 366">
    <g transform="translate(-679 -2559)">
      <rect width="115" height="117" rx="16" transform="translate(679 2559)" fill="#ffebe0"></rect>
      <rect width="95" height="95" rx="12" transform="translate(689 2570)" fill="#ff5f00"></rect>
      <path d="M741.819 2605.005a1.7 1.7 0 00-1.468-.847h-6.306v7.459h11.6zm-9.541-.847h-6.366a1.7 1.7 0 00-1.469.849l-3.811 6.61h11.646v-7.459zM720 2613.385v18.852a2.081 2.081 0 002.079 2.078h22.105a2.081 2.081 0 002.079-2.078v-18.852zm17.143 7.928l-4.571 4.571a.883.883 0 01-1.25 0l-2.143-2.147a.884.884 0 111.25-1.25l1.514 1.523 3.947-3.947a.884.884 0 111.25 1.25zm21.292-24.213h-.814v-2.39a4.71 4.71 0 10-9.419 0v2.39h-.814a1.553 1.553 0 00-1.553 1.555v5.523a7.077 7.077 0 1014.153 0v-5.523a1.553 1.553 0 00-1.553-1.555zm-7.126-2.39a1.603 1.603 0 113.206 0v2.39h-3.206z" fill="#fff"></path>
    </g>
  </symbol>
  <symbol xmlns="http://www.w3.org/2000/svg" viewBox="0 0 115 117" id="Group 367">
    <g transform="translate(-453 -2559)">
      <rect width="115" height="117" rx="16" transform="translate(453 2559)" fill="#ffebe0"></rect>
      <rect width="95" height="95" rx="12" transform="translate(463 2570)" fill="#ff5f00"></rect>
      <path d="M531.436 2597.1h-.814v-2.39a4.71 4.71 0 10-9.419 0v2.39h-.814a1.553 1.553 0 00-1.553 1.555v5.523a7.077 7.077 0 1014.153 0v-5.523a1.553 1.553 0 00-1.553-1.555zm-7.126-2.39a1.603 1.603 0 113.206 0v2.39h-3.206zm-8.501 12.18h-19.284a2.8 2.8 0 00-2.8 2.8v26.276a2.8 2.8 0 002.8 2.8h19.284a2.8 2.8 0 002.8-2.8v-26.276a2.8 2.8 0 00-2.8-2.8zm-17.713 18.292a.934.934 0 01.934-.934h8.806a.934.934 0 110 1.868h-8.806a.934.934 0 01-.934-.934zm12.939 9.19a3.139 3.139 0 113.2-3.138 3.169 3.169 0 01-3.2 3.138zm2.27-12.282H499.03a.934.934 0 110-1.868h14.275a.934.934 0 110 1.868zm0-4.029H499.03a.934.934 0 010-1.868h14.275a.934.934 0 110 1.868zm0-4.029H499.03a.934.934 0 010-1.868h14.275a.934.934 0 110 1.868z" fill="#fff"></path>
    </g>
  </symbol>
  <symbol xmlns="http://www.w3.org/2000/svg" viewBox="0 0 115 117" id="Group 365">
    <g transform="translate(-903 -2559)">
      <rect width="115" height="117" rx="16" transform="translate(903 2559)" fill="#ffebe0"></rect>
      <rect width="95" height="95" rx="12" transform="translate(913 2570)" fill="#ff5f00"></rect>
      <g transform="translate(889.313 2597.856)" fill="#fff">
        <rect width="8" height="14" rx="2" transform="translate(78.687 20.144)"></rect>
        <rect width="8" height="22" rx="2" transform="translate(68.687 12.144)"></rect>
        <rect width="8" height="18" rx="2" transform="translate(58.687 16.144)"></rect>
      </g>
      <path d="M980.435 2600.1h-.814v-2.39a4.71 4.71 0 10-9.419 0v2.39h-.814a1.553 1.553 0 00-1.553 1.555v5.523a7.077 7.077 0 1014.153 0v-5.523a1.553 1.553 0 00-1.553-1.555zm-7.126-2.39a1.603 1.603 0 113.206 0v2.39h-3.206z" fill="#fff"></path>
    </g>
  </symbol>
  <symbol xmlns="http://www.w3.org/2000/svg" viewBox="0 0 115 117" id="Group 369">
    <g transform="translate(-679 -1544)">
      <rect width="115" height="117" rx="16" transform="translate(679 1544)" fill="#ffebe0"></rect>
      <rect width="95" height="95" rx="12" transform="translate(689 1555)" fill="#ff5f00"></rect>
      <g fill="#fff">
        <path d="M740.304 1588.152h-1.731a4.343 4.343 0 00-8.353 0h-1.734a1.191 1.191 0 00-1.182 1.182v2.366a2.771 2.771 0 002.758 2.756h8.668a2.771 2.771 0 002.758-2.756v-2.366a1.191 1.191 0 00-1.184-1.182z"></path>
        <path d="M743.458 1589.728h-.394v1.97a4.332 4.332 0 01-4.334 4.33h-8.668a4.332 4.332 0 01-4.334-4.33v-1.97h-.394a4.332 4.332 0 00-4.334 4.334v19.7a4.332 4.332 0 004.334 4.334h10.386a13.771 13.771 0 01-1.308-5.516h-7.502a1.182 1.182 0 110-2.364h7.628a14.424 14.424 0 01.693-2.758h-8.321a1.182 1.182 0 110-2.364h9.456a13.716 13.716 0 012.191-2.758H726.91a1.182 1.182 0 010-2.364h14.878a13.588 13.588 0 016-1.56v-4.35a4.332 4.332 0 00-4.33-4.334z"></path>
        <path d="M748.186 1601.548a10.638 10.638 0 1010.638 10.638 10.65 10.65 0 00-10.638-10.638zm5.125 8.525l-5.516 6.3a1.574 1.574 0 01-1.133.537h-.052a1.575 1.575 0 01-1.114-.462l-3.148-3.148a1.576 1.576 0 112.229-2.229l1.961 1.961 4.407-5.037a1.576 1.576 0 112.372 2.077z"></path>
      </g>
    </g>
  </symbol>
  <symbol xmlns="http://www.w3.org/2000/svg" viewBox="0 0 115 117" id="Group 368">
    <g transform="translate(-903 -1544)">
      <rect width="115" height="117" rx="16" transform="translate(903 1544)" fill="#ffebe0"></rect>
      <rect width="95" height="95" rx="12" transform="translate(913 1555)" fill="#ff5f00"></rect>
      <g fill="#fff">
        <path d="M965.112 1586.284h-1.806a4.524 4.524 0 00-8.7 0h-1.808a1.24 1.24 0 00-1.231 1.231v2.463a2.887 2.887 0 002.873 2.873h9.027a2.887 2.887 0 002.873-2.873v-2.463a1.24 1.24 0 00-1.228-1.231z"></path>
        <path d="M968.4 1587.925h-.41v2.052a4.512 4.512 0 01-4.52 4.515h-9.03a4.512 4.512 0 01-4.515-4.515v-2.052h-.41a4.512 4.512 0 00-4.515 4.515v20.523a4.512 4.512 0 004.515 4.515h12.117l.361-2.019a4.572 4.572 0 011.248-2.413l1.313-1.313h-13.397a1.232 1.232 0 110-2.463h15.6a.559.559 0 01.23.033H967l5.911-5.911v-10.952a4.512 4.512 0 00-4.511-4.515zm-1.646 18.47h-15.597a1.232 1.232 0 110-2.463h15.6a1.232 1.232 0 010 2.463zm0-5.336h-15.597a1.232 1.232 0 110-2.463h15.6a1.232 1.232 0 010 2.463zm-1.187 21.345a1.232 1.232 0 01-1.208-1.447l.87-4.934a1.236 1.236 0 01.341-.657l12.189-12.188c1.5-1.5 2.968-1.1 3.773-.291l2.027 2.031a2.875 2.875 0 010 4.064l-12.188 12.19a1.213 1.213 0 01-.657.342l-4.934.87a1.173 1.173 0 01-.213.02zm4.934-2.1h.016z"></path>
      </g>
    </g>
  </symbol>
  <symbol xmlns="http://www.w3.org/2000/svg" viewBox="0 0 72 71" id="Group 371">
    <g transform="translate(-1127 -3194)">
      <rect width="72" height="71" rx="14" transform="translate(1127 3194)" fill="#ffefe5"></rect>
      <path d="M1163.291 3214v16.94l7.371 15.273h.018a17.231 17.231 0 00-7.389-32.213zm-1.768 18.276H1145a17.059 17.059 0 005.029 11.107 16.955 16.955 0 005.575 3.75 17.161 17.161 0 006.609 1.307 16.886 16.886 0 006.494-1.279zm-16.509-2.155h16.121V3214a17.221 17.221 0 00-16.121 16.121z" fill="#ff5f00"></path>
    </g>
  </symbol>
  <symbol xmlns="http://www.w3.org/2000/svg" viewBox="0 0 72 71" id="Group 372">
    <g transform="translate(-854 -3195)">
      <rect width="72" height="71" rx="14" transform="translate(854 3195)" fill="#ffefe5"></rect>
      <path d="M892.38 3214.003a13.992 13.992 0 00-11.213 22.387l-6.453 6.454a2.436 2.436 0 000 3.446 2.437 2.437 0 003.446 0l6.554-6.554a14.013 14.013 0 107.666-25.733zm0 24.367a10.357 10.357 0 1110.356-10.356 10.368 10.368 0 01-10.356 10.353z" fill="#ff5f00"></path>
    </g>
  </symbol>
  <symbol xmlns="http://www.w3.org/2000/svg" viewBox="0 0 72 71" id="Group 373">
    <g transform="translate(-581 -3194)">
      <rect width="72" height="71" rx="14" transform="translate(581 3194)" fill="#ffefe5"></rect>
      <g transform="translate(600 3210.677)" fill="#ff5f00">
        <circle cx="4" cy="4" r="4" transform="translate(5 18.323)"></circle>
        <path d="M2.102 33.146a1 1 0 001 1h12.006a1 1 0 001-1 7.003 7.003 0 00-14.006 0z"></path>
        <circle cx="4" cy="4" r="4" transform="translate(21 18.323)"></circle>
        <path d="M18.076 33.146a1 1 0 001 1h12.006a1 1 0 001-1 7.003 7.003 0 00-14.006 0zM31.149 0H3a3 3 0 00-3 3v8a3 3 0 003 3h3.589L8.3 15.715a1 1 0 001.415 0l1.708-1.708H22.73l1.708 1.708a1 1 0 001.415 0l1.708-1.708h3.588a3 3 0 003-3V3a3 3 0 00-3-3zM13.006 10H5a1 1 0 110-2h8a1 1 0 110 2zm0-4H5a1 1 0 010-2h8a1 1 0 110 2zm16.141 4h-8a1 1 0 010-2h8a1 1 0 110 2zm0-4h-8a1 1 0 010-2h8a1 1 0 110 2z"></path>
      </g>
    </g>
  </symbol>
  <symbol xmlns="http://www.w3.org/2000/svg" viewBox="0 0 72 71" id="Group 370">
    <g transform="translate(-1400 -3194)">
      <rect width="72" height="71" rx="14" transform="translate(1400 3194)" fill="#ffefe5"></rect>
      <path d="M1426.329 3222.759h-2.043v-2.044a1.414 1.414 0 10-2.828 0v2.044h-2.044a1.414 1.414 0 00-1.414 1.414v6.914a1.414 1.414 0 001.414 1.414h2.044v2.159a1.414 1.414 0 002.828 0v-2.159h2.043a1.414 1.414 0 001.414-1.414v-6.914a1.414 1.414 0 00-1.414-1.414zm12.838 5.018h-2.043v-2.044a1.414 1.414 0 10-2.828 0v2.044h-2.044a1.414 1.414 0 00-1.414 1.414v6.915a1.414 1.414 0 001.414 1.414h2.044v9.074a1.414 1.414 0 102.828 0v-9.074h2.043a1.414 1.414 0 001.414-1.414v-6.915a1.414 1.414 0 00-1.414-1.414zm12.838-10.319h-2.044v-2.044a1.414 1.414 0 10-2.828 0v2.044h-2.043a1.414 1.414 0 00-1.414 1.414v10.314a1.414 1.414 0 001.414 1.414h2.043v5.616a1.414 1.414 0 102.828 0v-5.616h2.044a1.414 1.414 0 001.414-1.414v-10.314a1.414 1.414 0 00-1.414-1.414z" fill="#ff5f00"></path>
    </g>
  </symbol>
  <symbol xmlns="http://www.w3.org/2000/svg" viewBox="0 0 72 71" id="Group 403">
    <g transform="translate(-709 -2897)">
      <rect width="72" height="71" rx="12" transform="translate(709 2897)" fill="#ffefe5"></rect>
      <g fill="#ff5f00">
        <path d="M735.724 2934.559a22.432 22.432 0 002.916-.187v-10.143a22.445 22.445 0 00-2.916-.187c-5.778-.004-10.464 2.121-10.464 4.742v1.029c0 2.616 4.686 4.746 10.464 4.746zm0 5.298a22.464 22.464 0 002.916-.187v-2.974a22.443 22.443 0 01-2.916.188c-5.044 0-9.254-1.619-10.243-3.774a2.315 2.315 0 00-.22.972v1.029c-.001 2.625 4.685 4.746 10.463 4.746zm2.916 2.368v-.231a22.435 22.435 0 01-2.916.188c-5.044 0-9.254-1.619-10.243-3.774a2.314 2.314 0 00-.22.972v1.029c0 2.621 4.685 4.741 10.463 4.741a22.222 22.222 0 003.307-.242 3.744 3.744 0 01-.391-1.659zM750.809 2916c-5.779 0-10.463 2.125-10.463 4.746v1.029c0 2.621 4.685 4.746 10.463 4.746s10.463-2.125 10.463-4.746v-1.029c.003-2.625-4.682-4.746-10.463-4.746z"></path>
        <path d="M750.809 2928.846c-5.044 0-9.254-1.619-10.243-3.774a2.314 2.314 0 00-.22.972v1.029c0 2.621 4.685 4.746 10.463 4.746s10.463-2.125 10.463-4.746v-1.029a2.314 2.314 0 00-.22-.972c-.986 2.156-5.196 3.774-10.243 3.774z"></path>
        <path d="M750.809 2934.142c-5.044 0-9.254-1.619-10.243-3.774a2.314 2.314 0 00-.22.972v1.029c0 2.621 4.685 4.746 10.463 4.746s10.463-2.125 10.463-4.746v-1.027a2.314 2.314 0 00-.22-.972c-.986 2.155-5.196 3.772-10.243 3.772z"></path>
        <path d="M750.809 2939.729c-5.044 0-9.254-1.619-10.243-3.774a2.314 2.314 0 00-.22.972v1.027c0 2.621 4.685 4.746 10.463 4.746s10.463-2.125 10.463-4.746v-1.029a2.314 2.314 0 00-.22-.972c-.986 2.157-5.196 3.776-10.243 3.776z"></path>
        <path d="M750.809 2945.027c-5.044 0-9.254-1.619-10.243-3.774a2.315 2.315 0 00-.22.972v1.029c0 2.621 4.685 4.746 10.463 4.746s10.463-2.125 10.463-4.746v-1.029a2.314 2.314 0 00-.22-.972c-.986 2.155-5.196 3.774-10.243 3.774z"></path>
      </g>
    </g>
  </symbol>
  <symbol xmlns="http://www.w3.org/2000/svg" viewBox="0 0 72 71" id="Group 404">
    <g transform="translate(-1396 -3047)">
      <rect width="72" height="71" rx="12" transform="translate(1396 3047)" fill="#ffefe5"></rect>
      <path d="M1434.841 3066.003a15.866 15.866 0 00-12.715 25.385l-7.317 7.318a2.763 2.763 0 000 3.907 2.763 2.763 0 003.907 0l7.432-7.432a15.889 15.889 0 108.693-29.178zm0 27.63a11.745 11.745 0 1111.743-11.743 11.756 11.756 0 01-11.743 11.74z" fill="#ff5f00"></path>
      <rect width="4.145" height="9.671" rx="1.969" fill="#ff5f00" transform="translate(1427.243 3079.124)"></rect>
      <rect width="4.145" height="15.197" rx="1.969" fill="#ff5f00" transform="translate(1432.769 3073.598)"></rect>
      <rect width="4.145" height="12.434" rx="1.969" fill="#ff5f00" transform="translate(1438.294 3076.361)"></rect>
    </g>
  </symbol>
  <symbol xmlns="http://www.w3.org/2000/svg" viewBox="0 0 72 71" id="Group 405">
    <g transform="translate(-1124 -3050)">
      <rect width="72" height="71" rx="12" transform="translate(1124 3050)" fill="#ffefe5"></rect>
      <path d="M1161.218 3073.976l-12.835-1.954a2.07 2.07 0 00-1.659.459 2.088 2.088 0 00-.724 1.565v24.608a1.171 1.171 0 001.168 1.168h3.8v-6.132a2.039 2.039 0 012.044-2.044h2.92a2.039 2.039 0 012.044 2.044v6.132h4.964v-23.825a2.045 2.045 0 00-1.717-2.02zm-8.794 15.046h-1.752a.876.876 0 010-1.752h1.752a.876.876 0 010 1.752zm0-3.5h-1.752a.876.876 0 110-1.752h1.752a.876.876 0 110 1.752zm0-3.5h-1.752a.876.876 0 110-1.752h1.752a.876.876 0 110 1.752zm0-3.5h-1.752a.876.876 0 110-1.752h1.752a.876.876 0 010 1.752zm5.839 10.5h-1.752a.876.876 0 010-1.752h1.752a.876.876 0 010 1.752zm0-3.5h-1.752a.876.876 0 110-1.752h1.752a.876.876 0 110 1.752zm0-3.5h-1.752a.876.876 0 010-1.752h1.752a.876.876 0 010 1.752zm0-3.5h-1.752a.876.876 0 010-1.752h1.752a.876.876 0 010 1.752zm14.156 5.932l-8.316-1.741v17.109h7.883a2.046 2.046 0 002.044-2.044v-11.327a2.034 2.034 0 00-1.611-1.997zm-2.768 11.864h-1.748a.876.876 0 110-1.752h1.752a.876.876 0 010 1.752zm0-3.5h-1.748a.876.876 0 110-1.752h1.752a.876.876 0 010 1.752zm0-3.5h-1.748a.876.876 0 010-1.752h1.752a.876.876 0 010 1.752z" fill="#ff5f00"></path>
    </g>
  </symbol>
  <symbol xmlns="http://www.w3.org/2000/svg" viewBox="0 0 72 71" id="Group 406">
    <g transform="translate(-854 -3050)">
      <rect width="72" height="71" rx="12" transform="translate(854 3050)" fill="#ffefe5"></rect>
      <g fill="#ff5f00">
        <path d="M901.73 3076.333a1.033 1.033 0 00-.57-.5l-7.588-2.766a3.077 3.077 0 00-5.5-2l-7.578-2.76a1.034 1.034 0 00-1.265.5l-4.8 9.535h2.3l3.426-6.8 3.468 6.8h2.3l-3.679-7.22 5.181 1.886a3.073 3.073 0 002.053 2.853v19.916a1.025 1.025 0 002.051 0v-19.915a3.056 3.056 0 001.3-.887l6.558 2.387-4.323 8.575h2.3l3.451-6.86 3.458 6.864h2.3zm-10.506-2.647a1.028 1.028 0 110-1.454 1.029 1.029 0 010 1.454z"></path>
        <path d="M891.705 3094.819h-2.414a5.289 5.289 0 00-5.283 5.283 1.025 1.025 0 001.025 1.025h10.925a1.025 1.025 0 001.025-1.025 5.289 5.289 0 00-5.278-5.283zm15.265-6.831h-12.307a1.025 1.025 0 00-1.025 1.025 7.179 7.179 0 1014.357 0 1.025 1.025 0 00-1.025-1.025zm-20.635-7.594h-12.31a1.025 1.025 0 00-1.025 1.025 7.18 7.18 0 1014.36 0 1.025 1.025 0 00-1.025-1.025z"></path>
      </g>
    </g>
  </symbol>
  <symbol xmlns="http://www.w3.org/2000/svg" viewBox="0 0 72 71" id="Group 407">
    <g transform="translate(-576 -3050)">
      <rect width="72" height="71" rx="12" transform="translate(576 3050)" fill="#ffefe5"></rect>
      <path d="M601.801 3075.801v19.465h21.4v-19.465zm14.306 14.889a5.156 5.156 0 115.157-5.156 5.156 5.156 0 01-5.157 5.156z" fill="#ff5f00"></path>
      <path d="M616.108 3082.311a3.222 3.222 0 103.222 3.222 3.222 3.222 0 00-3.222-3.222zm0 4.511a1.289 1.289 0 111.289-1.289 1.289 1.289 0 01-1.289 1.289z" fill="#ff5f00"></path>
      <path d="M624.166 3070h-23.332a4.839 4.839 0 00-4.834 4.834v21.4a4.84 4.84 0 004.834 4.834v1.934h3.868v-1.933h15.6v1.933h3.868v-1.933a4.84 4.84 0 004.833-4.834v-21.4a4.839 4.839 0 00-4.837-4.835zm.971 27.2h-25.27v-23.333h25.266z" fill="#ff5f00"></path>
    </g>
  </symbol>
  <symbol xmlns="http://www.w3.org/2000/svg" viewBox="0 0 72 71" id="Group 408">
    <g transform="translate(-437 -2897)">
      <rect width="72" height="71" rx="12" transform="translate(437 2897)" fill="#ffefe5"></rect>
      <path d="M487.081 2932.3a.965.965 0 010-.853l1.228-2.513a2.859 2.859 0 00-1.234-3.8l-2.47-1.308a.965.965 0 01-.5-.69l-.483-2.755a2.859 2.859 0 00-3.23-2.347l-2.77.392a.965.965 0 01-.811-.264l-2.013-1.945a2.859 2.859 0 00-3.992 0l-2.01 1.945a.966.966 0 01-.811.264l-2.77-.392a2.859 2.859 0 00-3.23 2.347l-.484 2.755a.965.965 0 01-.5.69l-2.472 1.311a2.859 2.859 0 00-1.234 3.8l1.228 2.513a.965.965 0 010 .853l-1.228 2.513a2.859 2.859 0 001.234 3.8l2.471 1.311a.965.965 0 01.5.69l.483 2.755a2.858 2.858 0 002.819 2.376 2.938 2.938 0 00.411-.029l2.77-.392a.965.965 0 01.811.264l2.01 1.945a2.859 2.859 0 003.992 0l2.01-1.945a.966.966 0 01.811-.264l2.77.392a2.859 2.859 0 003.23-2.347l.483-2.755a.965.965 0 01.5-.69l2.475-1.32a2.859 2.859 0 001.234-3.8zm-18.078-8.975a3.483 3.483 0 11-3.483 3.482 3.487 3.487 0 013.483-3.482zm-1.8 15.489a.95.95 0 11-1.343-1.343l12.539-12.537a.95.95 0 111.342 1.343zm9.4 1.608a3.483 3.483 0 113.483-3.483 3.487 3.487 0 01-3.484 3.483z" fill="#ff5f00"></path>
      <path d="M476.601 2935.357a1.583 1.583 0 101.583 1.583 1.585 1.585 0 00-1.583-1.583zm-7.598-10.132a1.583 1.583 0 101.583 1.583 1.585 1.585 0 00-1.583-1.583z" fill="#ff5f00"></path>
    </g>
  </symbol>
  <symbol xmlns="http://www.w3.org/2000/svg" viewBox="0 0 72 71" id="Group 400">
    <g transform="translate(-1531 -2897)">
      <rect width="72" height="71" rx="12" transform="translate(1531 2897)" fill="#ffefe5"></rect>
      <path d="M1556.232 2925.22h-2.227v-2.227a1.541 1.541 0 10-3.082 0v2.227h-2.227a1.541 1.541 0 00-1.541 1.541v7.536a1.541 1.541 0 001.541 1.541h2.227v2.353a1.541 1.541 0 003.082 0v-2.353h2.227a1.541 1.541 0 001.541-1.541v-7.536a1.541 1.541 0 00-1.541-1.541zm13.991 5.463h-2.227v-2.227a1.541 1.541 0 10-3.082 0v2.227h-2.227a1.541 1.541 0 00-1.541 1.541v7.536a1.541 1.541 0 001.541 1.541h2.227v9.889a1.541 1.541 0 103.082 0v-9.889h2.227a1.541 1.541 0 001.541-1.541v-7.536a1.541 1.541 0 00-1.541-1.541zm13.991-11.241h-2.227v-2.227a1.541 1.541 0 00-3.082 0v2.227h-2.227a1.541 1.541 0 00-1.541 1.541v11.241a1.541 1.541 0 001.541 1.541h2.227v6.12a1.541 1.541 0 003.082 0v-6.119h2.227a1.541 1.541 0 001.541-1.541v-11.242a1.541 1.541 0 00-1.541-1.541z" fill="#ff5f00"></path>
    </g>
  </symbol>
  <symbol xmlns="http://www.w3.org/2000/svg" viewBox="0 0 72 71" id="Group 401">
    <g transform="translate(-983 -2898)">
      <rect width="72" height="71" rx="12" transform="translate(983 2898)" fill="#ffefe5"></rect>
      <g transform="translate(1002 2916.677)" fill="#ff5f00">
        <ellipse cx="4.5" cy="4" rx="4.5" ry="4" transform="translate(5 18.323)"></ellipse>
        <path d="M2.102 33.146a1 1 0 001 1h12.006a1 1 0 001-1 7.003 7.003 0 00-14.006 0z"></path>
        <circle cx="4" cy="4" r="4" transform="translate(21 18.323)"></circle>
        <path d="M18.076 33.146a1 1 0 001 1h12.006a1 1 0 001-1 7.003 7.003 0 00-14.006 0zM31.149 0H3a3 3 0 00-3 3v8a3 3 0 003 3h3.589L8.3 15.715a1 1 0 001.415 0l1.708-1.708H22.73l1.708 1.708a1 1 0 001.415 0l1.708-1.708h3.588a3 3 0 003-3V3a3 3 0 00-3-3zM13.006 10H5a1 1 0 110-2h8a1 1 0 110 2zm0-4H5a1 1 0 010-2h8a1 1 0 110 2zm16.141 4h-8a1 1 0 010-2h8a1 1 0 110 2zm0-4h-8a1 1 0 010-2h8a1 1 0 110 2z"></path>
      </g>
    </g>
  </symbol>
  <symbol xmlns="http://www.w3.org/2000/svg" viewBox="0 0 72 71" id="Group 402">
    <g transform="translate(-1258 -2897)">
      <rect width="72" height="71" rx="12" transform="translate(1258 2897)" fill="#ffefe5"></rect>
      <g fill="#ff5f00">
        <path d="M1277 2927.555h32.928v2.344H1277zm32.928-3.043a3.515 3.515 0 00-3.511-3.511h-25.906a3.515 3.515 0 00-3.511 3.511v.7h32.928zm-.078 10.947h.078v-3.223H1277v9.6a3.515 3.515 0 003.511 3.511h19.909a9.55 9.55 0 01-.011-.446 9.452 9.452 0 019.442-9.442zm-27-.881h2.928a1.17 1.17 0 010 2.341h-2.926a1.17 1.17 0 010-2.341zm6.632 6.086h-6.63a1.17 1.17 0 010-2.341h6.632a1.17 1.17 0 010 2.341z"></path>
        <path d="M1309.85 2937.8a7.1 7.1 0 107.1 7.1 7.109 7.109 0 00-7.1-7.1zm3.4 6.5l-2.809 2.809a1.17 1.17 0 01-1.655 0l-1.444-1.444a1.17 1.17 0 111.655-1.655l.616.616 1.981-1.981a1.17 1.17 0 111.655 1.655z"></path>
      </g>
    </g>
  </symbol>
  <symbol xmlns="http://www.w3.org/2000/svg" viewBox="0 0 115 117" id="Group 377">
    <g transform="translate(-903 -3510)">
      <rect width="115" height="117" rx="16" transform="translate(903 3510)" fill="#ffe8db"></rect>
      <rect width="95" height="95" rx="12" transform="translate(913 3521)" fill="#ff5f00"></rect>
      <g transform="translate(893.958 3517)" fill="#fff">
        <path d="M67.538 62.643a8.357 8.357 0 108.357-8.357 8.357 8.357 0 00-8.357 8.357zm3.482-.7h4.179v-4.179a.7.7 0 011.393 0v4.179h4.179a.7.7 0 010 1.393h-4.179v4.179a.7.7 0 11-1.393 0v-4.179H71.02a.7.7 0 110-1.393z"></path>
        <path d="M67.591 67.745a9.745 9.745 0 016.2-14.623 13.544 13.544 0 00-21.436-1.025 18.985 18.985 0 00-4.312 12.213c1.6.806 8.163 3.9 14.621 3.9a27.17 27.17 0 004.927-.469z"></path>
        <circle cx="6.964" cy="6.964" r="6.964" transform="translate(55.699 32)"></circle>
      </g>
    </g>
  </symbol>
  <symbol xmlns="http://www.w3.org/2000/svg" viewBox="0 0 115 117" id="Group 378">
    <g transform="translate(-676 -3510)">
      <rect width="115" height="117" rx="16" transform="translate(676 3510)" fill="#ffe8db"></rect>
      <rect width="95" height="95" rx="12" transform="translate(686 3521)" fill="#ff5f00"></rect>
      <path d="M739.436 3557.1h-.814v-2.39a4.71 4.71 0 10-9.419 0v2.39h-.814a1.553 1.553 0 00-1.553 1.555v5.523a7.077 7.077 0 1014.153 0v-5.523a1.553 1.553 0 00-1.553-1.555zm-7.126-2.39a1.603 1.603 0 113.206 0v2.39h-3.206zm13.438 18.961h-23.671a7.077 7.077 0 000 14.154h23.671a7.077 7.077 0 000-14.154zm-21.3 8.655a1.578 1.578 0 111.578-1.578 1.578 1.578 0 01-1.582 1.578zm6.312 0a1.578 1.578 0 111.578-1.578 1.578 1.578 0 01-1.582 1.578zm6.312 0a1.578 1.578 0 111.578-1.578 1.578 1.578 0 01-1.582 1.578zm6.312 0a1.578 1.578 0 111.578-1.578 1.578 1.578 0 01-1.581 1.578z" fill="#fff"></path>
    </g>
  </symbol>
  <symbol xmlns="http://www.w3.org/2000/svg" viewBox="0 0 115 117" id="Group 376">
    <g transform="translate(-1117 -3510)">
      <rect width="115" height="117" rx="16" transform="translate(1117 3510)" fill="#ffe8db"></rect>
      <rect width="95" height="95" rx="12" transform="translate(1127 3521)" fill="#ff5f00"></rect>
      <path d="M1173.598 3546a17.8 17.8 0 00-17.6 17.985v9.435a17.794 17.794 0 0017.6 17.984 17.794 17.794 0 0017.595-17.984v-9.435a17.8 17.8 0 00-17.595-17.985zm-12.829 30.6a12.182 12.182 0 0011.562-12.146 1.013 1.013 0 011.014-1.014 1.014 1.014 0 011.014 1.014 15.054 15.054 0 01-.679 4.362 13.667 13.667 0 01-3.477 5.677 14.093 14.093 0 01-8.618 4.085 13.1 13.1 0 01-.817-1.98zm1.977 3.863a16.243 16.243 0 0013.631-16.013 3.041 3.041 0 00-6.082 0 10.13 10.13 0 01-9.991 10.135 13.1 13.1 0 01-.146-1.958v-.067a8.12 8.12 0 008.11-8.11 5.069 5.069 0 1110.137 0 18.252 18.252 0 01-14.092 17.776 13.3 13.3 0 01-1.568-1.765zm10.59 5.344a13.392 13.392 0 01-1.37-.07 24.323 24.323 0 002.894-1.891l.183.186a16.4 16.4 0 001.552 1.367 13.244 13.244 0 01-3.264.405zm5.589-1.245a14.386 14.386 0 01-3.82-3.552 22.242 22.242 0 01-6.278 4 13.194 13.194 0 01-2.511-1.235 20.19 20.19 0 008.179-4.988l.966-.972.674 1.1a12.312 12.312 0 004.811 4.464 13.329 13.329 0 01-2.021 1.18zm3.728-2.62a10.176 10.176 0 01-5.728-6.077 20.217 20.217 0 001.51-2.61 8.132 8.132 0 005.623 7.032 13.53 13.53 0 01-1.406 1.655zm2.487-3.455a6.093 6.093 0 01-4.707-5.926v-8.11a7.1 7.1 0 10-14.193 0 6.092 6.092 0 01-6.082 6.082v-2.028a4.062 4.062 0 004.054-4.054 9.124 9.124 0 1118.249 0v8.11a4.062 4.062 0 003.453 4.01 13.148 13.148 0 01-.776 1.915zm1.375-5.853a13.464 13.464 0 01-.146 1.955 2.03 2.03 0 01-1.883-2.022v-8.11a11.152 11.152 0 10-22.3 0 2.031 2.031 0 01-2.028 2.028v-2.028a13.179 13.179 0 1126.358 0z" fill="#fff"></path>
    </g>
  </symbol>
  <symbol xmlns="http://www.w3.org/2000/svg" viewBox="0 0 72 71" id="Group 380">
    <g transform="translate(-1111 -1492)">
      <rect width="72" height="71" rx="12" transform="translate(1111 1492)" fill="#ffefe5"></rect>
      <g fill="#ff5f00">
        <path d="M1146.54 1514.341a1.159 1.159 0 01-1.159-1.159v-3.023a1.159 1.159 0 012.317 0v3.023a1.159 1.159 0 01-1.158 1.159zm10.152 4.205a1.159 1.159 0 01-.819-1.979l2.139-2.138a1.159 1.159 0 011.639 1.639l-2.139 2.138a1.162 1.162 0 01-.82.34zm7.228 10.152h-3.025a1.159 1.159 0 010-2.317h3.023a1.159 1.159 0 010 2.317zm-5.09 12.29a1.15 1.15 0 01-.819-.34l-2.138-2.137a1.16 1.16 0 011.639-1.64l2.138 2.14a1.159 1.159 0 01-.82 1.979zm-24.58 0a1.159 1.159 0 01-.819-1.977l2.138-2.14a1.16 1.16 0 011.639 1.64l-2.138 2.137a1.156 1.156 0 01-.82.34zm-2.068-12.29h-3.023a1.159 1.159 0 010-2.317h3.023a1.159 1.159 0 010 2.317zm4.206-10.152a1.15 1.15 0 01-.819-.34l-2.138-2.138a1.159 1.159 0 011.639-1.639l2.138 2.138a1.159 1.159 0 01-.82 1.979zm14.786 22.898v1.931a2.717 2.717 0 01-2.7 2.7h-3.87c-1.3 0-2.7-.989-2.7-3.152v-1.479zm2.178-22.31a10.816 10.816 0 10-13.317 17.041 4.665 4.665 0 011.761 2.95v.015a.263.263 0 01.108-.015h9.27a.139.139 0 01.077.015v-.015a5.153 5.153 0 011.978-3.09 10.821 10.821 0 00.124-16.9zm-1.02 9.177a1.167 1.167 0 01-1.159-1.159 4.246 4.246 0 00-4.249-4.248 1.159 1.159 0 110-2.317 6.58 6.58 0 016.566 6.566 1.167 1.167 0 01-1.157 1.158z"></path>
        <path d="M1141.796 1539.126h.108a.263.263 0 00-.108.015zm9.455 0v.015a.139.139 0 00-.077-.015z"></path>
      </g>
    </g>
  </symbol>
  <symbol xmlns="http://www.w3.org/2000/svg" viewBox="0 0 72 71" id="Group 381">
    <g transform="translate(-849 -1492)">
      <rect width="72" height="71" rx="12" transform="translate(849 1492)" fill="#ffefe5"></rect>
      <g fill="#ff5f00">
        <path d="M890.126 1515.51a11.663 11.663 0 00-22.126 5.111 11.5 11.5 0 001.112 4.967l-1.092 5.462a1 1 0 001.17 1.172l5.53-1.093a11.458 11.458 0 002.306.807 13.628 13.628 0 0113.1-16.426z"></path>
        <path d="M900.888 1534.087a11.586 11.586 0 00.5-1.229h-.036a11.634 11.634 0 00-10.463-15.344 11.62 11.62 0 10-.558 23.228 11.494 11.494 0 004.952-1.112c6.057 1.2 5.584 1.112 5.723 1.112a1 1 0 00.977-1.191z"></path>
      </g>
    </g>
  </symbol>
  <symbol xmlns="http://www.w3.org/2000/svg" viewBox="0 0 72 71" id="Group 384">
    <g transform="translate(-571 -1492)">
      <rect width="72" height="71" rx="12" transform="translate(571 1492)" fill="#ffefe5"></rect>
      <path d="M607.381 1513.844l-1.962 3.976-4.388.638 3.175 3.1-.75 4.371 3.925-2.063 3.925 2.063-.75-4.371 3.175-3.1-4.388-.638z" fill="#ff5f00"></path>
      <path d="M607.379 1507a13.379 13.379 0 1013.379 13.379A13.379 13.379 0 00607.379 1507zm8.144 13.085l-2.373 2.315.56 3.265a2.34 2.34 0 01-3.4 2.47l-2.932-1.542-2.932 1.542a2.343 2.343 0 01-3.4-2.47l.56-3.265-2.371-2.315a2.343 2.343 0 011.3-4l3.28-.473 1.466-2.971a2.343 2.343 0 014.2 0l1.466 2.971 3.278.476a2.343 2.343 0 011.3 4zm-1.995 14.846a15.656 15.656 0 01-5.025 1.2l2.967 12.1 3.313-3.345 4.189 1.506-3.111-12.691a15.768 15.768 0 01-2.333 1.23zm-12.298 0a15.774 15.774 0 01-2.33-1.223l-3.111 12.685 4.189-1.506 3.313 3.345 2.967-12.1a15.659 15.659 0 01-5.028-1.201z" fill="#ff5f00"></path>
    </g>
  </symbol>
  <symbol xmlns="http://www.w3.org/2000/svg" viewBox="0 0 72 71" id="Group 379">
    <g transform="translate(-1394 -1492)">
      <rect width="72" height="71" rx="12" transform="translate(1394 1492)" fill="#ffefe5"></rect>
      <g transform="translate(1411.491 1504.4)" fill="#ff5f00">
        <path d="M6.636 18.184a1.969 1.969 0 01.644-.72c.114-.076.19-.114.3-.19l-.83 3.752a2.741 2.741 0 002.122 3.26L6.94 33.117l3.525-.985 1.554-7.315 1.9.3.872 3.676.19-.227a3.175 3.175 0 011.44-.985l1.327-.417-.72-3.108a2.706 2.706 0 00-2.236-2.085l-2.047-.341.755-3.563c.076.114.152.19.227.3a3.321 3.321 0 002.312 1.4l2.843.379a1.7 1.7 0 00.872-.152 1.445 1.445 0 00.72-1.061 1.407 1.407 0 00-1.213-1.592l-2.846-.374a.645.645 0 01-.379-.227c-2.426-3.446-2.918-3.635-3.636-3.673l-2.312-.114c-.455-.038-.872-.038-4.321 2.047a4.39 4.39 0 00-1.706 1.819l-1.4 2.956a1.437 1.437 0 00.606 1.9 1.426 1.426 0 001.9-.606z"></path>
        <circle cx="3.108" cy="3.108" r="3.108" transform="rotate(-84.43 10.823 1.41)"></circle>
        <path d="M38.432 37.475l-2.881-8.831a1.346 1.346 0 00-.152-.341l-5.117-7.732a.978.978 0 00-.341-.341V6.434a.834.834 0 10-1.668 0v.455h-5.112a.777.777 0 00-.8.8v4.169a.777.777 0 00.8.8h5.155v7.618a.885.885 0 00-.265.265l-4.662 6.405a1.376 1.376 0 01-.72.493l-5.761 1.781a1.363 1.363 0 00-.682.455l-2.388 2.994a1.363 1.363 0 01-.682.455L6.902 34.86a1.5 1.5 0 00-.872.72l-.834 1.743a1.367 1.367 0 001.213 1.971h30.738a1.4 1.4 0 001.285-1.819z"></path>
      </g>
    </g>
  </symbol>
  <symbol xmlns="http://www.w3.org/2000/svg" viewBox="0 0 72 71" id="Group 386">
    <g transform="translate(-994 -2123)">
      <rect width="72" height="71" rx="12" transform="translate(994 2123)" fill="#ffefe5"></rect>
      <path d="M1031.244 2140.184v-1.119a1.065 1.065 0 00-2.13 0v1.119a18.177 18.177 0 00-17.114 18.055 1.065 1.065 0 102.13 0c0-.265 1.134-1.065 3.2-1.065s3.267.8 3.267 1.065a1.065 1.065 0 102.13 0c0-.265 1.134-1.065 3.2-1.065s3.2.8 3.2 1.065v11.86a4.261 4.261 0 008.521 0 1.065 1.065 0 00-2.13 0 2.13 2.13 0 11-4.261 0v-11.86c0-.265 1.134-1.065 3.2-1.065 1.864 0 2.92.637 3.115.958v.018a1.066 1.066 0 00.979 1.145h.084c.009 0 .017 0 .027-.005s.036.011.056.011a1.065 1.065 0 001.065-1.065c0-.265 1.134-1.065 3.2-1.065s3.267.8 3.267 1.065a1.065 1.065 0 102.13 0 18.177 18.177 0 00-17.136-18.052z" fill="#ff5f00"></path>
    </g>
  </symbol>
  <symbol xmlns="http://www.w3.org/2000/svg" viewBox="0 0 72 71" id="Group 387">
    <g transform="translate(-707 -2123)">
      <rect width="72" height="71" rx="12" transform="translate(707 2123)" fill="#ffefe5"></rect>
      <path d="M759.54 2139.818h-5.453V2138h-21.815v1.818h-5.454a1.718 1.718 0 00-1.818 1.818V2146a8.246 8.246 0 007.272 8.181v.182a10.934 10.934 0 008.544 10.726l-1.273 3.811h-4.181a1.746 1.746 0 00-1.636 1.273l-1.454 4.185h21.815l-1.454-4.181A1.746 1.746 0 00751 2168.9h-4.185l-1.273-3.818a10.934 10.934 0 008.544-10.726v-.182a8.246 8.246 0 007.272-8.174v-4.364a1.718 1.718 0 00-1.818-1.818zm-27.268 10.726a4.855 4.855 0 01-3.636-4.544v-2.546h3.636zm14.543 5.636l-3.636-2-3.636 2 .909-3.636-2.727-3.636h3.818l1.636-3.636 1.636 3.636h3.818l-2.727 3.636zm10.908-10.18a4.691 4.691 0 01-3.636 4.545v-7.091h3.636z" fill="#ff5f00"></path>
    </g>
  </symbol>
  <symbol xmlns="http://www.w3.org/2000/svg" viewBox="0 0 72 71" id="Group 385">
    <g transform="translate(-1275 -2123)">
      <rect width="72" height="71" rx="12" transform="translate(1275 2123)" fill="#ffefe5"></rect>
      <g fill="#ff5f00">
        <path d="M1333.1 2150.063l-21.652-7.639a1.347 1.347 0 00-.9 0l-21.648 7.639a1.348 1.348 0 000 2.541l21.652 7.7a1.347 1.347 0 00.9 0l21.652-7.7a1.348 1.348 0 000-2.541zm-2.339 17.989v-11.755l-2.7.958v10.8a2.706 2.706 0 000 4.694v6.623a1.35 1.35 0 002.7 0v-6.623a2.706 2.706 0 000-4.694z"></path>
        <path d="M1311 2163.075a4.033 4.033 0 01-1.354-.234l-12.172-4.327v5.93c0 1.451 1.514 2.678 4.5 3.647a31.77 31.77 0 0018.056 0c2.985-.969 4.5-2.2 4.5-3.647v-5.93l-12.172 4.327a4.034 4.034 0 01-1.358.234z"></path>
      </g>
    </g>
  </symbol>
  <symbol xmlns="http://www.w3.org/2000/svg" viewBox="0 0 72 71" id="Group 389">
    <g transform="translate(-797 -3980)">
      <rect width="72" height="71" rx="12" transform="translate(797 3980)" fill="#ffefe5"></rect>
      <g fill="#ff5f00">
        <path d="M855.423 4024.577h-1.525v-2.8a1.271 1.271 0 00-2.542 0v2.8h-1.696v12.118h5.763a1.271 1.271 0 001.271-1.271v-9.576a1.271 1.271 0 00-1.271-1.271zm-35.084 0h-1.695v-2.8a1.271 1.271 0 00-2.542 0v2.8h-1.526a1.271 1.271 0 00-1.271 1.271v9.576a1.271 1.271 0 001.271 1.271h5.763zm2.542 12.118h6.1v-6.78a1.271 1.271 0 011.271-1.271h9.491a1.271 1.271 0 011.271 1.271v6.779h6.1v-42.117a1.271 1.271 0 00-1.268-1.271h-21.694a1.271 1.271 0 00-1.271 1.271zm8.729-13.644h-1.356a1.271 1.271 0 010-2.542h1.356a1.271 1.271 0 110 2.542zm0-5.424h-1.356a1.271 1.271 0 010-2.542h1.356a1.271 1.271 0 110 2.542zm0-5.424h-1.356a1.271 1.271 0 010-2.542h1.356a1.271 1.271 0 110 2.542zm0-5.424h-1.356a1.271 1.271 0 010-2.542h1.356a1.271 1.271 0 110 2.542zm8.135 16.271h-1.356a1.271 1.271 0 010-2.542h1.356a1.271 1.271 0 010 2.542zm0-5.424h-1.356a1.271 1.271 0 010-2.542h1.356a1.271 1.271 0 010 2.542zm0-5.424h-1.356a1.271 1.271 0 010-2.542h1.356a1.271 1.271 0 010 2.542zm0-5.424h-1.356a1.271 1.271 0 010-2.542h1.356a1.271 1.271 0 010 2.542zm-10.169-7.964h10.847a1.271 1.271 0 010 2.542h-10.847a1.271 1.271 0 010-2.542z"></path>
        <path d="M831.525 4036.694h6.949v-5.508h-6.949z"></path>
      </g>
    </g>
  </symbol>
  <symbol xmlns="http://www.w3.org/2000/svg" viewBox="0 0 72 71" id="Group 388">
    <g transform="translate(-1055 -3985)">
      <rect width="72" height="71" rx="12" transform="translate(1055 3985)" fill="#ffefe5"></rect>
      <path d="M1081.9 4023.168v-6.628a5.01 5.01 0 01.2-1.39h-4.471a2.632 2.632 0 00-2.629 2.63v5.274a2.641 2.641 0 001.343 2.29v7.665a1.015 1.015 0 001.014 1.015h6.232v-7.086a5.092 5.092 0 01-1.689-3.77zm-1.422-9.217a3.974 3.974 0 10-3.973-3.974 3.979 3.979 0 003.973 3.974zm13.66-.454h-7.166a3.047 3.047 0 00-3.043 3.043v6.628a3.056 3.056 0 001.687 2.722v9.789a1.015 1.015 0 001.015 1.015h7.848a1.015 1.015 0 001.015-1.015v-9.789a3.057 3.057 0 001.687-2.722v-6.628a3.048 3.048 0 00-3.043-3.043zm-3.583-2.028a4.734 4.734 0 10-4.734-4.734 4.739 4.739 0 004.734 4.734zm14.923 4.453a2.621 2.621 0 00-1.858-.771h-4.605a5.02 5.02 0 01.2 1.39v6.628a5.092 5.092 0 01-1.687 3.768v7.079a1.031 1.031 0 00.123.007h6.245a1.015 1.015 0 001.015-1.015v-7.665a2.642 2.642 0 001.343-2.29v-5.272a2.621 2.621 0 00-.771-1.858zm-4.71-1.971a3.974 3.974 0 10-3.974-3.974 3.979 3.979 0 003.974 3.974zm0 0" fill="#ff5f00"></path>
    </g>
  </symbol>
  <symbol xmlns="http://www.w3.org/2000/svg" viewBox="0 0 72 71" id="Group 391">
    <g transform="translate(-548 -2562)">
      <rect width="72" height="71" rx="12" transform="translate(548 2562)" fill="#ffefe5"></rect>
      <g fill="#ff5f00">
        <path d="M576.53 2601.887a21.621 21.621 0 002.811-.18v-9.78a21.633 21.633 0 00-2.811-.18c-5.57 0-10.086 2.048-10.086 4.574v.992c0 2.525 4.516 4.574 10.086 4.574zm0 5.107a21.651 21.651 0 002.811-.18v-2.867a21.63 21.63 0 01-2.811.181c-4.862 0-8.92-1.56-9.873-3.637a2.231 2.231 0 00-.212.937v.992c-.001 2.526 4.515 4.574 10.085 4.574zm2.815 2.282v-.223a21.633 21.633 0 01-2.811.181c-4.862 0-8.92-1.56-9.873-3.637a2.23 2.23 0 00-.212.937v.992c0 2.526 4.515 4.574 10.085 4.574a21.422 21.422 0 003.187-.233 3.608 3.608 0 01-.376-1.6zM591.071 2584c-5.57 0-10.085 2.048-10.085 4.574v.992c0 2.526 4.515 4.574 10.085 4.574s10.085-2.048 10.085-4.574v-.992c0-2.526-4.516-4.574-10.085-4.574z"></path>
        <path d="M591.071 2596.381c-4.862 0-8.92-1.56-9.873-3.637a2.23 2.23 0 00-.212.937v.992c0 2.526 4.515 4.574 10.085 4.574s10.085-2.048 10.085-4.574v-.992a2.23 2.23 0 00-.212-.937c-.954 2.077-5.011 3.637-9.873 3.637z"></path>
        <path d="M591.071 2601.487c-4.862 0-8.92-1.56-9.873-3.637a2.23 2.23 0 00-.212.937v.992c0 2.526 4.515 4.574 10.085 4.574s10.085-2.048 10.085-4.574v-.992a2.23 2.23 0 00-.212-.937c-.954 2.072-5.011 3.637-9.873 3.637z"></path>
        <path d="M591.071 2606.87c-4.862 0-8.92-1.56-9.873-3.637a2.23 2.23 0 00-.212.937v.992c0 2.526 4.515 4.574 10.085 4.574s10.085-2.048 10.085-4.574v-.992a2.23 2.23 0 00-.212-.937c-.954 2.077-5.011 3.637-9.873 3.637z"></path>
        <path d="M591.071 2611.976c-4.862 0-8.92-1.56-9.873-3.637a2.231 2.231 0 00-.212.937v.992c0 2.526 4.515 4.574 10.085 4.574s10.085-2.048 10.085-4.574v-.992a2.23 2.23 0 00-.212-.937c-.954 2.077-5.011 3.637-9.873 3.637z"></path>
      </g>
    </g>
  </symbol>
  <symbol xmlns="http://www.w3.org/2000/svg" viewBox="0 0 72 71" id="Group 392">
    <g transform="translate(-548 -2708)">
      <rect width="72" height="71" rx="12" transform="translate(548 2708)" fill="#ffefe5"></rect>
      <path d="M573.937 2749.388a2.611 2.611 0 00-2.611-2.612h-2.715a2.611 2.611 0 00-2.611 2.612v10.122a2.611 2.611 0 002.611 2.611h2.714a2.611 2.611 0 002.611-2.611zm11.509-6.946a2.611 2.611 0 00-2.611-2.611h-2.714a2.611 2.611 0 00-2.612 2.611v17.067a2.611 2.611 0 002.611 2.611h2.714a2.611 2.611 0 002.611-2.611zm14.555-10.024l-5.091-6.531a2.1 2.1 0 00-3.43 0l-5.091 6.531a1.581 1.581 0 00-.294 1.687 1.847 1.847 0 001.749.891h1.372v24.587a2.553 2.553 0 002.613 2.537h2.729a2.535 2.535 0 002.592-2.537v-24.606l1.381.019a1.858 1.858 0 001.756-.891 1.579 1.579 0 00-.286-1.687z" fill="#ff5f00"></path>
    </g>
  </symbol>
  <symbol xmlns="http://www.w3.org/2000/svg" viewBox="0 0 72 71" id="Group 393">
    <g transform="translate(-809 -2708)">
      <rect width="72" height="71" rx="12" transform="translate(809 2708)" fill="#ffefe5"></rect>
      <path d="M851.589 2739.304c.487.237.958.448 1.413.692a7.093 7.093 0 013.909 6c.277 3.325-.46 6.3-3.306 8.395a9.174 9.174 0 01-5.054 1.7c-2.978.162-3.868-.033-7.222-1.388v7.641h-6.062v-1.038c0-9.154.046-18.308-.021-27.461a9.282 9.282 0 017.726-9.319 14.24 14.24 0 017.3.459 7.556 7.556 0 015.245 6.516 7.2 7.2 0 01-3.313 7.36c-.114.078-.236.145-.35.224-.083.061-.159.131-.265.219zm-10.25 10.623a8.983 8.983 0 005.116 1.144 4.219 4.219 0 004.279-4.505c-.049-2.968-1.641-4.664-4.4-4.68h-2.211v-4.482c.785-.039 1.512-.044 2.231-.119a3 3 0 002.653-2.034 5.886 5.886 0 00.086-3.778 3.025 3.025 0 00-1.844-1.981 4.119 4.119 0 00-5.9 3.845c-.023 2.19-.007 4.38-.007 6.57q-.003 5.002-.003 10.02z" fill="#ff5f00"></path>
    </g>
  </symbol>
  <symbol xmlns="http://www.w3.org/2000/svg" viewBox="0 0 72 71" id="Group 390">
    <g transform="translate(-808 -2562)">
      <rect width="72" height="71" rx="12" transform="translate(808 2562)" fill="#ffefe5"></rect>
      <path d="M858.52 2610.656a8.02 8.02 0 01-6.172-3.144 10.352 10.352 0 00-6.857-3.714v-11.6h2.307a4.62 4.62 0 004.614-4.61v-2.31h-2.307a4.62 4.62 0 00-4.615 4.61v-9.379a4.619 4.619 0 014.614-4.614v-2.307a6.929 6.929 0 00-6.921 6.921v2.461a4.62 4.62 0 00-4.614-4.614h-2.307v2.307a4.62 4.62 0 004.614 4.614h2.307v11.536a4.62 4.62 0 00-4.614-4.614h-2.307v2.307a4.62 4.62 0 004.614 4.614h2.307v4.678a10.352 10.352 0 00-6.857 3.714 8.02 8.02 0 01-6.172 3.144h-3.121v2.307h34.607v-2.307z" fill="#ff5f00"></path>
    </g>
  </symbol>
  <symbol xmlns="http://www.w3.org/2000/svg" viewBox="0 0 72 71" id="Group 395">
    <g transform="translate(-925 -2368)">
      <rect width="72" height="71" rx="12" transform="translate(925 2368)" fill="#ffefe5"></rect>
      <g fill="#ff5f00">
        <path d="M978.056 2411.546h-1.27v-2.327a1.058 1.058 0 00-2.116 0v2.327h-1.414v10.085h4.8a1.058 1.058 0 001.058-1.058v-7.97a1.058 1.058 0 00-1.058-1.057zm-29.202 0h-1.411v-2.327a1.058 1.058 0 00-2.116 0v2.327h-1.269a1.058 1.058 0 00-1.058 1.058v7.97a1.058 1.058 0 001.058 1.058h4.8zm2.116 10.086h5.078v-5.642a1.058 1.058 0 011.058-1.058h7.9a1.058 1.058 0 011.058 1.058v5.642h5.078v-35.052a1.058 1.058 0 00-1.059-1.058h-18.055a1.058 1.058 0 00-1.058 1.058zm7.264-11.355h-1.128a1.058 1.058 0 110-2.116h1.128a1.058 1.058 0 110 2.116zm0-4.514h-1.128a1.058 1.058 0 110-2.116h1.128a1.058 1.058 0 110 2.116zm0-4.514h-1.128a1.058 1.058 0 110-2.116h1.128a1.058 1.058 0 110 2.116zm0-4.514h-1.128a1.058 1.058 0 110-2.116h1.128a1.058 1.058 0 110 2.116zm6.771 13.541h-1.128a1.058 1.058 0 010-2.116h1.128a1.058 1.058 0 110 2.116zm0-4.514h-1.128a1.058 1.058 0 010-2.116h1.128a1.058 1.058 0 110 2.116zm0-4.514h-1.128a1.058 1.058 0 010-2.116h1.128a1.058 1.058 0 110 2.116zm0-4.514h-1.128a1.058 1.058 0 010-2.116h1.128a1.058 1.058 0 110 2.116zm-8.463-6.63h9.028a1.058 1.058 0 110 2.116h-9.027a1.058 1.058 0 110-2.116z"></path>
        <path d="M958.163 2421.631h5.783v-4.584h-5.783z"></path>
      </g>
    </g>
  </symbol>
  <symbol xmlns="http://www.w3.org/2000/svg" viewBox="0 0 72 71" id="Group 396">
    <g transform="translate(-705 -2368)">
      <rect width="72" height="71" rx="12" transform="translate(705 2368)" fill="#ffefe5"></rect>
      <path d="M740.808 2392.074l-1.879 3.807-4.2.61 3.04 2.963-.718 4.184 3.758-1.975 3.758 1.975-.718-4.184 3.04-2.963-4.2-.61z" fill="#ff5f00"></path>
      <path d="M740.808 2385.522a12.808 12.808 0 1012.807 12.808 12.808 12.808 0 00-12.807-12.808zm7.8 12.526l-2.271 2.214.536 3.126a2.24 2.24 0 01-3.258 2.364l-2.807-1.476-2.807 1.476a2.243 2.243 0 01-3.254-2.364l.536-3.126-2.268-2.214a2.243 2.243 0 011.24-3.826l3.138-.456 1.4-2.844a2.243 2.243 0 014.023 0l1.4 2.844 3.138.456a2.243 2.243 0 011.243 3.826zm-1.914 14.214a14.988 14.988 0 01-4.81 1.151l2.841 11.583 3.172-3.2 4.01 1.442-2.982-12.149a15.1 15.1 0 01-2.231 1.173zm-11.774 0a15.109 15.109 0 01-2.231-1.171l-2.978 12.148 4.01-1.442 3.172 3.2 2.84-11.586a14.992 14.992 0 01-4.813-1.149z" fill="#ff5f00"></path>
    </g>
  </symbol>
  <symbol xmlns="http://www.w3.org/2000/svg" viewBox="0 0 72 71" id="Group 397">
    <g transform="translate(-484 -2368)">
      <rect width="72" height="71" rx="12" transform="translate(484 2368)" fill="#ffefe5"></rect>
      <path d="M507.67 2393.024c-1.472-1.472-7.726-1.84-9.75-2.024a.676.676 0 00-.552.184 1.4 1.4 0 00-.368.736v16.556a.869.869 0 00.92.92h5.519a1.012 1.012 0 00.92-.552c0-.552 3.311-10.3 3.679-15.084a.735.735 0 00-.368-.736zm19.682 4.414c-1.84-.552-3.5-1.288-4.967-1.84-3.311-1.472-4.783-.736-7.726 2.208-1.288 1.288-2.207 3.127-2.024 3.863 0 .184 0 .184.368.368.92.368 2.207.552 3.5-1.472a.956.956 0 01.736-.368 3.409 3.409 0 001.288-.368 8.968 8.968 0 011.288-.552h.368c.184 0 .552.184.736.184.92.92 2.576 2.208 4.231 3.679a42.134 42.134 0 016.439 5.887h.184c-1.292-3.679-3.5-9.931-4.421-11.589zm12.878-4.598a32.26 32.26 0 00-11.405 1.84l-.552.552a1.106 1.106 0 00.184.736c1.1 1.84 4.783 11.957 5.335 14.533a1.222 1.222 0 00.92.736h5.519a.869.869 0 00.92-.92v-16.557a.869.869 0 00-.921-.92z" fill="#ff5f00"></path>
      <path d="M530.296 2410.868c-.736-1.656-3.863-4.047-6.622-6.255-1.472-1.288-2.943-2.392-4.047-3.311-.184.184-.552.184-.552.368a3.466 3.466 0 01-1.472.368c-1.472 1.84-3.311 2.575-5.335 1.84a2.175 2.175 0 01-1.656-1.656c-.368-1.84 1.288-4.415 2.575-5.7h-3.679a93.793 93.793 0 01-2.943 11.037 20.8 20.8 0 002.024 2.024c3.5 2.943 7.542 5.887 8.278 6.439a5.229 5.229 0 002.207.736h.558l-2.943-2.943a.911.911 0 011.288-1.288l3.679 3.679c.368.368.736.184 1.1.184.552-.184.736-.552.92-1.1l-4.231-4.231a.911.911 0 011.288-1.288l4.6 4.6a1.968 1.968 0 001.472 0c.184-.184.552-.368.736-.736l-5.151-5.151a.911.911 0 011.288-1.288l5.335 5.335a1.217 1.217 0 001.1-.184 1.249 1.249 0 00.183-1.479z" fill="#ff5f00"></path>
    </g>
  </symbol>
  <symbol xmlns="http://www.w3.org/2000/svg" viewBox="0 0 72 71" id="Group 394">
    <g transform="translate(-1146 -2368)">
      <rect width="72" height="71" rx="12" transform="translate(1146 2368)" fill="#ffefe5"></rect>
      <path d="M1196.654 2397.613a14.825 14.825 0 10-29.65 0 14.444 14.444 0 002.547 8.249v.051l12.259 18.438 12.344-18.489h-.025a14.649 14.649 0 002.525-8.249zm-14.84 8.249a8.251 8.251 0 118.249-8.249 8.26 8.26 0 01-8.253 8.249z" fill="#ff5f00"></path>
    </g>
  </symbol>
  <symbol xmlns="http://www.w3.org/2000/svg" viewBox="0 0 72 71" id="Group 502">
    <g transform="translate(-1531 -3115)">
      <rect width="72" height="71" rx="12" transform="translate(1531 3115)" fill="#ffefe5"></rect>
      <path d="M1586.459 3151.432a1.261 1.261 0 010-1.115l1.605-3.284a3.736 3.736 0 00-1.612-4.961l-3.229-1.714a1.261 1.261 0 01-.655-.9l-.631-3.6a3.736 3.736 0 00-4.22-3.066l-3.621.511a1.261 1.261 0 01-1.06-.345l-2.625-2.541a3.736 3.736 0 00-5.216 0l-2.628 2.541a1.262 1.262 0 01-1.06.345l-3.619-.512a3.736 3.736 0 00-4.22 3.067l-.631 3.6a1.261 1.261 0 01-.655.9l-3.229 1.713a3.736 3.736 0 00-1.612 4.961l1.605 3.283a1.261 1.261 0 010 1.115l-1.605 3.283a3.736 3.736 0 001.612 4.961l3.229 1.713a1.261 1.261 0 01.655.9l.631 3.6a3.734 3.734 0 003.683 3.1 3.838 3.838 0 00.537-.038l3.619-.512a1.261 1.261 0 011.06.345l2.629 2.549a3.736 3.736 0 005.216 0l2.627-2.541a1.262 1.262 0 011.06-.345l3.619.512a3.736 3.736 0 004.22-3.066l.631-3.6a1.261 1.261 0 01.655-.9l3.229-1.713a3.736 3.736 0 001.612-4.961zm-23.621-11.727a4.551 4.551 0 11-4.551 4.553 4.556 4.556 0 014.551-4.553zm-2.349 20.237a1.241 1.241 0 11-1.755-1.755l16.381-16.381a1.241 1.241 0 111.755 1.752zm12.277 2.1a4.551 4.551 0 114.551-4.551 4.556 4.556 0 01-4.551 4.553z" fill="#ff5f00"></path>
      <path d="M1572.766 3155.425a2.068 2.068 0 102.068 2.068 2.071 2.071 0 00-2.068-2.068zm-9.929-13.238a2.068 2.068 0 102.068 2.068 2.071 2.071 0 00-2.068-2.068z" fill="#ff5f00"></path>
    </g>
  </symbol>
  <symbol xmlns="http://www.w3.org/2000/svg" viewBox="0 0 72 71" id="Group 503">
    <g transform="translate(-1260 -3113)">
      <rect width="72" height="71" rx="12" transform="translate(1260 3113)" fill="#ffefe5"></rect>
      <path d="M1313.383 3134.715h-33.807a2.681 2.681 0 00-2.63 2.725v2.729h39.067v-2.729a2.681 2.681 0 00-2.63-2.725zm-36.437 7.785h39.067v3.893h-39.067zm0 6.228v12.067a2.681 2.681 0 002.63 2.725h33.807a2.681 2.681 0 002.63-2.725v-12.067zm33.056 9.342h-6.01a1.169 1.169 0 010-2.336h6.01a1.169 1.169 0 010 2.336z" fill="#ff5f00"></path>
    </g>
  </symbol>
  <symbol xmlns="http://www.w3.org/2000/svg" viewBox="0 0 72 71" id="Group 504">
    <g transform="translate(-983 -3113)">
      <rect width="72" height="71" rx="12" transform="translate(983 3113)" fill="#ffefe5"></rect>
      <path d="M1033.571 3130.345c-6.937-.125-14.849 3.633-19.857 9.463a18.475 18.475 0 00-12.877 5.682.788.788 0 00-.184.786.749.749 0 00.6.52l5.71.849-.7.818a.787.787 0 00.03 1.054l9.517 9.862a.723.723 0 001.017.029l.789-.73.817 5.914a.754.754 0 00.524.592.659.659 0 00.212.034.822.822 0 00.573-.247 19.785 19.785 0 005.436-13.295c5.631-5.2 9.288-13.4 9.126-20.576a.758.758 0 00-.733-.755zm-6.823 13.25a3.616 3.616 0 01-5.236 0 3.943 3.943 0 010-5.426 3.615 3.615 0 015.236 0 3.94 3.94 0 010 5.426zm-23.954 12.69c-1.584 1.642-3.76 9.06-4 9.9a.789.789 0 00.185.763.726.726 0 00.524.226.734.734 0 00.213-.032c.81-.252 7.968-2.506 9.553-4.148a4.871 4.871 0 000-6.707 4.471 4.471 0 00-6.473 0z" fill="#ff5f00"></path>
    </g>
  </symbol>
  <symbol xmlns="http://www.w3.org/2000/svg" viewBox="0 0 72 71" id="Group 505">
    <g transform="translate(-718 -3113)">
      <rect width="72" height="71" rx="12" transform="translate(718 3113)" fill="#ffefe5"></rect>
      <path d="M744.724 3150.688v-7.414a5.609 5.609 0 01.22-1.555h-5a2.944 2.944 0 00-2.942 2.942v5.9a2.954 2.954 0 001.5 2.562v8.575a1.135 1.135 0 001.135 1.135h6.971v-7.929a5.7 5.7 0 01-1.888-4.216zm-1.596-10.309a4.451 4.451 0 10-4.451-4.451 4.451 4.451 0 004.451 4.451zm11.273-2.778a5.3 5.3 0 10-5.3-5.3 5.3 5.3 0 005.3 5.3zm16.692 4.981a2.93 2.93 0 00-2.078-.863h-5.152a5.622 5.622 0 01.22 1.555v7.414a5.7 5.7 0 01-1.888 4.216v7.918a1.142 1.142 0 00.131.008h6.986a1.135 1.135 0 001.135-1.135v-8.575a2.955 2.955 0 001.5-2.562v-5.9a2.932 2.932 0 00-.863-2.078zm-5.27-2.203a4.451 4.451 0 10-4.451-4.451 4.451 4.451 0 004.451 4.451zm-7.412-.508h-8.016a3.4 3.4 0 00-3.4 3.4v7.414a3.419 3.419 0 001.888 3.045v10.951a1.135 1.135 0 001.135 1.135h8.78a1.135 1.135 0 001.135-1.135v-10.947a3.42 3.42 0 001.888-3.045v-7.414a3.4 3.4 0 00-3.41-3.404zm-.077 7.056l-1.47 1.061a.617.617 0 00-.227.693l.592 1.716a.626.626 0 01.031.222.65.65 0 01-1.022.471l-1.47-1.061a.627.627 0 00-.734 0l-1.47 1.061a.65.65 0 01-1.022-.471.633.633 0 01.032-.222l.592-1.716a.617.617 0 00-.227-.693l-1.47-1.061a.665.665 0 01.367-1.19h1.817a.568.568 0 00.594-.359l.561-1.727a.626.626 0 011.187 0l.562 1.727a.568.568 0 00.594.359h1.817a.665.665 0 01.366 1.19z" fill="#ff5f00"></path>
    </g>
  </symbol>
  <symbol xmlns="http://www.w3.org/2000/svg" viewBox="0 0 72 71" id="Group 506">
    <g transform="translate(-440 -3113)">
      <rect width="72" height="71" rx="12" transform="translate(440 3113)" fill="#ffefe5"></rect>
      <path d="M495.999 3143.148a13.265 13.265 0 10-26.53 0 12.924 12.924 0 002.279 7.381v.045l10.972 16.5 11.045-16.547h-.023a13.107 13.107 0 002.257-7.379zm-13.276 7.379a7.383 7.383 0 117.381-7.381 7.391 7.391 0 01-7.381 7.381zm-12.266 3.684a7.131 7.131 0 10-14.262 0 6.947 6.947 0 001.225 3.968v.024l5.9 8.869 5.937-8.893h-.012a7.046 7.046 0 001.212-3.968zm-7.138 3.968a3.969 3.969 0 113.968-3.968 3.973 3.973 0 01-3.968 3.967z" fill="#ff5f00"></path>
    </g>
  </symbol>
  <symbol xmlns="http://www.w3.org/2000/svg" viewBox="0 0 72 71" id="Group 399">
    <g transform="translate(-983 -2961)">
      <rect width="72" height="71" rx="12" transform="translate(983 2961)" fill="#ffefe5"></rect>
      <path d="M1032.234 2992.253a.883.883 0 00-.769-.448h-11.573l1.94-14.824a.888.888 0 00-1.628-.577l-14.074 24.656a.883.883 0 00.752 1.346h11.4l-1.537 14.847a.889.889 0 001.637.544l13.841-24.654a.883.883 0 00.011-.889z" fill="#ff5f00"></path>
    </g>
  </symbol>
  <symbol xmlns="http://www.w3.org/2000/svg" viewBox="0 0 72 71" id="Group 500">
    <g transform="translate(-709 -2960)">
      <rect width="72" height="71" rx="12" transform="translate(709 2960)" fill="#ffefe5"></rect>
      <g fill="#ff5f00">
        <path d="M736.838 2997.207a24.424 24.424 0 003.175-.2v-11.051a24.44 24.44 0 00-3.175-.2c-6.294-.004-11.394 2.309-11.394 5.163v1.124c0 2.851 5.1 5.164 11.394 5.164zm0 5.768a24.457 24.457 0 003.175-.2v-3.238a24.436 24.436 0 01-3.175.2c-5.492 0-10.076-1.763-11.153-4.109a2.52 2.52 0 00-.241 1.059v1.121c0 2.854 5.1 5.167 11.394 5.167zm3.175 2.579v-.252a24.439 24.439 0 01-3.175.2c-5.493.005-10.077-1.762-11.153-4.104a2.52 2.52 0 00-.24 1.058v1.121c0 2.854 5.1 5.167 11.393 5.167a24.2 24.2 0 003.6-.264 4.076 4.076 0 01-.425-1.806zM753.265 2977c-6.292 0-11.393 2.313-11.393 5.167v1.121c0 2.854 5.1 5.167 11.393 5.167s11.393-2.313 11.393-5.167v-1.121c0-2.854-5.101-5.167-11.393-5.167z"></path>
        <path d="M753.265 2990.987c-5.492 0-10.076-1.763-11.153-4.109a2.519 2.519 0 00-.24 1.058v1.121c0 2.854 5.1 5.167 11.393 5.167s11.393-2.313 11.393-5.167v-1.123a2.519 2.519 0 00-.24-1.058c-1.077 2.348-5.661 4.111-11.153 4.111z"></path>
        <path d="M753.265 2996.756c-5.492 0-10.076-1.763-11.153-4.109a2.519 2.519 0 00-.24 1.058v1.121c0 2.854 5.1 5.167 11.393 5.167s11.393-2.313 11.393-5.167v-1.121a2.519 2.519 0 00-.24-1.058c-1.077 2.346-5.661 4.109-11.153 4.109z"></path>
        <path d="M753.265 3002.836c-5.492 0-10.076-1.763-11.153-4.109a2.52 2.52 0 00-.24 1.058v1.121c0 2.854 5.1 5.167 11.393 5.167s11.393-2.313 11.393-5.167v-1.121a2.519 2.519 0 00-.24-1.058c-1.077 2.346-5.661 4.109-11.153 4.109z"></path>
        <path d="M753.265 3008.605c-5.492 0-10.076-1.763-11.153-4.109a2.52 2.52 0 00-.24 1.058v1.121c0 2.854 5.1 5.167 11.393 5.167s11.393-2.313 11.393-5.167v-1.121a2.519 2.519 0 00-.24-1.058c-1.077 2.346-5.661 4.109-11.153 4.109z"></path>
      </g>
    </g>
  </symbol>
  <symbol xmlns="http://www.w3.org/2000/svg" viewBox="0 0 72 71" id="Group 501">
    <g transform="translate(-437 -2960)">
      <rect width="72" height="71" rx="12" transform="translate(437 2960)" fill="#ffefe5"></rect>
      <g fill="#ff5f00">
        <path d="M495.1 2988.063l-21.652-7.639a1.347 1.347 0 00-.9 0l-21.648 7.639a1.348 1.348 0 000 2.541l21.652 7.7a1.347 1.347 0 00.9 0l21.652-7.7a1.348 1.348 0 000-2.541zm-2.339 17.989v-11.755l-2.7.958v10.8a2.706 2.706 0 000 4.694v6.623a1.35 1.35 0 002.7 0v-6.623a2.706 2.706 0 000-4.694z"></path>
        <path d="M473 3001.075a4.033 4.033 0 01-1.354-.234l-12.172-4.327v5.93c0 1.451 1.514 2.678 4.5 3.647a31.77 31.77 0 0018.056 0c2.985-.969 4.5-2.2 4.5-3.647v-5.93l-12.172 4.327a4.034 4.034 0 01-1.358.234z"></path>
      </g>
    </g>
  </symbol>
  <symbol xmlns="http://www.w3.org/2000/svg" viewBox="0 0 72 71" id="Group 507">
    <g transform="translate(-1258 -2960)">
      <rect width="72" height="71" rx="12" transform="translate(1258 2960)" fill="#ffefe5"></rect>
      <path d="M1304.045 2978.094a2.021 2.021 0 00-1.744-1.007h-7.491v8.861h13.778zm-11.335-1.007h-7.561a2.021 2.021 0 00-1.746 1.009l-4.527 7.852h13.834v-8.861zm-14.585 10.961v22.4a2.472 2.472 0 002.469 2.469h26.26a2.472 2.472 0 002.469-2.469v-22.4zm20.366 9.418l-5.43 5.43a1.048 1.048 0 01-1.485 0l-2.546-2.545a1.05 1.05 0 011.485-1.485l1.8 1.8 4.688-4.688a1.05 1.05 0 111.485 1.485z" fill="#ff5f00"></path>
    </g>
  </symbol>
  <symbol xmlns="http://www.w3.org/2000/svg" viewBox="0 0 72 71" id="Group 603">
    <g transform="translate(-671 -1061)">
      <rect width="72" height="71" rx="12" transform="translate(671 1061)" fill="#ffefe5"></rect>
      <g transform="translate(634 1073.855)" fill="#ff5f00">
        <rect width="8" height="14" rx="2" transform="translate(59 20.143)"></rect>
        <rect width="8" height="22" rx="2" transform="translate(69 12.143)"></rect>
        <rect width="8" height="18" rx="2" transform="translate(79 16.143)"></rect>
      </g>
    </g>
  </symbol>
  <symbol xmlns="http://www.w3.org/2000/svg" viewBox="0 0 72 71" id="Group 604">
    <g transform="translate(-500 -1061)">
      <rect width="72" height="71" rx="12" transform="translate(500 1061)" fill="#ffefe5"></rect>
      <path d="M536.022 1099.874l-2.089-2.037a.366.366 0 00-.513 0l-3.519 3.45v-14.92a.367.367 0 00-.368-.367h-2.934a.367.367 0 00-.366.367v14.922l-3.519-3.45a.366.366 0 00-.512 0l-2.091 2.036a.366.366 0 000 .525l7.7 7.5a.366.366 0 00.512 0l7.7-7.5a.367.367 0 000-.525zm.221-5.748l2.091 2.036a.366.366 0 00.513 0l3.519-3.45v14.921a.367.367 0 00.367.367h2.933a.367.367 0 00.367-.367v-14.922l3.519 3.45a.366.366 0 00.512 0l2.091-2.036a.366.366 0 000-.525l-7.7-7.5a.366.366 0 00-.511 0l-7.7 7.5a.366.366 0 000 .525z" fill="#ff5f00"></path>
    </g>
  </symbol>
  <symbol xmlns="http://www.w3.org/2000/svg" viewBox="0 0 72 71" id="Group 600">
    <g transform="translate(-1355 -1061)">
      <rect width="72" height="71" rx="12" transform="translate(1355 1061)" fill="#ffefe5"></rect>
      <path d="M1391.668 1081.001v15.438l6.717 13.919h.013a15.7 15.7 0 00-6.73-29.357zm-1.61 16.655H1375a15.546 15.546 0 004.58 10.122 15.451 15.451 0 005.08 3.417 15.639 15.639 0 006.023 1.192 15.388 15.388 0 005.918-1.165zm-15.045-1.964h14.691v-14.691a15.694 15.694 0 00-14.691 14.691z" fill="#ff5f00"></path>
    </g>
  </symbol>
  <symbol xmlns="http://www.w3.org/2000/svg" viewBox="0 0 72 71" id="Group 601">
    <g transform="translate(-842 -1061)">
      <rect width="72" height="71" rx="12" transform="translate(842 1061)" fill="#ffefe5"></rect>
      <path d="M868.075 1098.862a.665.665 0 00.076 0 .654.654 0 00.409-.143.667.667 0 00.063-.057c.38-.385 3.738-4.794 4.178-5.372a.683.683 0 00.21-.684c-.058-.139-.209-.3-.595-.3h-1.818a7.624 7.624 0 017.612-7.425 7.623 7.623 0 017.615 7.615v.282a.7.7 0 00.005.218v.02a.63.63 0 00.2.323l.017.014a.934.934 0 00.64.189c.352 0 1.162-.008 1.877-.015.61-.006 1.188-.012 1.4-.012a.781.781 0 00.58-.214l.02-.021a.669.669 0 00.164-.393v-.99h-.025a12.435 12.435 0 00-3.879-8.449 12.438 12.438 0 00-8.945-3.442 12.456 12.456 0 00-8.642 3.769 12.456 12.456 0 00-3.563 8.649h-2.124a.5.5 0 00-.524.286c-.113.284.125.565.249.686l4.358 5.227a.654.654 0 00.442.239zm24.97.984l-4.358-5.227a.659.659 0 00-.921-.109.644.644 0 00-.063.056c-.365.364-3.739 4.795-4.181 5.375a.683.683 0 00-.21.684c.058.139.209.3.595.3h1.819a7.615 7.615 0 01-15.227-.189v-.282a.7.7 0 00-.005-.218v-.02a.63.63 0 00-.2-.323l-.017-.014a.936.936 0 00-.64-.188c-.352 0-1.162.008-1.877.015-.61.006-1.186.012-1.4.012a.783.783 0 00-.591.221l-.017.018a.668.668 0 00-.164.393v.994h.021a12.524 12.524 0 0012.511 12.061h.153a12.524 12.524 0 0012.371-12.581h2.127a.5.5 0 00.518-.283c.117-.288-.121-.573-.244-.695z" fill="#ff5f00"></path>
    </g>
  </symbol>
  <symbol xmlns="http://www.w3.org/2000/svg" viewBox="0 0 72 71" id="Group 602">
    <g transform="translate(-1184 -1061)">
      <rect width="72" height="71" rx="12" transform="translate(1184 1061)" fill="#ffefe5"></rect>
      <path d="M1219.652 1077.999a14.652 14.652 0 00-14.652 14.652v7.686a14.652 14.652 0 0014.652 14.652 14.652 14.652 0 0014.648-14.652v-7.686a14.652 14.652 0 00-14.648-14.652zm-8.769 23.891a8.325 8.325 0 007.9-8.3.693.693 0 01.693-.693.693.693 0 01.693.693 10.263 10.263 0 01-.464 2.981 9.337 9.337 0 01-2.376 3.88 9.626 9.626 0 01-5.89 2.792 8.947 8.947 0 01-.556-1.353zm1.351 2.64a11.1 11.1 0 009.316-10.944 2.081 2.081 0 00-2.078-2.077 2.081 2.081 0 00-2.079 2.079 6.884 6.884 0 01-2.028 4.9 6.882 6.882 0 01-4.8 2.027 9.035 9.035 0 01-.1-1.338v-.046a5.549 5.549 0 005.543-5.543 3.468 3.468 0 013.464-3.464 3.468 3.468 0 013.464 3.464 12.391 12.391 0 01-3.651 8.821 12.383 12.383 0 01-5.98 3.328 9.1 9.1 0 01-1.071-1.207zm7.238 3.652a9.076 9.076 0 01-.936-.048 16.507 16.507 0 001.978-1.292l.125.127a11.248 11.248 0 001.061.934 8.992 8.992 0 01-2.228.279zm3.82-.851a9.776 9.776 0 01-1.673-1.342 9.787 9.787 0 01-.938-1.086 15.171 15.171 0 01-4.291 2.737 8.98 8.98 0 01-1.716-.844 13.784 13.784 0 005.59-3.409l.66-.664.461.751a8.36 8.36 0 001.215 1.535 8.328 8.328 0 002.073 1.516 9.013 9.013 0 01-1.381.806zm2.548-1.791a6.912 6.912 0 01-2.261-1.51 6.9 6.9 0 01-1.654-2.643 13.733 13.733 0 001.032-1.784 5.556 5.556 0 003.843 4.806 9.083 9.083 0 01-.961 1.131zm1.7-2.361a4.165 4.165 0 01-3.217-4.05v-5.543a4.856 4.856 0 00-4.85-4.85 4.856 4.856 0 00-4.85 4.85 4.162 4.162 0 01-4.157 4.157v-1.386a2.775 2.775 0 002.771-2.771 6.243 6.243 0 016.236-6.236 6.243 6.243 0 016.236 6.236v5.543a2.776 2.776 0 002.36 2.741 8.957 8.957 0 01-.53 1.309zm.94-4a9.039 9.039 0 01-.1 1.336 1.387 1.387 0 01-1.287-1.382v-5.543a7.63 7.63 0 00-7.622-7.622 7.63 7.63 0 00-7.622 7.622 1.387 1.387 0 01-1.386 1.386v-1.386a9.018 9.018 0 019.007-9.007 9.018 9.018 0 019.007 9.007z" fill="#ff5f00"></path>
    </g>
  </symbol>
  <symbol xmlns="http://www.w3.org/2000/svg" viewBox="0 0 72 71" id="fund2">
    <g transform="translate(-1134 -1028)">
      <rect width="72" height="71" rx="12" transform="translate(1134 1028)" fill="#ffefe5"></rect>
      <path d="M1169.244 1047.184v-1.119a1.065 1.065 0 00-2.13 0v1.119a18.177 18.177 0 00-17.114 18.055 1.065 1.065 0 102.13 0c0-.265 1.134-1.065 3.2-1.065s3.267.8 3.267 1.065a1.065 1.065 0 102.13 0c0-.265 1.134-1.065 3.2-1.065s3.2.8 3.2 1.065v11.86a4.261 4.261 0 008.521 0 1.065 1.065 0 00-2.13 0 2.13 2.13 0 11-4.261 0v-11.86c0-.265 1.134-1.065 3.2-1.065 1.864 0 2.92.637 3.115.958v.018a1.066 1.066 0 00.979 1.145h.084c.009 0 .017 0 .027-.005s.036.011.056.011a1.065 1.065 0 001.065-1.065c0-.265 1.134-1.065 3.2-1.065s3.267.8 3.267 1.065a1.065 1.065 0 102.13 0 18.177 18.177 0 00-17.136-18.052z" fill="#ff5f00"></path>
    </g>
  </symbol>
  <symbol xmlns="http://www.w3.org/2000/svg" viewBox="0 0 72 71" id="fund3">
    <g transform="translate(-853 -1028)">
      <rect width="72" height="71" rx="12" transform="translate(853 1028)" fill="#ffefe5"></rect>
      <g fill="#ff5f00">
        <path d="M879.53 1066.887a21.621 21.621 0 002.811-.18v-9.78a21.633 21.633 0 00-2.811-.18c-5.57 0-10.086 2.048-10.086 4.574v.992c0 2.525 4.516 4.574 10.086 4.574zm0 5.107a21.651 21.651 0 002.811-.18v-2.867a21.63 21.63 0 01-2.811.181c-4.862 0-8.92-1.56-9.873-3.637a2.231 2.231 0 00-.212.937v.992c-.001 2.526 4.515 4.574 10.085 4.574zm2.815 2.282v-.223a21.633 21.633 0 01-2.811.181c-4.862 0-8.92-1.56-9.873-3.637a2.23 2.23 0 00-.212.937v.992c0 2.526 4.515 4.574 10.085 4.574a21.422 21.422 0 003.187-.233 3.608 3.608 0 01-.376-1.6zM894.071 1049c-5.57 0-10.085 2.048-10.085 4.574v.992c0 2.526 4.515 4.574 10.085 4.574s10.085-2.048 10.085-4.574v-.992c0-2.526-4.516-4.574-10.085-4.574z"></path>
        <path d="M894.071 1061.381c-4.862 0-8.92-1.56-9.873-3.637a2.23 2.23 0 00-.212.937v.992c0 2.526 4.515 4.574 10.085 4.574s10.085-2.048 10.085-4.574v-.992a2.23 2.23 0 00-.212-.937c-.954 2.077-5.011 3.637-9.873 3.637z"></path>
        <path d="M894.071 1066.487c-4.862 0-8.92-1.56-9.873-3.637a2.23 2.23 0 00-.212.937v.992c0 2.526 4.515 4.574 10.085 4.574s10.085-2.048 10.085-4.574v-.992a2.23 2.23 0 00-.212-.937c-.954 2.072-5.011 3.637-9.873 3.637z"></path>
        <path d="M894.071 1071.87c-4.862 0-8.92-1.56-9.873-3.637a2.23 2.23 0 00-.212.937v.992c0 2.526 4.515 4.574 10.085 4.574s10.085-2.048 10.085-4.574v-.992a2.23 2.23 0 00-.212-.937c-.954 2.077-5.011 3.637-9.873 3.637z"></path>
        <path d="M894.071 1076.976c-4.862 0-8.92-1.56-9.873-3.637a2.231 2.231 0 00-.212.937v.992c0 2.526 4.515 4.574 10.085 4.574s10.085-2.048 10.085-4.574v-.992a2.23 2.23 0 00-.212-.937c-.954 2.077-5.011 3.637-9.873 3.637z"></path>
      </g>
    </g>
  </symbol>
  <symbol xmlns="http://www.w3.org/2000/svg" viewBox="0 0 72 71" id="fund4">
    <g transform="translate(-566 -1028)">
      <rect width="72" height="71" rx="12" transform="translate(566 1028)" fill="#ffefe5"></rect>
      <path d="M612.125 1073.75H611v-3.682a6.474 6.474 0 00-2.141-4.808l-1.9-1.713a1.407 1.407 0 010-2.091l1.9-1.713a6.48 6.48 0 002.141-4.811v-3.682h1.125a1.125 1.125 0 000-2.25h-18a1.125 1.125 0 000 2.25h1.125v3.682a6.474 6.474 0 002.141 4.808l1.9 1.713a1.407 1.407 0 010 2.091l-1.9 1.713a6.48 6.48 0 00-2.141 4.811v3.682h-1.125a1.125 1.125 0 000 2.25h18a1.125 1.125 0 000-2.25zm-13.5-3.567a3.073 3.073 0 01.907-2.188l3-3a.844.844 0 011.194 0l3 3a3.073 3.073 0 01.907 2.188v3.567h-9z" fill="#ff5f00"></path>
    </g>
  </symbol>
  <symbol xmlns="http://www.w3.org/2000/svg" viewBox="0 0 72 71" id="fund1">
    <g transform="translate(-1417 -1028)">
      <rect width="72" height="71" rx="12" transform="translate(1417 1028)" fill="#ffefe5"></rect>
      <path d="M1442.802 1052.801v19.465h21.4v-19.465zm14.306 14.889a5.156 5.156 0 115.157-5.156 5.156 5.156 0 01-5.157 5.156z" fill="#ff5f00"></path>
      <path d="M1457.109 1059.311a3.222 3.222 0 103.222 3.222 3.222 3.222 0 00-3.222-3.222zm0 4.511a1.289 1.289 0 111.289-1.289 1.289 1.289 0 01-1.289 1.289z" fill="#ff5f00"></path>
      <path d="M1465.167 1047h-23.332a4.839 4.839 0 00-4.834 4.834v21.4a4.84 4.84 0 004.834 4.834v1.934h3.868v-1.933h15.6v1.933h3.868v-1.933a4.84 4.84 0 004.833-4.834v-21.4a4.839 4.839 0 00-4.837-4.835zm.971 27.2h-25.27v-23.333h25.266z" fill="#ff5f00"></path>
    </g>
  </symbol>
    <symbol xmlns="http://www.w3.org/2000/svg" viewBox="0 0 115 117" id="fund8">
    <g transform="translate(-800 -2581)">
      <rect width="115" height="117" rx="16" transform="translate(800 2581)" fill="#ffebe0"></rect>
      <rect width="95" height="95" rx="12" transform="translate(810 2592)" fill="#ff5f00"></rect>
      <path d="M865.436 2625.1h-.814v-2.39a4.71 4.71 0 10-9.419 0v2.39h-.814a1.553 1.553 0 00-1.553 1.555v5.523a7.077 7.077 0 1014.153 0v-5.523a1.553 1.553 0 00-1.553-1.555zm-7.126-2.39a1.603 1.603 0 113.206 0v2.39h-3.206zm13.438 18.961h-23.671a7.077 7.077 0 000 14.154h23.671a7.077 7.077 0 000-14.154zm-21.3 8.655a1.578 1.578 0 111.578-1.578 1.578 1.578 0 01-1.582 1.578zm6.312 0a1.578 1.578 0 111.578-1.578 1.578 1.578 0 01-1.582 1.578zm6.312 0a1.578 1.578 0 111.578-1.578 1.578 1.578 0 01-1.582 1.578zm6.312 0a1.578 1.578 0 111.578-1.578 1.578 1.578 0 01-1.581 1.578z" fill="#fff"></path>
    </g>
  </symbol>
  <symbol xmlns="http://www.w3.org/2000/svg" viewBox="0 0 115 117" id="fund9">
    <g transform="translate(-574 -2581)">
      <rect width="115" height="117" rx="16" transform="translate(574 2581)" fill="#ffebe0"></rect>
      <rect width="95" height="95" rx="12" transform="translate(584 2592)" fill="#ff5f00"></rect>
      <path d="M621.815 2645.803a1.034 1.034 0 01-.932-.6 3.129 3.129 0 01-.213-.623q-.966-3.773-1.924-7.547-1.833-7.2-3.662-14.412c-.27-1.065-.528-2.134-.792-3.2a1.007 1.007 0 01.076-.726.959.959 0 011.463-.315 2.006 2.006 0 01.217.218l7.385 8.047c.9.984 1.808 1.967 2.707 2.954a1.763 1.763 0 00.745.526 1.526 1.526 0 001.076-.056 4.225 4.225 0 00.738-.388q7.95-5.216 15.9-10.439c.479-.315.966-.614 1.449-.92a.671.671 0 01.539-.129.434.434 0 01.328.634 1.607 1.607 0 01-.273.4q-2.042 2.25-4.091 4.493l-10.36 11.353q-4.586 5.027-9.173 10.052c-.108.119-.217.24-.334.35a1.283 1.283 0 01-.869.328zm25.436 12.711a.959.959 0 01-.564.983.884.884 0 01-.986-.149 1.786 1.786 0 01-.184-.189L637 2649.88l-1.427-1.559-.209-.227a1.5 1.5 0 00-1.76-.42 3.846 3.846 0 00-.743.375q-2.583 1.684-5.154 3.384-5.408 3.554-10.819 7.107c-.466.305-.941.6-1.414.894a1.24 1.24 0 01-.234.121.52.52 0 01-.552-.179.387.387 0 01-.016-.454 2.233 2.233 0 01.283-.389c.619-.687 1.243-1.371 1.866-2.053l14.485-15.875 7.274-7.971a1.806 1.806 0 01.761-.576 1.042 1.042 0 011.3.531 4 4 0 01.239.708c.33 1.277.651 2.557.976 3.835l3.685 14.493q.779 3.07 1.553 6.141c.071.282.121.571.157.748z" fill="#fff"></path>
    </g>
  </symbol>
  <symbol xmlns="http://www.w3.org/2000/svg" viewBox="0 0 115 117" id="fund10">
    <g transform="translate(-344 -2581)">
      <rect width="115" height="117" rx="16" transform="translate(344 2581)" fill="#ffebe0"></rect>
      <rect width="95" height="95" rx="12" transform="translate(354 2592)" fill="#ff5f00"></rect>
      <g fill="#fff">
        <path d="M383 2632.555h32.928v2.344H383zm32.928-3.043a3.515 3.515 0 00-3.511-3.511h-25.906a3.515 3.515 0 00-3.511 3.511v.7h32.928zm-.078 10.947h.078v-3.223H383v9.6a3.515 3.515 0 003.511 3.511h19.909a9.55 9.55 0 01-.011-.446 9.452 9.452 0 019.442-9.442zm-27-.881h2.928a1.17 1.17 0 010 2.341h-2.926a1.17 1.17 0 010-2.341zm6.632 6.086h-6.63a1.17 1.17 0 010-2.341h6.632a1.17 1.17 0 010 2.341z"></path>
        <path d="M415.85 2642.8a7.1 7.1 0 107.1 7.1 7.109 7.109 0 00-7.1-7.1zm3.4 6.5l-2.809 2.809a1.17 1.17 0 01-1.655 0l-1.444-1.444a1.17 1.17 0 111.655-1.655l.616.616 1.981-1.981a1.17 1.17 0 111.655 1.655z"></path>
      </g>
    </g>
  </symbol>
  <symbol xmlns="http://www.w3.org/2000/svg" viewBox="0 0 115 117" id="fund5">
    <g transform="translate(-1465 -2581)">
      <rect width="115" height="117" rx="16" transform="translate(1465 2581)" fill="#ffebe0"></rect>
      <rect width="95" height="95" rx="12" transform="translate(1475 2592)" fill="#ff5f00"></rect>
      <path d="M1521.598 2617a17.8 17.8 0 00-17.6 17.985v9.435a17.794 17.794 0 0017.6 17.984 17.794 17.794 0 0017.595-17.984v-9.435a17.8 17.8 0 00-17.595-17.985zm-12.829 30.6a12.182 12.182 0 0011.562-12.146 1.013 1.013 0 011.014-1.014 1.014 1.014 0 011.014 1.014 15.054 15.054 0 01-.679 4.362 13.667 13.667 0 01-3.477 5.677 14.093 14.093 0 01-8.618 4.085 13.1 13.1 0 01-.817-1.98zm1.977 3.863a16.243 16.243 0 0013.631-16.013 3.041 3.041 0 00-6.082 0 10.13 10.13 0 01-9.991 10.135 13.1 13.1 0 01-.146-1.958v-.067a8.12 8.12 0 008.11-8.11 5.069 5.069 0 1110.137 0 18.252 18.252 0 01-14.092 17.776 13.3 13.3 0 01-1.568-1.765zm10.59 5.344a13.392 13.392 0 01-1.37-.07 24.323 24.323 0 002.894-1.891l.183.186a16.4 16.4 0 001.552 1.367 13.244 13.244 0 01-3.264.405zm5.589-1.245a14.386 14.386 0 01-3.82-3.552 22.242 22.242 0 01-6.278 4 13.194 13.194 0 01-2.511-1.235 20.19 20.19 0 008.179-4.988l.966-.972.674 1.1a12.312 12.312 0 004.811 4.464 13.329 13.329 0 01-2.021 1.18zm3.728-2.62a10.176 10.176 0 01-5.728-6.077 20.217 20.217 0 001.51-2.61 8.132 8.132 0 005.623 7.032 13.53 13.53 0 01-1.406 1.655zm2.487-3.455a6.093 6.093 0 01-4.707-5.926v-8.11a7.1 7.1 0 10-14.193 0 6.092 6.092 0 01-6.082 6.082v-2.028a4.062 4.062 0 004.054-4.054 9.124 9.124 0 1118.249 0v8.11a4.062 4.062 0 003.453 4.01 13.148 13.148 0 01-.776 1.915zm1.375-5.853a13.464 13.464 0 01-.146 1.955 2.03 2.03 0 01-1.883-2.022v-8.11a11.152 11.152 0 10-22.3 0 2.031 2.031 0 01-2.028 2.028v-2.028a13.179 13.179 0 1126.358 0z" fill="#fff"></path>
    </g>
  </symbol>
  <symbol xmlns="http://www.w3.org/2000/svg" viewBox="0 0 115 117" id="fund6">
    <g transform="translate(-1250 -2581)">
      <rect width="115" height="117" rx="16" transform="translate(1250 2581)" fill="#ffebe0"></rect>
      <rect width="95" height="95" rx="12" transform="translate(1260 2592)" fill="#ff5f00"></rect>
      <path d="M1320.291 2659.054l-6.975-6.974-3.381 3.381a1.195 1.195 0 01-1.979-.467l-6.763-20.289a1.195 1.195 0 011.512-1.512l20.289 6.763a1.194 1.194 0 01.467 1.979l-3.381 3.381 6.974 6.975a1.2 1.2 0 010 1.691l-5.072 5.072a1.2 1.2 0 01-1.691 0zm-18.148-30.893a1.2 1.2 0 01-1.2-1.2v-7.164a1.2 1.2 0 112.391 0v7.169a1.2 1.2 0 01-1.191 1.195zm-5.921 1.751l-5.073-5.072a1.2 1.2 0 111.691-1.691l5.073 5.073a1.2 1.2 0 01-1.69 1.691zm-5.073 15.216a1.2 1.2 0 010-1.691l5.073-5.073a1.2 1.2 0 011.691 1.691l-5.073 5.073a1.2 1.2 0 01-1.691 0zm15.216-15.216a1.2 1.2 0 010-1.691l5.073-5.073a1.2 1.2 0 111.691 1.691l-5.073 5.073a1.2 1.2 0 01-1.691 0zm-11.399 5.422h-7.169a1.2 1.2 0 110-2.391h7.169a1.2 1.2 0 110 2.391z" fill="#fff"></path>
    </g>
  </symbol>
  <symbol xmlns="http://www.w3.org/2000/svg" viewBox="0 0 115 117" id="fund7">
    <g transform="translate(-1024 -2581)">
      <rect width="115" height="117" rx="16" transform="translate(1024 2581)" fill="#ffebe0"></rect>
      <rect width="95" height="95" rx="12" transform="translate(1034 2592)" fill="#ff5f00"></rect>
      <g fill="#fff">
        <path d="M1066.925 2631.082a7.808 7.808 0 017.8-7.8h14.994a4.506 4.506 0 00-4.319-3.282h-18.885a4.519 4.519 0 00-4.515 4.515v25.448a4.519 4.519 0 004.515 4.515h.41z"></path>
        <path d="M1093.609 2626.567h-18.885a4.519 4.519 0 00-4.515 4.515v23.806a4.519 4.519 0 004.515 4.515h18.885a4.519 4.519 0 004.515-4.515v-23.806a4.519 4.519 0 00-4.515-4.515zm-3.288 27.911h-12.312a1.232 1.232 0 110-2.463h12.312a1.232 1.232 0 010 2.463zm0-6.567h-12.312a1.232 1.232 0 010-2.463h12.312a1.232 1.232 0 010 2.463zm0-5.746h-12.312a1.232 1.232 0 010-2.463h12.312a1.232 1.232 0 010 2.463zm0-6.567h-12.312a1.232 1.232 0 010-2.463h12.312a1.232 1.232 0 010 2.463z"></path>
      </g>
    </g>
  </symbol>


</svg>