<svg id="_2921087" data-name="2921087" xmlns="http://www.w3.org/2000/svg" width="39.402" height="39.404" viewBox="0 0 39.402 39.404">
  <path id="Path_335" data-name="Path 335" d="M17.545,3.284H15.739a4.524,4.524,0,0,0-8.7,0H5.231A1.24,1.24,0,0,0,4,4.515V6.978A2.887,2.887,0,0,0,6.873,9.851H15.9a2.887,2.887,0,0,0,2.873-2.873V4.515A1.24,1.24,0,0,0,17.545,3.284Z" transform="translate(2.567)" fill="#fff"/>
  <path id="Path_336" data-name="Path 336" d="M23.4,3h-.41V5.052A4.512,4.512,0,0,1,18.47,9.567H9.44A4.512,4.512,0,0,1,4.925,5.052V3h-.41A4.512,4.512,0,0,0,0,7.515V28.038a4.512,4.512,0,0,0,4.515,4.515H16.632l.361-2.019a4.572,4.572,0,0,1,1.248-2.413l1.313-1.313H6.157a1.231,1.231,0,1,1,0-2.463h15.6a.559.559,0,0,1,.23.033H22l5.911-5.911V7.515A4.512,4.512,0,0,0,23.4,3ZM21.754,21.47H6.157a1.231,1.231,0,1,1,0-2.463h15.6a1.231,1.231,0,0,1,0,2.463Zm0-5.336H6.157a1.231,1.231,0,1,1,0-2.463h15.6a1.231,1.231,0,0,1,0,2.463Z" transform="translate(0 1.925)" fill="#fff"/>
  <path id="Path_337" data-name="Path 337" d="M13.008,31.911A1.232,1.232,0,0,1,11.8,30.464l.87-4.934a1.236,1.236,0,0,1,.341-.657L25.2,12.685c1.5-1.5,2.968-1.1,3.773-.291L31,14.425a2.875,2.875,0,0,1,0,4.064L18.812,30.679a1.213,1.213,0,0,1-.657.342l-4.934.87a1.173,1.173,0,0,1-.213.02Zm4.934-2.1h.016Z" transform="translate(7.559 7.493)" fill="#fff"/>
</svg>
