<svg xmlns="http://www.w3.org/2000/svg" width="115" height="117" viewBox="0 0 115 117">
  <g id="Group_362" data-name="Group 362" transform="translate(-1344 -12412)">
    <rect id="Rectangle_552" data-name="Rectangle 552" width="115" height="117" rx="16" transform="translate(1344 12412)" fill="#ffebe0"/>
    <rect id="Rectangle_551" data-name="Rectangle 551" width="95" height="95" rx="12" transform="translate(1354 12423)" fill="#ff5f00"/>
    <g id="Group_195" data-name="Group 195" transform="translate(5 9041)">
      <path id="Path_308" data-name="Path 308" d="M621.514,139.577a1.034,1.034,0,0,1-.932-.6,3.129,3.129,0,0,1-.213-.623q-.966-3.773-1.924-7.547-1.833-7.2-3.662-14.412c-.27-1.065-.528-2.134-.792-3.2a1.007,1.007,0,0,1,.076-.726.959.959,0,0,1,1.463-.315,2.006,2.006,0,0,1,.217.218q3.693,4.024,7.385,8.047c.9.984,1.808,1.967,2.707,2.954a1.763,1.763,0,0,0,.745.526,1.526,1.526,0,0,0,1.076-.056,4.225,4.225,0,0,0,.738-.388q7.95-5.216,15.9-10.439c.479-.315.966-.614,1.449-.92a.671.671,0,0,1,.539-.129.434.434,0,0,1,.328.634,1.607,1.607,0,0,1-.273.4q-2.042,2.25-4.091,4.493l-10.36,11.353q-4.586,5.027-9.173,10.052c-.108.119-.217.24-.334.35A1.283,1.283,0,0,1,621.514,139.577Z" transform="translate(768.301 3296.226)" fill="#fff"/>
      <path id="Path_309" data-name="Path 309" d="M646.868,149.051a.959.959,0,0,1-.564.983.884.884,0,0,1-.986-.149,1.786,1.786,0,0,1-.184-.189l-8.517-9.279-1.427-1.559-.209-.227a1.5,1.5,0,0,0-1.76-.42,3.846,3.846,0,0,0-.743.375q-2.583,1.684-5.154,3.384-5.408,3.554-10.819,7.107c-.466.305-.941.6-1.414.894a1.24,1.24,0,0,1-.234.121.52.52,0,0,1-.552-.179.387.387,0,0,1-.016-.454,2.233,2.233,0,0,1,.283-.389c.619-.687,1.243-1.371,1.866-2.053q7.243-7.938,14.485-15.875,3.638-3.987,7.274-7.971a1.806,1.806,0,0,1,.761-.576,1.042,1.042,0,0,1,1.3.531,4,4,0,0,1,.239.708c.33,1.277.651,2.557.976,3.835q1.843,7.247,3.685,14.493.779,3.07,1.553,6.141C646.782,148.585,646.832,148.874,646.868,149.051Z" transform="translate(768.383 3299.463)" fill="#fff"/>
    </g>
  </g>
</svg>
