<svg xmlns="http://www.w3.org/2000/svg" width="115" height="117" viewBox="0 0 115 117">
  <g id="Group_369" data-name="Group 369" transform="translate(-679 -1544)">
    <rect id="Rectangle_664" data-name="Rectangle 664" width="115" height="117" rx="16" transform="translate(679 1544)" fill="#ffebe0"/>
    <rect id="Rectangle_665" data-name="Rectangle 665" width="95" height="95" rx="12" transform="translate(689 1555)" fill="#ff5f00"/>
    <g id="_2921075" data-name="2921075" transform="translate(721 1585)">
      <path id="Path_338" data-name="Path 338" d="M17,3.152H15.269a4.343,4.343,0,0,0-8.353,0H5.182A1.191,1.191,0,0,0,4,4.334V6.7A2.771,2.771,0,0,0,6.758,9.456h8.668A2.771,2.771,0,0,0,18.184,6.7V4.334A1.191,1.191,0,0,0,17,3.152Z" transform="translate(2.304)" fill="#fff"/>
      <path id="Path_339" data-name="Path 339" d="M22.458,3h-.394V4.97A4.332,4.332,0,0,1,17.73,9.3H9.062A4.332,4.332,0,0,1,4.728,4.97V3H4.334A4.332,4.332,0,0,0,0,7.334v19.7a4.332,4.332,0,0,0,4.334,4.334H14.72a13.771,13.771,0,0,1-1.308-5.516H5.91a1.182,1.182,0,1,1,0-2.364h7.628a14.424,14.424,0,0,1,.693-2.758H5.91a1.182,1.182,0,1,1,0-2.364h9.456a13.716,13.716,0,0,1,2.191-2.758H5.91a1.182,1.182,0,0,1,0-2.364H20.788a13.588,13.588,0,0,1,6-1.56V7.334A4.332,4.332,0,0,0,22.458,3Z" transform="translate(0 1.728)" fill="#fff"/>
      <path id="Path_340" data-name="Path 340" d="M21.138,10.5A10.638,10.638,0,1,0,31.776,21.138,10.65,10.65,0,0,0,21.138,10.5Zm5.125,8.525-5.516,6.3a1.574,1.574,0,0,1-1.133.537h-.052a1.575,1.575,0,0,1-1.114-.462L15.3,22.252a1.576,1.576,0,1,1,2.229-2.229l1.961,1.961,4.407-5.037a1.576,1.576,0,1,1,2.372,2.077Z" transform="translate(6.048 6.048)" fill="#fff"/>
    </g>
  </g>
</svg>
