<svg xmlns="http://www.w3.org/2000/svg" width="115" height="117" viewBox="0 0 115 117">
  <g id="Group_365" data-name="Group 365" transform="translate(-903 -2559)">
    <rect id="Rectangle_776" data-name="Rectangle 776" width="115" height="117" rx="16" transform="translate(903 2559)" fill="#ffebe0"/>
    <g id="Group_364" data-name="Group 364">
      <rect id="Rectangle_780" data-name="Rectangle 780" width="95" height="95" rx="12" transform="translate(913 2570)" fill="#ff5f00"/>
      <g id="_1170667" data-name="1170667" transform="translate(889.313 2597.856)">
        <rect id="Rectangle_373" data-name="Rectangle 373" width="8" height="14" rx="2" transform="translate(78.687 20.144)" fill="#fff"/>
        <rect id="Rectangle_374" data-name="Rectangle 374" width="8" height="22" rx="2" transform="translate(68.687 12.144)" fill="#fff"/>
        <rect id="Rectangle_375" data-name="Rectangle 375" width="8" height="18" rx="2" transform="translate(58.687 16.144)" fill="#fff"/>
      </g>
      <path id="Path_342" data-name="Path 342" d="M172.6,7.1h-.814V4.71a4.71,4.71,0,1,0-9.419,0V7.1h-.814A1.553,1.553,0,0,0,160,8.655v5.523a7.077,7.077,0,1,0,14.153,0V8.655A1.553,1.553,0,0,0,172.6,7.1ZM165.474,4.71a1.6,1.6,0,1,1,3.206,0V7.1h-3.206Z" transform="translate(807.835 2593)" fill="#fff"/>
    </g>
  </g>
</svg>
