<svg xmlns="http://www.w3.org/2000/svg" width="115" height="117" viewBox="0 0 115 117">
  <g id="Group_367" data-name="Group 367" transform="translate(-453 -2559)">
    <rect id="Rectangle_777" data-name="Rectangle 777" width="115" height="117" rx="16" transform="translate(453 2559)" fill="#ffebe0"/>
    <rect id="Rectangle_781" data-name="Rectangle 781" width="95" height="95" rx="12" transform="translate(463 2570)" fill="#ff5f00"/>
    <g id="Group_219" data-name="Group 219" transform="translate(2 1)">
      <g id="_2223548" data-name="2223548" transform="translate(505 2589)">
        <path id="Path_257" data-name="Path 257" d="M172.6,7.1h-.814V4.71a4.71,4.71,0,1,0-9.419,0V7.1h-.814A1.553,1.553,0,0,0,160,8.655v5.523a7.077,7.077,0,1,0,14.153,0V8.655A1.553,1.553,0,0,0,172.6,7.1ZM165.474,4.71a1.6,1.6,0,1,1,3.206,0V7.1h-3.206Z" transform="translate(-148.164)" fill="#fff"/>
      </g>
      <g id="_903561" data-name="903561" transform="translate(64.491 2210)">
        <g id="Group_218" data-name="Group 218" transform="translate(419.723 395.89)">
          <g id="Group_217" data-name="Group 217" transform="translate(7.509)">
            <path id="Path_346" data-name="Path 346" d="M29.595,0H10.311a2.8,2.8,0,0,0-2.8,2.8V29.076a2.8,2.8,0,0,0,2.8,2.8H29.595a2.8,2.8,0,0,0,2.8-2.8V2.8A2.8,2.8,0,0,0,29.595,0ZM11.882,18.292a.934.934,0,0,1,.934-.934h8.806a.934.934,0,1,1,0,1.868H12.816A.934.934,0,0,1,11.882,18.292Zm12.939,9.19a3.139,3.139,0,1,1,3.2-3.138A3.169,3.169,0,0,1,24.821,27.482ZM27.091,15.2H12.816a.934.934,0,1,1,0-1.868H27.091a.934.934,0,1,1,0,1.868Zm0-4.029H12.816a.934.934,0,0,1,0-1.868H27.091a.934.934,0,1,1,0,1.868Zm0-4.029H12.816a.934.934,0,0,1,0-1.868H27.091a.934.934,0,1,1,0,1.868Z" transform="translate(-7.509 0)" fill="#fff"/>
          </g>
        </g>
      </g>
    </g>
  </g>
</svg>
