<svg xmlns="http://www.w3.org/2000/svg" width="115" height="117" viewBox="0 0 115 117">
  <g id="Group_366" data-name="Group 366" transform="translate(-679 -2559)">
    <rect id="Rectangle_775" data-name="Rectangle 775" width="115" height="117" rx="16" transform="translate(679 2559)" fill="#ffebe0"/>
    <rect id="Rectangle_779" data-name="Rectangle 779" width="95" height="95" rx="12" transform="translate(689 2570)" fill="#ff5f00"/>
    <g id="Group_210" data-name="Group 210">
      <g id="_1007963" data-name="1007963" transform="translate(686.943 2604.158)">
        <g id="Group_140" data-name="Group 140" transform="translate(33.057)">
          <g id="Group_139" data-name="Group 139" transform="translate(0)">
            <path id="Path_143" data-name="Path 143" d="M279.29.847A1.7,1.7,0,0,0,277.822,0h-6.306V7.459h11.6Z" transform="translate(-257.471)" fill="#fff"/>
            <path id="Path_144" data-name="Path 144" d="M55.446,0H49.08a1.7,1.7,0,0,0-1.469.849L43.8,7.459H55.446V0Z" transform="translate(-43.168)" fill="#fff"/>
            <path id="Path_145" data-name="Path 145" d="M33.057,156.648V175.5a2.081,2.081,0,0,0,2.079,2.078H57.241A2.081,2.081,0,0,0,59.32,175.5V156.648ZM50.2,164.576l-4.571,4.571a.883.883,0,0,1-1.25,0L42.236,167a.884.884,0,1,1,1.25-1.25L45,167.273l3.947-3.947a.884.884,0,1,1,1.25,1.25Z" transform="translate(-33.057 -147.421)" fill="#fff"/>
          </g>
        </g>
      </g>
      <path id="Path_341" data-name="Path 341" d="M172.6,7.1h-.814V4.71a4.71,4.71,0,1,0-9.419,0V7.1h-.814A1.553,1.553,0,0,0,160,8.655v5.523a7.077,7.077,0,1,0,14.153,0V8.655A1.553,1.553,0,0,0,172.6,7.1ZM165.474,4.71a1.6,1.6,0,1,1,3.206,0V7.1h-3.206Z" transform="translate(585.835 2590)" fill="#fff"/>
    </g>
  </g>
</svg>
