<svg xmlns="http://www.w3.org/2000/svg" width="72" height="71" viewBox="0 0 72 71">
  <g id="Group_344" data-name="Group 344" transform="translate(-1416 -975)">
    <rect id="Rectangle_670" data-name="Rectangle 670" width="72" height="71" rx="12" transform="translate(1416 975)" fill="#ffefe5"/>
    <g id="_63109" data-name="63109" transform="translate(1440.298 994.574)">
      <g id="Group_181" data-name="Group 181" transform="translate(0 1.426)">
        <path id="Path_279" data-name="Path 279" d="M20.876,1.426H1.644a1.644,1.644,0,0,0,0,3.288l3.484,0a.921.921,0,0,1,0,1.841H2.211V13.54H1.644a1.644,1.644,0,1,0,0,3.288l3.484,0a.921.921,0,1,1,0,1.841H2.211v6.98H1.644a1.644,1.644,0,1,0,0,3.288h14.48a7.989,7.989,0,0,1-2.945-6.2c0-1.842,1.145-4.282,3.5-7.461a51.187,51.187,0,0,1,3.3-3.991l.331-.355V4.714h.567a1.644,1.644,0,1,0,0-3.288Z" transform="translate(0 -1.426)" fill="#ff5f00"/>
        <path id="Path_280" data-name="Path 280" d="M243.172,180.682c-1.439-1.942-2.9-3.512-2.914-3.528a.394.394,0,0,0-.576,0c-.015.016-1.475,1.586-2.914,3.528-1.966,2.652-2.963,4.711-2.963,6.119a6.165,6.165,0,1,0,12.33,0C246.136,185.393,245.139,183.334,243.172,180.682Zm-2.586,10.289a4.3,4.3,0,0,1-5.293-4.187,4.462,4.462,0,0,1,.58-1.885.223.223,0,0,1,.421.125,2.222,2.222,0,0,0-.017.26,5.371,5.371,0,0,0,4.3,5.252.223.223,0,0,1,.008.435Z" transform="translate(-218.433 -165.483)" fill="#ff5f00"/>
      </g>
    </g>
  </g>
</svg>
