<svg xmlns="http://www.w3.org/2000/svg" width="72" height="71" viewBox="0 0 72 71">
  <g id="Group_392" data-name="Group 392" transform="translate(-548 -2708)">
    <rect id="Rectangle_1440" data-name="Rectangle 1440" width="72" height="71" rx="12" transform="translate(548 2708)" fill="#ffefe5"/>
    <g id="Group_283" data-name="Group 283" transform="translate(507 2722.63)">
      <path id="Path_579" data-name="Path 579" d="M66.937,114.725a2.611,2.611,0,0,0-2.611-2.612H61.611A2.611,2.611,0,0,0,59,114.725v10.122a2.611,2.611,0,0,0,2.611,2.611h2.714a2.611,2.611,0,0,0,2.611-2.611Z" transform="translate(0 -87.967)" fill="#ff5f00"/>
      <path id="Path_580" data-name="Path 580" d="M124.937,79.724a2.611,2.611,0,0,0-2.611-2.611h-2.714A2.611,2.611,0,0,0,117,79.724V96.791a2.611,2.611,0,0,0,2.611,2.611h2.714a2.611,2.611,0,0,0,2.611-2.611Z" transform="translate(-46.491 -59.912)" fill="#ff5f00"/>
      <path id="Path_581" data-name="Path 581" d="M173.643,9.788l-5.091-6.531a2.1,2.1,0,0,0-3.43,0l-5.091,6.531a1.581,1.581,0,0,0-.294,1.687,1.847,1.847,0,0,0,1.749.891l1.372,0V36.953a2.553,2.553,0,0,0,2.613,2.537H168.2a2.535,2.535,0,0,0,2.592-2.537V12.347l1.381.019a1.858,1.858,0,0,0,1.756-.891A1.579,1.579,0,0,0,173.643,9.788Z" transform="translate(-80.642)" fill="#ff5f00"/>
    </g>
  </g>
</svg>
