<svg xmlns="http://www.w3.org/2000/svg" width="72" height="71" viewBox="0 0 72 71">
  <g id="Group_346" data-name="Group 346" transform="translate(-852 -975)">
    <rect id="Rectangle_671" data-name="Rectangle 671" width="72" height="71" rx="12" transform="translate(852 975)" fill="#ffefe5"/>
    <path id="_3533292" data-name="3533292" d="M34.167,24.416l-6.315-2.429a7.584,7.584,0,0,0-1.284-6.033l6.6-6.6a5.043,5.043,0,1,0-1.7-1.7l-6.6,6.6a7.586,7.586,0,0,0-9.4.381l-3.359-2.855a5.043,5.043,0,1,0-1.556,1.829l3.358,2.854a7.586,7.586,0,0,0,.341,8.406L9.864,29.263a6.323,6.323,0,1,0,1.7,1.7l4.392-4.392A7.583,7.583,0,0,0,22.233,27.8l2.73,6.453a3.76,3.76,0,1,0,2.211-.937l-2.73-6.454a7.662,7.662,0,0,0,2.545-2.63l6.316,2.43a3.762,3.762,0,1,0,.863-2.241Z" transform="translate(866.769 990)" fill="#ff5f00"/>
  </g>
</svg>
