<svg xmlns="http://www.w3.org/2000/svg" width="72" height="71" viewBox="0 0 72 71">
  <g id="Group_400" data-name="Group 400" transform="translate(-709 -2960)">
    <rect id="Rectangle_460" data-name="Rectangle 460" width="72" height="71" rx="12" transform="translate(709 2960)" fill="#ffefe5"/>
    <g id="_61483" data-name="61483" transform="translate(725.445 2954.621)">
      <g id="Group_209" data-name="Group 209" transform="translate(0 22.379)">
        <path id="Path_327" data-name="Path 327" d="M11.394,123.464a24.424,24.424,0,0,0,3.175-.2V112.213a24.44,24.44,0,0,0-3.175-.2C5.1,112.009,0,114.322,0,117.176V118.3C0,121.151,5.1,123.464,11.394,123.464Z" transform="translate(-0.001 -103.257)" fill="#ff5f00"/>
        <path id="Path_328" data-name="Path 328" d="M11.394,220.52a24.457,24.457,0,0,0,3.175-.2v-3.238a24.436,24.436,0,0,1-3.175.2c-5.492,0-10.076-1.763-11.153-4.109A2.52,2.52,0,0,0,0,214.232v1.121C0,218.207,5.1,220.52,11.394,220.52Z" transform="translate(-0.001 -194.545)" fill="#ff5f00"/>
        <path id="Path_329" data-name="Path 329" d="M14.568,276.414v-.252a24.439,24.439,0,0,1-3.175.2C5.9,276.367,1.316,274.6.24,272.258A2.52,2.52,0,0,0,0,273.316v1.121c0,2.854,5.1,5.167,11.393,5.167a24.2,24.2,0,0,0,3.6-.264,4.076,4.076,0,0,1-.425-1.806Z" transform="translate(0 -247.86)" fill="#ff5f00"/>
        <path id="Path_330" data-name="Path 330" d="M179.632,22.379c-6.292,0-11.393,2.313-11.393,5.167v1.121c0,2.854,5.1,5.167,11.393,5.167s11.393-2.313,11.393-5.167V27.546C191.025,24.692,185.924,22.379,179.632,22.379Z" transform="translate(-151.812 -22.379)" fill="#ff5f00"/>
        <path id="Path_331" data-name="Path 331" d="M179.632,127.653c-5.492,0-10.076-1.763-11.153-4.109a2.519,2.519,0,0,0-.24,1.058v1.121c0,2.854,5.1,5.167,11.393,5.167s11.393-2.313,11.393-5.167V124.6a2.519,2.519,0,0,0-.24-1.058C189.708,125.89,185.124,127.653,179.632,127.653Z" transform="translate(-151.812 -113.666)" fill="#ff5f00"/>
        <path id="Path_332" data-name="Path 332" d="M179.632,186.737c-5.492,0-10.076-1.763-11.153-4.109a2.519,2.519,0,0,0-.24,1.058v1.121c0,2.854,5.1,5.167,11.393,5.167s11.393-2.313,11.393-5.167v-1.121a2.519,2.519,0,0,0-.24-1.058C189.708,184.974,185.124,186.737,179.632,186.737Z" transform="translate(-151.812 -166.981)" fill="#ff5f00"/>
        <path id="Path_333" data-name="Path 333" d="M179.632,249.01c-5.492,0-10.076-1.763-11.153-4.109a2.52,2.52,0,0,0-.24,1.058v1.121c0,2.854,5.1,5.167,11.393,5.167s11.393-2.313,11.393-5.167v-1.121a2.519,2.519,0,0,0-.24-1.058C189.708,247.247,185.124,249.01,179.632,249.01Z" transform="translate(-151.812 -223.174)" fill="#ff5f00"/>
        <path id="Path_334" data-name="Path 334" d="M179.632,308.093c-5.492,0-10.076-1.763-11.153-4.109a2.52,2.52,0,0,0-.24,1.058v1.121c0,2.854,5.1,5.167,11.393,5.167s11.393-2.313,11.393-5.167v-1.121a2.519,2.519,0,0,0-.24-1.058C189.708,306.33,185.124,308.093,179.632,308.093Z" transform="translate(-151.812 -276.488)" fill="#ff5f00"/>
      </g>
    </g>
  </g>
</svg>
