<svg xmlns="http://www.w3.org/2000/svg" width="72" height="71" viewBox="0 0 72 71">
  <g id="Group_379" data-name="Group 379" transform="translate(-1394 -1492)">
    <rect id="Rectangle_889" data-name="Rectangle 889" width="72" height="71" rx="12" transform="translate(1394 1492)" fill="#ffefe5"/>
    <g id="_3518691" data-name="3518691" transform="translate(1411.491 1504.4)">
      <path id="Path_418" data-name="Path 418" d="M6.636,30.217a1.969,1.969,0,0,1,.644-.72c.114-.076.19-.114.3-.19L6.75,33.059a2.741,2.741,0,0,0,2.122,3.26L6.94,45.15l3.525-.985,1.554-7.315,1.9.3.872,3.676.19-.227a3.175,3.175,0,0,1,1.44-.985l1.327-.417-.72-3.108a2.706,2.706,0,0,0-2.236-2.085l-2.047-.341L13.5,30.1c.076.114.152.19.227.3a3.321,3.321,0,0,0,2.312,1.4l2.843.379a1.7,1.7,0,0,0,.872-.152,1.445,1.445,0,0,0,.72-1.061,1.407,1.407,0,0,0-1.213-1.592L16.415,29a.645.645,0,0,1-.379-.227C13.61,25.327,13.118,25.138,12.4,25.1l-2.312-.114c-.455-.038-.872-.038-4.321,2.047a4.39,4.39,0,0,0-1.706,1.819l-1.4,2.956a1.437,1.437,0,0,0,.606,1.9,1.426,1.426,0,0,0,1.9-.606Z" transform="translate(0 -12.033)" fill="#ff5f00"/>
      <circle id="Ellipse_19" data-name="Ellipse 19" cx="3.108" cy="3.108" r="3.108" transform="matrix(0.097, -0.995, 0.995, 0.097, 8.367, 12.042)" fill="#ff5f00"/>
      <path id="Path_419" data-name="Path 419" d="M42.6,37.475l-2.881-8.831a1.346,1.346,0,0,0-.152-.341l-5.117-7.732a.978.978,0,0,0-.341-.341V6.434a.834.834,0,1,0-1.668,0v.455H27.329a.777.777,0,0,0-.8.8v4.169a.777.777,0,0,0,.8.8h5.155v7.618a.885.885,0,0,0-.265.265l-4.662,6.405a1.376,1.376,0,0,1-.72.493l-5.761,1.781a1.363,1.363,0,0,0-.682.455l-2.388,2.994a1.363,1.363,0,0,1-.682.455L11.07,34.86a1.5,1.5,0,0,0-.872.72l-.834,1.743a1.367,1.367,0,0,0,1.213,1.971H41.315A1.4,1.4,0,0,0,42.6,37.475Z" transform="translate(-4.168)" fill="#ff5f00"/>
    </g>
  </g>
</svg>
