<svg xmlns="http://www.w3.org/2000/svg" width="80" height="78" viewBox="0 0 80 78">
  <g id="Group_353" data-name="Group 353" transform="translate(-704 -2733)">
    <rect id="Rectangle_1092" data-name="Rectangle 1092" width="80" height="78" rx="12" transform="translate(704 2733)" fill="#ffefe5"/>
    <path id="Path_503" data-name="Path 503" d="M3889.464,1027.078h-16.643a6.335,6.335,0,0,0-6.316,6.316v16.643a6.335,6.335,0,0,0,6.316,6.316h16.643a6.335,6.335,0,0,0,6.316-6.316v-16.643A6.335,6.335,0,0,0,3889.464,1027.078Zm-10.05,7.756a.519.519,0,0,1,.518-.517h2.423a.519.519,0,0,1,.518.517v2.423a.519.519,0,0,1-.518.517h-2.423a.519.519,0,0,1-.518-.517Zm3.458,14.087a.519.519,0,0,1-.518.517h-2.423a.519.519,0,0,1-.518-.517V1046.5a.519.519,0,0,1,.518-.517h2.423a.519.519,0,0,1,.518.517Zm6.066-6.372a.752.752,0,0,1-.751.752H3874.1a.751.751,0,0,1-.751-.752v-1.342a.752.752,0,0,1,.751-.752h14.088a.752.752,0,0,1,.751.752Z" transform="translate(-3136.771 1729.922)" fill="#ff5f00"/>
  </g>
</svg>
