<svg xmlns="http://www.w3.org/2000/svg" width="72" height="71" viewBox="0 0 72 71">
  <g id="Group_394" data-name="Group 394" transform="translate(-1146 -2368)">
    <rect id="Rectangle_1484" data-name="Rectangle 1484" width="72" height="71" rx="12" transform="translate(1146 2368)" fill="#ffefe5"/>
    <g id="Group_311" data-name="Group 311" transform="translate(701.72 -357.096)">
      <path id="Path_589" data-name="Path 589" d="M68.7,297.882a14.825,14.825,0,1,0-29.65,0,14.444,14.444,0,0,0,2.547,8.249h0v.051h0L53.856,324.62,66.2,306.131h-.025A14.649,14.649,0,0,0,68.7,297.882Zm-14.84,8.249a8.251,8.251,0,1,1,8.249-8.249A8.26,8.26,0,0,1,53.856,306.131Z" transform="translate(426.234 2456.827)" fill="#ff5f00"/>
    </g>
  </g>
</svg>
