<svg xmlns="http://www.w3.org/2000/svg" width="72" height="71" viewBox="0 0 72 71">
  <g id="Group_404" data-name="Group 404" transform="translate(-983 -3113)">
    <rect id="Rectangle_466" data-name="Rectangle 466" width="72" height="71" rx="12" transform="translate(983 3113)" fill="#ffefe5"/>
    <g id="_3064889" data-name="3064889" transform="translate(998.76 3130.346)">
      <path id="Path_45" data-name="Path 45" d="M34.208,0C27.271-.125,19.359,3.633,14.351,9.463A18.475,18.475,0,0,0,1.474,15.145a.788.788,0,0,0-.184.786.749.749,0,0,0,.6.52L7.6,17.3l-.7.818a.787.787,0,0,0,.03,1.054l9.517,9.862a.723.723,0,0,0,1.017.029l.789-.73.817,5.914a.754.754,0,0,0,.524.592.659.659,0,0,0,.212.034.822.822,0,0,0,.573-.247,19.785,19.785,0,0,0,5.436-13.295c5.631-5.2,9.288-13.4,9.126-20.576A.758.758,0,0,0,34.208,0ZM27.385,13.25a3.616,3.616,0,0,1-5.236,0,3.943,3.943,0,0,1,0-5.426,3.615,3.615,0,0,1,5.236,0A3.94,3.94,0,0,1,27.385,13.25Z" transform="translate(0.603 -0.001)" fill="#ff5f00"/>
      <path id="Path_46" data-name="Path 46" d="M4.034,17.388c-1.584,1.642-3.76,9.06-4,9.9a.789.789,0,0,0,.185.763.726.726,0,0,0,.524.226.734.734,0,0,0,.213-.032c.81-.252,7.968-2.506,9.553-4.148a4.871,4.871,0,0,0,0-6.707,4.471,4.471,0,0,0-6.473,0Z" transform="translate(0 8.551)" fill="#ff5f00"/>
    </g>
  </g>
</svg>
