<svg xmlns="http://www.w3.org/2000/svg" width="72" height="71" viewBox="0 0 72 71">
  <g id="Group_396" data-name="Group 396" transform="translate(-705 -2368)">
    <rect id="Rectangle_1486" data-name="Rectangle 1486" width="72" height="71" rx="12" transform="translate(705 2368)" fill="#ffefe5"/>
    <g id="_2560373" data-name="2560373" transform="translate(728 2385.522)">
      <g id="Group_239" data-name="Group 239" transform="translate(0 0)">
        <path id="Path_414" data-name="Path 414" d="M183.227,84.976l-1.879,3.807-4.2.61,3.04,2.963-.718,4.184,3.758-1.975,3.758,1.975-.718-4.184,3.04-2.963-4.2-.61Z" transform="translate(-170.419 -78.424)" fill="#ff5f00"/>
        <path id="Path_415" data-name="Path 415" d="M102.693,0A12.808,12.808,0,1,0,115.5,12.808,12.808,12.808,0,0,0,102.693,0Zm7.8,12.526-2.271,2.214.536,3.126A2.24,2.24,0,0,1,105.5,20.23l-2.807-1.476L99.886,20.23a2.243,2.243,0,0,1-3.254-2.364l.536-3.126L94.9,12.526A2.243,2.243,0,0,1,96.14,8.7l3.138-.456,1.4-2.844a2.243,2.243,0,0,1,4.023,0l1.4,2.844,3.138.456a2.243,2.243,0,0,1,1.243,3.826Z" transform="translate(-89.885 0)" fill="#ff5f00"/>
        <g id="Group_238" data-name="Group 238" transform="translate(13.884 25.567)">
          <path id="Path_416" data-name="Path 416" d="M274.769,332.766a14.988,14.988,0,0,1-4.81,1.151L272.8,345.5l3.172-3.2,4.01,1.442L277,331.593A15.1,15.1,0,0,1,274.769,332.766Z" transform="translate(-269.959 -331.593)" fill="#ff5f00"/>
        </g>
      </g>
      <g id="Group_240" data-name="Group 240" transform="translate(1.713 25.569)">
        <path id="Path_417" data-name="Path 417" d="M117.3,332.786a15.109,15.109,0,0,1-2.231-1.171l-2.978,12.148,4.01-1.442,3.172,3.2,2.84-11.586A14.992,14.992,0,0,1,117.3,332.786Z" transform="translate(-112.093 -331.615)" fill="#ff5f00"/>
      </g>
    </g>
  </g>
</svg>
