<svg xmlns="http://www.w3.org/2000/svg" width="72" height="71" viewBox="0 0 72 71">
  <g id="Group_395" data-name="Group 395" transform="translate(-925 -2368)">
    <rect id="Rectangle_1485" data-name="Rectangle 1485" width="72" height="71" rx="12" transform="translate(925 2368)" fill="#ffefe5"/>
    <g id="_3050729" data-name="3050729" transform="translate(943 2385.522)">
      <path id="Path_449" data-name="Path 449" d="M433.8,324.385h-1.27v-2.327a1.058,1.058,0,0,0-2.116,0v2.327H429v10.085h4.8a1.058,1.058,0,0,0,1.058-1.058v-7.97A1.058,1.058,0,0,0,433.8,324.385Z" transform="translate(-398.744 -298.361)" fill="#ff5f00"/>
      <path id="Path_450" data-name="Path 450" d="M5.854,324.385H4.443v-2.327a1.058,1.058,0,0,0-2.116,0v2.327H1.058A1.058,1.058,0,0,0,0,325.443v7.97a1.058,1.058,0,0,0,1.058,1.058h4.8Z" transform="translate(0 -298.361)" fill="#ff5f00"/>
      <path id="Path_451" data-name="Path 451" d="M113,36.11h5.078V30.468a1.058,1.058,0,0,1,1.058-1.058h7.9a1.058,1.058,0,0,1,1.058,1.058V36.11h5.078V1.058A1.058,1.058,0,0,0,132.113,0H114.058A1.058,1.058,0,0,0,113,1.058Zm7.264-11.355h-1.128a1.058,1.058,0,1,1,0-2.116h1.128a1.058,1.058,0,1,1,0,2.116Zm0-4.514h-1.128a1.058,1.058,0,1,1,0-2.116h1.128a1.058,1.058,0,1,1,0,2.116Zm0-4.514h-1.128a1.058,1.058,0,1,1,0-2.116h1.128a1.058,1.058,0,1,1,0,2.116Zm0-4.514h-1.128a1.058,1.058,0,1,1,0-2.116h1.128a1.058,1.058,0,1,1,0,2.116Zm6.771,13.541h-1.128a1.058,1.058,0,0,1,0-2.116h1.128a1.058,1.058,0,1,1,0,2.116Zm0-4.514h-1.128a1.058,1.058,0,0,1,0-2.116h1.128a1.058,1.058,0,1,1,0,2.116Zm0-4.514h-1.128a1.058,1.058,0,0,1,0-2.116h1.128a1.058,1.058,0,1,1,0,2.116Zm0-4.514h-1.128a1.058,1.058,0,0,1,0-2.116h1.128a1.058,1.058,0,1,1,0,2.116Zm-8.463-6.63H127.6a1.058,1.058,0,1,1,0,2.116h-9.027a1.058,1.058,0,1,1,0-2.116Z" transform="translate(-105.03 0)" fill="#ff5f00"/>
      <path id="Path_452" data-name="Path 452" d="M215,451.584h5.783V447H215Z" transform="translate(-199.837 -415.475)" fill="#ff5f00"/>
    </g>
  </g>
</svg>
