<svg xmlns="http://www.w3.org/2000/svg" width="72" height="71" viewBox="0 0 72 71">
  <g id="Group_390" data-name="Group 390" transform="translate(-808 -2562)">
    <rect id="Rectangle_1446" data-name="Rectangle 1446" width="72" height="71" rx="12" transform="translate(808 2562)" fill="#ffefe5"/>
    <g id="_2664272" data-name="2664272" transform="translate(796.033 2573.588)">
      <path id="Path_582" data-name="Path 582" d="M62.487,37.068a8.02,8.02,0,0,1-6.172-3.144,10.352,10.352,0,0,0-6.857-3.714v-11.6h2.307A4.62,4.62,0,0,0,56.379,14V11.69H54.072A4.62,4.62,0,0,0,49.457,16.3V6.921a4.619,4.619,0,0,1,4.614-4.614V0A6.929,6.929,0,0,0,47.15,6.921V9.382a4.62,4.62,0,0,0-4.614-4.614H40.229V7.075a4.62,4.62,0,0,0,4.614,4.614H47.15V23.225a4.62,4.62,0,0,0-4.614-4.614H40.229v2.307a4.62,4.62,0,0,0,4.614,4.614H47.15v4.678a10.352,10.352,0,0,0-6.857,3.714,8.02,8.02,0,0,1-6.172,3.144H31v2.307H65.607V37.068Z" fill="#ff5f00"/>
    </g>
  </g>
</svg>
