<svg xmlns="http://www.w3.org/2000/svg" width="72" height="71" viewBox="0 0 72 71">
  <g id="Group_345" data-name="Group 345" transform="translate(-1133 -975)">
    <rect id="Rectangle_672" data-name="Rectangle 672" width="72" height="71" rx="12" transform="translate(1133 975)" fill="#ffefe5"/>
    <g id="_62989" data-name="62989" transform="translate(1126.694 992)">
      <g id="Group_186" data-name="Group 186" transform="translate(26.306 0)">
        <path id="Path_286" data-name="Path 286" d="M57.168,112.685H27.059a.753.753,0,0,0-.753.753v3.635a.753.753,0,0,0,.753.753h.78l2.317,12.419a4.817,4.817,0,1,0,7.307,4.123c0-.136-.007-.271-.018-.4h9.338c-.011.134-.018.268-.018.4a4.817,4.817,0,1,0,7.307-4.123l2.317-12.419h.78a.753.753,0,0,0,.753-.753v-3.635A.753.753,0,0,0,57.168,112.685ZM32.645,136.173a1.807,1.807,0,1,1,1.807-1.807A1.809,1.809,0,0,1,32.645,136.173Zm18.936,0a1.807,1.807,0,1,1,1.807-1.807A1.809,1.809,0,0,1,51.581,136.173Z" transform="translate(-26.306 -103.09)" fill="#ff5f00"/>
        <path id="Path_287" data-name="Path 287" d="M85.3,4.238a.2.2,0,0,0-.07-.076L83.418,3.025a.2.2,0,0,0-.255.035l-.4.446-.4-1.355a.2.2,0,0,0-.071-.1L80,.317a.2.2,0,0,0-.2-.025l-2.1.9-2.389.387L73.246.572,73.22.562,71.514.01a.2.2,0,0,0-.181.03l-1.5,1.112L67.9,1.087a.2.2,0,0,0-.122.036L65.667,2.6a.2.2,0,0,0-.086.165v.658L64.2,4.562l-.016.014L61.356,7.5l25.679.012Z" transform="translate(-58.372 0)" fill="#ff5f00"/>
      </g>
    </g>
  </g>
</svg>
