<svg xmlns="http://www.w3.org/2000/svg" width="72" height="71" viewBox="0 0 72 71">
  <g id="Group_398" data-name="Group 398" transform="translate(-1531 -2961)">
    <rect id="Rectangle_457" data-name="Rectangle 457" width="72" height="71" rx="12" transform="translate(1531 2961)" fill="#ffefe5"/>
    <g id="_3815015" data-name="3815015" transform="translate(1541.305 2903.479)">
      <path id="Path_198" data-name="Path 198" d="M146.54,262.694H144v-2.538a1.756,1.756,0,1,0-3.512,0v2.538h-2.538a1.756,1.756,0,0,0-1.756,1.756v8.588a1.756,1.756,0,0,0,1.756,1.756h2.538v2.681a1.756,1.756,0,0,0,3.512,0v-2.681h2.538a1.756,1.756,0,0,0,1.756-1.756V264.45A1.756,1.756,0,0,0,146.54,262.694Z" transform="translate(-133.041 -178.208)" fill="#ff5f00"/>
      <path id="Path_199" data-name="Path 199" d="M282.738,189.332H280.2v-2.538a1.756,1.756,0,1,0-3.512,0v2.538H274.15a1.756,1.756,0,0,0-1.756,1.756v8.588a1.756,1.756,0,0,0,1.756,1.756h2.538V212.7a1.756,1.756,0,1,0,3.512,0v-11.27h2.538a1.756,1.756,0,0,0,1.756-1.756v-8.588A1.756,1.756,0,0,0,282.738,189.332Z" transform="translate(-253.294 -98.619)" fill="#ff5f00"/>
      <path id="Path_200" data-name="Path 200" d="M418.936,79.9H416.4V77.364a1.756,1.756,0,0,0-3.512,0V79.9h-2.538a1.756,1.756,0,0,0-1.756,1.756V94.469a1.756,1.756,0,0,0,1.756,1.756h2.538V103.2a1.756,1.756,0,0,0,3.512,0V96.225h2.538a1.756,1.756,0,0,0,1.756-1.756V81.658A1.756,1.756,0,0,0,418.936,79.9Z" transform="translate(-373.548 -2)" fill="#ff5f00"/>
    </g>
  </g>
</svg>
