<svg xmlns="http://www.w3.org/2000/svg" width="72" height="71" viewBox="0 0 72 71">
  <g id="Group_386" data-name="Group 386" transform="translate(-994 -2123)">
    <rect id="Rectangle_895" data-name="Rectangle 895" width="72" height="71" rx="12" transform="translate(994 2123)" fill="#ffefe5"/>
    <g id="_490970" data-name="490970" transform="translate(1012 2137.999)">
      <g id="Group_208" data-name="Group 208" transform="translate(0 0.001)">
        <path id="Path_326" data-name="Path 326" d="M19.244,2.185V1.066a1.065,1.065,0,0,0-2.13,0V2.185A18.177,18.177,0,0,0,0,20.24a1.065,1.065,0,1,0,2.13,0c0-.265,1.134-1.065,3.2-1.065s3.267.8,3.267,1.065a1.065,1.065,0,1,0,2.13,0c0-.265,1.134-1.065,3.2-1.065s3.2.8,3.2,1.065V32.1a4.261,4.261,0,0,0,8.521,0,1.065,1.065,0,0,0-2.13,0,2.13,2.13,0,1,1-4.261,0V20.24c0-.265,1.134-1.065,3.2-1.065,1.864,0,2.92.637,3.115.958,0,.006,0,.012,0,.018a1.066,1.066,0,0,0,.979,1.145c.028,0,.056,0,.084,0,.009,0,.017,0,.027-.005s.036.011.056.011a1.065,1.065,0,0,0,1.065-1.065c0-.265,1.134-1.065,3.2-1.065s3.267.8,3.267,1.065a1.065,1.065,0,1,0,2.13,0A18.177,18.177,0,0,0,19.244,2.185Z" transform="translate(0 -0.001)" fill="#ff5f00"/>
      </g>
    </g>
  </g>
</svg>
