<svg xmlns="http://www.w3.org/2000/svg" width="72" height="71" viewBox="0 0 72 71">
  <g id="Group_372" data-name="Group 372" transform="translate(-854 -3195)">
    <rect id="Rectangle_462" data-name="Rectangle 462" width="72" height="71" rx="14" transform="translate(854 3195)" fill="#ffefe5"/>
    <g id="_617396" data-name=" 617396" transform="translate(602.047 2725.003)">
      <g id="Group_159" data-name="Group 159" transform="translate(271.953 488.997)">
        <g id="Group_158" data-name="Group 158">
          <path id="Path_215" data-name="Path 215" d="M294.333,488a13.992,13.992,0,0,0-11.213,22.387l-6.453,6.454a2.436,2.436,0,0,0,0,3.446h0a2.437,2.437,0,0,0,3.446,0l6.554-6.554A14.013,14.013,0,1,0,294.333,488Zm0,24.367a10.357,10.357,0,1,1,10.356-10.356h0A10.368,10.368,0,0,1,294.333,512.364Z" transform="translate(-275.953 -487.997)" fill="#ff5f00"/>
        </g>
      </g>
    </g>
  </g>
</svg>
