<svg xmlns="http://www.w3.org/2000/svg" width="72" height="71" viewBox="0 0 72 71">
  <g id="Group_401" data-name="Group 401" transform="translate(-437 -2960)">
    <rect id="Rectangle_461" data-name="Rectangle 461" width="72" height="71" rx="12" transform="translate(437 2960)" fill="#ffefe5"/>
    <g id="_1940611" data-name="1940611" transform="translate(450 2937.879)">
      <path id="Path_296" data-name="Path 296" d="M45.1,50.184,23.448,42.545a1.347,1.347,0,0,0-.9,0L.9,50.184a1.348,1.348,0,0,0,0,2.541l21.652,7.7a1.347,1.347,0,0,0,.9,0l21.652-7.7a1.348,1.348,0,0,0,0-2.541Z" transform="translate(0 0)" fill="#ff5f00"/>
      <path id="Path_297" data-name="Path 297" d="M434.9,209.489V197.734l-2.7.958v10.8a2.706,2.706,0,0,0,0,4.694v6.623a1.348,1.348,0,0,0,2.7,0v-6.623a2.706,2.706,0,0,0,0-4.694Z" transform="translate(-392.139 -141.316)" fill="#ff5f00"/>
      <path id="Path_298" data-name="Path 298" d="M118.971,226.973a4.033,4.033,0,0,1-1.354-.234l-12.172-4.327v5.93c0,1.451,1.514,2.678,4.5,3.647a31.77,31.77,0,0,0,18.056,0c2.985-.969,4.5-2.2,4.5-3.647v-5.93l-12.172,4.327A4.034,4.034,0,0,1,118.971,226.973Z" transform="translate(-95.971 -163.777)" fill="#ff5f00"/>
    </g>
  </g>
</svg>
