<svg xmlns="http://www.w3.org/2000/svg" width="72" height="71" viewBox="0 0 72 71">
  <g id="Group_403" data-name="Group 403" transform="translate(-1260 -3113)">
    <rect id="Rectangle_464" data-name="Rectangle 464" width="72" height="71" rx="12" transform="translate(1260 3113)" fill="#ffefe5"/>
    <g id="_879865" data-name="879865" transform="translate(1276.946 3134.715)">
      <g id="Group_52" data-name="Group 52" transform="translate(0 0)">
        <g id="Group_51" data-name="Group 51">
          <path id="Path_41" data-name="Path 41" d="M36.437,73.846H2.63A2.681,2.681,0,0,0,0,76.571V79.3H39.067V76.571A2.681,2.681,0,0,0,36.437,73.846Z" transform="translate(0 -73.846)" fill="#ff5f00"/>
        </g>
      </g>
      <g id="Group_54" data-name="Group 54" transform="translate(0 7.785)">
        <g id="Group_53" data-name="Group 53">
          <rect id="Rectangle_142" data-name="Rectangle 142" width="39.067" height="3.893" fill="#ff5f00"/>
        </g>
      </g>
      <g id="Group_56" data-name="Group 56" transform="translate(0 14.013)">
        <g id="Group_55" data-name="Group 55" transform="translate(0 0)">
          <path id="Path_42" data-name="Path 42" d="M0,251.077v12.067a2.681,2.681,0,0,0,2.63,2.725H36.437a2.681,2.681,0,0,0,2.63-2.725V251.077Zm33.056,9.342h-6.01a1.169,1.169,0,0,1,0-2.336h6.01a1.169,1.169,0,0,1,0,2.336Z" transform="translate(0 -251.077)" fill="#ff5f00"/>
        </g>
      </g>
    </g>
  </g>
</svg>
