<svg xmlns="http://www.w3.org/2000/svg" width="72" height="71" viewBox="0 0 72 71">
  <g id="Group_402" data-name="Group 402" transform="translate(-1531 -3115)">
    <rect id="Rectangle_1475" data-name="Rectangle 1475" width="72" height="71" rx="12" transform="translate(1531 3115)" fill="#ffefe5"/>
    <g id="_879859" data-name="879859" transform="translate(1536.796 3129.358)">
      <g id="Group_153" data-name="Group 153" transform="translate(10.359 -0.002)">
        <g id="Group_152" data-name="Group 152" transform="translate(0 0)">
          <path id="Path_212" data-name="Path 212" d="M49.663,22.074a1.261,1.261,0,0,1,0-1.115l1.605-3.284a3.736,3.736,0,0,0-1.612-4.961L46.427,11a1.261,1.261,0,0,1-.655-.9l-.631-3.6a3.736,3.736,0,0,0-4.22-3.066L37.3,3.945a1.261,1.261,0,0,1-1.06-.345L33.615,1.059a3.736,3.736,0,0,0-5.216,0L25.771,3.6a1.262,1.262,0,0,1-1.06.345l-3.619-.512A3.736,3.736,0,0,0,16.872,6.5l-.631,3.6a1.261,1.261,0,0,1-.655.9l-3.229,1.713a3.736,3.736,0,0,0-1.612,4.961l1.605,3.283a1.261,1.261,0,0,1,0,1.115l-1.605,3.283a3.736,3.736,0,0,0,1.612,4.961l3.229,1.713a1.261,1.261,0,0,1,.655.9l.631,3.6a3.734,3.734,0,0,0,3.683,3.1,3.838,3.838,0,0,0,.537-.038l3.619-.512a1.261,1.261,0,0,1,1.06.345L28.4,41.973a3.736,3.736,0,0,0,5.216,0l2.627-2.541a1.262,1.262,0,0,1,1.06-.345l3.619.512a3.736,3.736,0,0,0,4.22-3.066l.631-3.6a1.261,1.261,0,0,1,.655-.9l3.229-1.713a3.736,3.736,0,0,0,1.612-4.961ZM26.042,10.347A4.551,4.551,0,1,1,21.491,14.9,4.556,4.556,0,0,1,26.042,10.347ZM23.693,30.584a1.241,1.241,0,1,1-1.755-1.755L38.319,12.448A1.241,1.241,0,1,1,40.074,14.2Zm12.277,2.1a4.551,4.551,0,1,1,4.551-4.551A4.556,4.556,0,0,1,35.97,32.686Z" transform="translate(-10.359 0.002)" fill="#ff5f00"/>
        </g>
      </g>
      <g id="Group_155" data-name="Group 155" transform="translate(33.902 26.067)">
        <g id="Group_154" data-name="Group 154">
          <path id="Path_213" data-name="Path 213" d="M292.52,310.141a2.068,2.068,0,1,0,2.068,2.068A2.071,2.071,0,0,0,292.52,310.141Z" transform="translate(-290.452 -310.141)" fill="#ff5f00"/>
        </g>
      </g>
      <g id="Group_157" data-name="Group 157" transform="translate(23.974 12.829)">
        <g id="Group_156" data-name="Group 156" transform="translate(0)">
          <path id="Path_214" data-name="Path 214" d="M174.4,152.646a2.068,2.068,0,1,0,2.068,2.068A2.071,2.071,0,0,0,174.4,152.646Z" transform="translate(-172.333 -152.646)" fill="#ff5f00"/>
        </g>
      </g>
    </g>
  </g>
</svg>
