<svg xmlns="http://www.w3.org/2000/svg" width="72" height="71" viewBox="0 0 72 71">
  <g id="Group_380" data-name="Group 380" transform="translate(-1111 -1492)">
    <rect id="Rectangle_887" data-name="Rectangle 887" width="72" height="71" rx="12" transform="translate(1111 1492)" fill="#ffefe5"/>
    <g id="_2910891" data-name="2910891" transform="translate(1128 1509)">
      <path id="Path_401" data-name="Path 401" d="M12.409,5.341A1.159,1.159,0,0,1,11.25,4.182V1.159a1.159,1.159,0,0,1,2.317,0V4.182A1.159,1.159,0,0,1,12.409,5.341Z" transform="translate(6.131)" fill="#ff5f00"/>
      <path id="Path_402" data-name="Path 402" d="M18.98,7.751a1.159,1.159,0,0,1-.819-1.979L20.3,3.634a1.159,1.159,0,0,1,1.639,1.639L19.8,7.411A1.162,1.162,0,0,1,18.98,7.751Z" transform="translate(9.712 1.795)" fill="#ff5f00"/>
      <path id="Path_403" data-name="Path 403" d="M24.725,13.567H21.7a1.159,1.159,0,0,1,0-2.317h3.023a1.159,1.159,0,0,1,0,2.317Z" transform="translate(11.195 6.131)" fill="#ff5f00"/>
      <path id="Path_404" data-name="Path 404" d="M21.118,22.277a1.15,1.15,0,0,1-.819-.34L18.161,19.8A1.159,1.159,0,0,1,19.8,18.16L21.938,20.3a1.159,1.159,0,0,1-.82,1.979Z" transform="translate(9.712 9.711)" fill="#ff5f00"/>
      <path id="Path_405" data-name="Path 405" d="M4.454,22.277A1.159,1.159,0,0,1,3.635,20.3L5.773,18.16A1.159,1.159,0,0,1,7.412,19.8L5.274,21.937A1.156,1.156,0,0,1,4.454,22.277Z" transform="translate(1.796 9.711)" fill="#ff5f00"/>
      <path id="Path_406" data-name="Path 406" d="M4.182,13.567H1.159a1.159,1.159,0,0,1,0-2.317H4.182a1.159,1.159,0,0,1,0,2.317Z" transform="translate(0 6.131)" fill="#ff5f00"/>
      <path id="Path_407" data-name="Path 407" d="M6.592,7.751a1.15,1.15,0,0,1-.819-.34L3.635,5.273A1.159,1.159,0,0,1,5.274,3.634L7.412,5.772a1.159,1.159,0,0,1-.82,1.979Z" transform="translate(1.796 1.795)" fill="#ff5f00"/>
      <path id="Path_408" data-name="Path 408" d="M18.27,21v1.931a2.717,2.717,0,0,1-2.7,2.7H11.7c-1.3,0-2.7-.989-2.7-3.152V21Z" transform="translate(4.904 11.444)" fill="#ff5f00"/>
      <path id="Path_409" data-name="Path 409" d="M22.628,7.409A10.816,10.816,0,1,0,9.311,24.45,4.665,4.665,0,0,1,11.072,27.4v.015a.263.263,0,0,1,.108-.015h9.27a.139.139,0,0,1,.077.015V27.4a5.153,5.153,0,0,1,1.978-3.09,10.821,10.821,0,0,0,.124-16.9Zm-1.02,9.177a1.167,1.167,0,0,1-1.159-1.159A4.246,4.246,0,0,0,16.2,11.179a1.159,1.159,0,1,1,0-2.317,6.58,6.58,0,0,1,6.566,6.566A1.167,1.167,0,0,1,21.609,16.586Z" transform="translate(2.724 2.725)" fill="#ff5f00"/>
      <path id="Path_410" data-name="Path 410" d="M8.93,19.5h.108a.263.263,0,0,0-.108.015Z" transform="translate(4.866 10.626)" fill="#ff5f00"/>
      <path id="Path_411" data-name="Path 411" d="M15.077,19.5v.015A.139.139,0,0,0,15,19.5Z" transform="translate(8.174 10.626)" fill="#ff5f00"/>
    </g>
  </g>
</svg>
