<svg xmlns="http://www.w3.org/2000/svg" width="72" height="71" viewBox="0 0 72 71">
  <g id="Group_388" data-name="Group 388" transform="translate(-1055 -3985)">
    <rect id="Rectangle_993" data-name="Rectangle 993" width="72" height="71" rx="12" transform="translate(1055 3985)" fill="#ffefe5"/>
    <g id="_1384286" data-name="1384286" transform="translate(1075 4002)">
      <path id="Path_453" data-name="Path 453" d="M6.9,202.088v-6.628a5.01,5.01,0,0,1,.2-1.39H2.629A2.632,2.632,0,0,0,0,196.7v5.274a2.641,2.641,0,0,0,1.343,2.29v7.665a1.015,1.015,0,0,0,1.014,1.015H8.589v-7.086A5.092,5.092,0,0,1,6.9,202.088Zm0,0" transform="translate(0 -180.92)" fill="#ff5f00"/>
      <path id="Path_454" data-name="Path 454" d="M26.173,67.014A3.974,3.974,0,1,0,22.2,63.04,3.979,3.979,0,0,0,26.173,67.014Zm0,0" transform="translate(-20.695 -55.063)" fill="#ff5f00"/>
      <path id="Path_455" data-name="Path 455" d="M141.993,169.668h-7.166a3.047,3.047,0,0,0-3.043,3.043v6.628a3.056,3.056,0,0,0,1.687,2.722v9.789a1.015,1.015,0,0,0,1.015,1.015h7.848a1.015,1.015,0,0,0,1.015-1.015v-9.789a3.057,3.057,0,0,0,1.687-2.722v-6.628a3.048,3.048,0,0,0-3.043-3.043Zm0,0" transform="translate(-122.855 -158.171)" fill="#ff5f00"/>
      <path id="Path_456" data-name="Path 456" d="M164.418,9.469a4.734,4.734,0,1,0-4.734-4.734A4.739,4.739,0,0,0,164.418,9.469Zm0,0" transform="translate(-148.863)" fill="#ff5f00"/>
      <path id="Path_457" data-name="Path 457" d="M340.349,194.841a2.621,2.621,0,0,0-1.858-.771h-4.605a5.02,5.02,0,0,1,.2,1.39v6.628a5.092,5.092,0,0,1-1.687,3.768v7.079a1.031,1.031,0,0,0,.123.007h6.245a1.015,1.015,0,0,0,1.015-1.015v-7.665a2.642,2.642,0,0,0,1.343-2.29V196.7a2.621,2.621,0,0,0-.771-1.858Zm0,0" transform="translate(-309.871 -180.919)" fill="#ff5f00"/>
      <path id="Path_458" data-name="Path 458" d="M325.588,67.014a3.974,3.974,0,1,0-3.974-3.974A3.979,3.979,0,0,0,325.588,67.014Zm0,0" transform="translate(-299.82 -55.063)" fill="#ff5f00"/>
    </g>
  </g>
</svg>
