<svg xmlns="http://www.w3.org/2000/svg" width="72" height="71" viewBox="0 0 72 71">
  <g id="Group_389" data-name="Group 389" transform="translate(-797 -3980)">
    <rect id="Rectangle_995" data-name="Rectangle 995" width="72" height="71" rx="12" transform="translate(797 3980)" fill="#ffefe5"/>
    <g id="_3050729" data-name="3050729" transform="translate(813.305 3993.306)">
      <path id="Path_449" data-name="Path 449" d="M434.763,325.068h-1.525v-2.8a1.271,1.271,0,0,0-2.542,0v2.8H429v12.118h5.763a1.271,1.271,0,0,0,1.271-1.271v-9.576A1.271,1.271,0,0,0,434.763,325.068Z" transform="translate(-392.645 -293.797)" fill="#ff5f00"/>
      <path id="Path_450" data-name="Path 450" d="M7.034,325.068H5.339v-2.8a1.271,1.271,0,0,0-2.542,0v2.8H1.271A1.271,1.271,0,0,0,0,326.339v9.576a1.271,1.271,0,0,0,1.271,1.271H7.034Z" transform="translate(0 -293.797)" fill="#ff5f00"/>
      <path id="Path_451" data-name="Path 451" d="M113,43.389h6.1V36.609a1.271,1.271,0,0,1,1.271-1.271h9.491a1.271,1.271,0,0,1,1.271,1.271v6.779h6.1V1.271A1.271,1.271,0,0,0,135.965,0H114.271A1.271,1.271,0,0,0,113,1.271Zm8.729-13.644h-1.356a1.271,1.271,0,0,1,0-2.542h1.356a1.271,1.271,0,1,1,0,2.542Zm0-5.424h-1.356a1.271,1.271,0,0,1,0-2.542h1.356a1.271,1.271,0,1,1,0,2.542Zm0-5.424h-1.356a1.271,1.271,0,0,1,0-2.542h1.356a1.271,1.271,0,1,1,0,2.542Zm0-5.424h-1.356a1.271,1.271,0,0,1,0-2.542h1.356a1.271,1.271,0,1,1,0,2.542Zm8.135,16.271h-1.356a1.271,1.271,0,0,1,0-2.542h1.356a1.271,1.271,0,0,1,0,2.542Zm0-5.424h-1.356a1.271,1.271,0,0,1,0-2.542h1.356a1.271,1.271,0,0,1,0,2.542Zm0-5.424h-1.356a1.271,1.271,0,0,1,0-2.542h1.356a1.271,1.271,0,0,1,0,2.542Zm0-5.424h-1.356a1.271,1.271,0,0,1,0-2.542h1.356a1.271,1.271,0,0,1,0,2.542ZM119.695,5.508h10.847a1.271,1.271,0,0,1,0,2.542H119.695a1.271,1.271,0,0,1,0-2.542Z" transform="translate(-103.424)" fill="#ff5f00"/>
      <path id="Path_452" data-name="Path 452" d="M215,452.508h6.949V447H215Z" transform="translate(-196.78 -409.12)" fill="#ff5f00"/>
    </g>
  </g>
</svg>
