<svg xmlns="http://www.w3.org/2000/svg" width="72" height="71" viewBox="0 0 72 71">
  <g id="Group_397" data-name="Group 397" transform="translate(-484 -2368)">
    <rect id="Rectangle_1487" data-name="Rectangle 1487" width="72" height="71" rx="12" transform="translate(484 2368)" fill="#ffefe5"/>
    <g id="_493881" data-name="493881" transform="translate(497 2284.334)">
      <g id="Group_313" data-name="Group 313" transform="translate(0 106.666)">
        <g id="Group_312" data-name="Group 312">
          <path id="Path_593" data-name="Path 593" d="M10.67,108.69c-1.472-1.472-7.726-1.84-9.75-2.024a.676.676,0,0,0-.552.184,1.4,1.4,0,0,0-.368.736v16.556a.869.869,0,0,0,.92.92H6.439a1.012,1.012,0,0,0,.92-.552c0-.552,3.311-10.3,3.679-15.084A.735.735,0,0,0,10.67,108.69Z" transform="translate(0 -106.666)" fill="#ff5f00"/>
        </g>
      </g>
      <g id="Group_315" data-name="Group 315" transform="translate(15.613 110.529)">
        <g id="Group_314" data-name="Group 314">
          <path id="Path_594" data-name="Path 594" d="M195.8,154.042c-1.84-.552-3.5-1.288-4.967-1.84-3.311-1.472-4.783-.736-7.726,2.208-1.288,1.288-2.207,3.127-2.024,3.863,0,.184,0,.184.368.368.92.368,2.207.552,3.5-1.472a.956.956,0,0,1,.736-.368,3.409,3.409,0,0,0,1.288-.368,8.968,8.968,0,0,1,1.288-.552h.368c.184,0,.552.184.736.184.92.92,2.576,2.208,4.231,3.679a42.134,42.134,0,0,1,6.439,5.887h.184C198.929,161.952,196.721,155.7,195.8,154.042Z" transform="translate(-181.061 -151.467)" fill="#ff5f00"/>
        </g>
      </g>
      <g id="Group_317" data-name="Group 317" transform="translate(31.273 108.506)">
        <g id="Group_316" data-name="Group 316">
          <path id="Path_595" data-name="Path 595" d="M374.623,128a32.26,32.26,0,0,0-11.405,1.84l-.552.552a1.106,1.106,0,0,0,.184.736c1.1,1.84,4.783,11.957,5.335,14.533a1.222,1.222,0,0,0,.92.736h5.519a.869.869,0,0,0,.92-.92V128.92A.869.869,0,0,0,374.623,128Z" transform="translate(-362.666 -128)" fill="#ff5f00"/>
        </g>
      </g>
      <g id="Group_319" data-name="Group 319" transform="translate(9.566 112.185)">
        <g id="Group_318" data-name="Group 318">
          <path id="Path_596" data-name="Path 596" d="M134.664,185.016c-.736-1.656-3.863-4.047-6.622-6.255-1.472-1.288-2.943-2.392-4.047-3.311-.184.184-.552.184-.552.368a3.466,3.466,0,0,1-1.472.368c-1.472,1.84-3.311,2.575-5.335,1.84a2.175,2.175,0,0,1-1.656-1.656c-.368-1.84,1.288-4.415,2.575-5.7h-3.679a93.793,93.793,0,0,1-2.943,11.037,20.8,20.8,0,0,0,2.024,2.024c3.5,2.943,7.542,5.887,8.278,6.439a5.229,5.229,0,0,0,2.207.736H124l-2.943-2.943a.911.911,0,0,1,1.288-1.288l3.679,3.679c.368.368.736.184,1.1.184.552-.184.736-.552.92-1.1l-4.231-4.231a.911.911,0,0,1,1.288-1.288l4.6,4.6a1.968,1.968,0,0,0,1.472,0c.184-.184.552-.368.736-.736l-5.151-5.151a.911.911,0,0,1,1.288-1.288l5.335,5.335a1.217,1.217,0,0,0,1.1-.184A1.249,1.249,0,0,0,134.664,185.016Z" transform="translate(-110.934 -170.667)" fill="#ff5f00"/>
        </g>
      </g>
    </g>
  </g>
</svg>
