<svg xmlns="http://www.w3.org/2000/svg" width="31.199" height="35.825" viewBox="0 0 31.199 35.825">
  <g id="Group_407" data-name="Group 407" transform="translate(-1278.125 -2977.087)">
    <g id="_1007963" data-name="1007963" transform="translate(1245.068 2977.087)">
      <g id="Group_140" data-name="Group 140" transform="translate(33.057)">
        <g id="Group_139" data-name="Group 139" transform="translate(0)">
          <path id="Path_143" data-name="Path 143" d="M280.751,1.007A2.021,2.021,0,0,0,279.007,0h-7.491V8.861h13.778Z" transform="translate(-254.831)" fill="#ff5f00"/>
          <path id="Path_144" data-name="Path 144" d="M57.634,0H50.073a2.021,2.021,0,0,0-1.746,1.009L43.8,8.861H57.634V0Z" transform="translate(-43.049)" fill="#ff5f00"/>
          <path id="Path_145" data-name="Path 145" d="M33.057,156.648v22.4a2.472,2.472,0,0,0,2.469,2.469h26.26a2.472,2.472,0,0,0,2.469-2.469v-22.4Zm20.366,9.418-5.43,5.43a1.048,1.048,0,0,1-1.485,0l-2.546-2.545a1.05,1.05,0,0,1,1.485-1.485l1.8,1.8,4.688-4.688a1.05,1.05,0,1,1,1.485,1.485Z" transform="translate(-33.057 -145.687)" fill="#ff5f00"/>
        </g>
      </g>
    </g>
  </g>
</svg>
