<svg xmlns="http://www.w3.org/2000/svg" width="80" height="78" viewBox="0 0 80 78">
  <g id="Group_354" data-name="Group 354" transform="translate(-429 -2733)">
    <rect id="Rectangle_1096" data-name="Rectangle 1096" width="80" height="78" rx="12" transform="translate(429 2733)" fill="#ffefe5"/>
    <g id="_63109" data-name="63109" transform="translate(456.182 2756.287)">
      <g id="Group_181" data-name="Group 181" transform="translate(0 0)">
        <path id="Path_279" data-name="Path 279" d="M22.957,1.426H1.808a1.808,1.808,0,1,0,0,3.615l3.832,0a1.012,1.012,0,0,1,0,2.025H2.431v7.678H1.808a1.808,1.808,0,1,0,0,3.615l3.832.005a1.012,1.012,0,1,1,0,2.025H2.431v7.676H1.808a1.808,1.808,0,1,0,0,3.615H17.731a8.785,8.785,0,0,1-3.239-6.814c0-2.026,1.26-4.709,3.851-8.2a56.29,56.29,0,0,1,3.625-4.388l.364-.391V5.041h.624a1.808,1.808,0,1,0,0-3.615Z" transform="translate(0 -1.426)" fill="#ff5f00"/>
        <path id="Path_280" data-name="Path 280" d="M244.106,181.046c-1.583-2.135-3.188-3.863-3.2-3.88a.433.433,0,0,0-.633,0c-.016.017-1.622,1.745-3.2,3.88-2.162,2.916-3.258,5.18-3.258,6.729a6.78,6.78,0,1,0,13.559,0C247.365,186.227,246.268,183.963,244.106,181.046Zm-2.844,11.315a4.733,4.733,0,0,1-5.82-4.6,4.906,4.906,0,0,1,.638-2.073.245.245,0,0,1,.463.138,2.445,2.445,0,0,0-.018.286,5.907,5.907,0,0,0,4.729,5.776.245.245,0,0,1,.008.479Z" transform="translate(-216.9 -164.332)" fill="#ff5f00"/>
      </g>
    </g>
  </g>
</svg>
