<svg xmlns="http://www.w3.org/2000/svg" width="79" height="78" viewBox="0 0 79 78">
  <g id="Group_352" data-name="Group 352" transform="translate(-978 -2733)">
    <rect id="Rectangle_1094" data-name="Rectangle 1094" width="79" height="78" rx="12" transform="translate(978 2733)" fill="#ffefe5"/>
    <path id="Path_502" data-name="Path 502" d="M1527.93-276.566v-4.713h-3.519v-23.533h-.859V-307h.6V-309.4h-1.315v-2.283H1521.6v-3.078a3.384,3.384,0,0,0-3.564-3.159h-3.775a3.384,3.384,0,0,0-3.564,3.159v3.473a3.175,3.175,0,0,0-.549-.048h-.84a3.184,3.184,0,0,0-.531.045v-2.867a3.163,3.163,0,0,0-3.159-3.159h-3.27a3.163,3.163,0,0,0-3.159,3.159v8.9h-1.6a3.163,3.163,0,0,0-3.159,3.159v6.749h-.384a5.507,5.507,0,0,0-5.507,5.507v13.276h-3.288v4.944h43.547v-4.944Zm-16.16-38.191a2.315,2.315,0,0,1,2.488-2.083h3.775a2.315,2.315,0,0,1,2.488,2.083v3.078h-1.243v2.283h-1.461V-307h.621v2.192h-.785v23.533h-1.443v4.713h-2.9v-4.184a.77.77,0,0,0,.767-.77.77.77,0,0,0-.767-.77v-4.469a.77.77,0,0,0,.767-.77h0a.77.77,0,0,0-.767-.77v-4.695a.77.77,0,0,0,.767-.77.77.77,0,0,0-.767-.77v-4.695a.77.77,0,0,0,.767-.77h0a.77.77,0,0,0-.767-.77v-4.695a.77.77,0,0,0,.767-.77.77.77,0,0,0-.767-.77v-1.169a3.158,3.158,0,0,0-1.535-2.71Zm-11.508.6a2.085,2.085,0,0,1,2.083-2.083h3.27a2.085,2.085,0,0,1,2.083,2.083v3.261a3.158,3.158,0,0,0-1.553,2.721V-307h-.119a.77.77,0,0,0-.77.77.77.77,0,0,0,.77.77h.119v4.694h-.119a.77.77,0,0,0-.77.77h0a.77.77,0,0,0,.77.77h.119v4.694h-.119a.77.77,0,0,0-.77.77.77.77,0,0,0,.77.77h.119v4.694h-.119a.77.77,0,0,0-.77.77h0a.77.77,0,0,0,.77.77h.119v4.468h-.119a.77.77,0,0,0-.77.77.77.77,0,0,0,.77.77h.119v4.184h-2.129V-302.1a3.163,3.163,0,0,0-3.159-3.159h-.594ZM1495.5-302.1a2.086,2.086,0,0,1,2.083-2.083h1.6v9.929a5.483,5.483,0,0,0-3.3-1.1h-.384Zm4.758,8.91v-10.993h.594a2.085,2.085,0,0,1,2.083,2.083v25.533H1501.4v-13.276A5.483,5.483,0,0,0,1500.262-293.189Z" transform="translate(-489.313 3066.903)" fill="#ff5f00"/>
  </g>
</svg>
