<svg xmlns="http://www.w3.org/2000/svg" width="72" height="71" viewBox="0 0 72 71">
  <g id="Group_370" data-name="Group 370" transform="translate(-1400 -3194)">
    <rect id="Rectangle_457" data-name="Rectangle 457" width="72" height="71" rx="14" transform="translate(1400 3194)" fill="#ffefe5"/>
    <g id="_3815015" data-name="3815015" transform="translate(1418 3214)">
      <path id="Path_198" data-name="Path 198" d="M144.525,261.858h-2.043v-2.044a1.414,1.414,0,1,0-2.828,0v2.044H137.61a1.414,1.414,0,0,0-1.414,1.414v6.914a1.414,1.414,0,0,0,1.414,1.414h2.044v2.159a1.414,1.414,0,0,0,2.828,0V271.6h2.043a1.414,1.414,0,0,0,1.414-1.414v-6.914A1.414,1.414,0,0,0,144.525,261.858Z" transform="translate(-136.196 -253.099)" fill="#ff5f00"/>
      <path id="Path_199" data-name="Path 199" d="M280.723,188.5h-2.043v-2.044a1.414,1.414,0,1,0-2.828,0V188.5h-2.044a1.414,1.414,0,0,0-1.414,1.414v6.915a1.414,1.414,0,0,0,1.414,1.414h2.044v9.074a1.414,1.414,0,1,0,2.828,0v-9.074h2.043a1.414,1.414,0,0,0,1.414-1.414v-6.915A1.414,1.414,0,0,0,280.723,188.5Z" transform="translate(-259.556 -174.723)" fill="#ff5f00"/>
      <path id="Path_200" data-name="Path 200" d="M416.921,79.066h-2.044V77.022a1.414,1.414,0,1,0-2.828,0v2.044h-2.043a1.414,1.414,0,0,0-1.414,1.414V90.794a1.414,1.414,0,0,0,1.414,1.414h2.043v5.616a1.414,1.414,0,1,0,2.828,0V92.208h2.044a1.414,1.414,0,0,0,1.414-1.414V80.48A1.414,1.414,0,0,0,416.921,79.066Z" transform="translate(-382.916 -75.608)" fill="#ff5f00"/>
    </g>
  </g>
</svg>
