<svg xmlns="http://www.w3.org/2000/svg" width="72" height="71" viewBox="0 0 72 71">
  <g id="Group_381" data-name="Group 381" transform="translate(-849 -1492)">
    <rect id="Rectangle_885" data-name="Rectangle 885" width="72" height="71" rx="12" transform="translate(849 1492)" fill="#ffefe5"/>
    <g id="_2983720" data-name="2983720" transform="translate(868 1492.004)">
      <path id="Path_412" data-name="Path 412" d="M22.126,23.506A11.663,11.663,0,0,0,0,28.617a11.5,11.5,0,0,0,1.112,4.967L.02,39.046a1,1,0,0,0,1.17,1.172l5.53-1.093a11.458,11.458,0,0,0,2.306.807A13.628,13.628,0,0,1,22.126,23.506Z" fill="#ff5f00"/>
      <path id="Path_413" data-name="Path 413" d="M183.671,161.589a11.586,11.586,0,0,0,.5-1.229h-.036a11.634,11.634,0,0,0-10.463-15.344h0a11.62,11.62,0,1,0-.558,23.228,11.494,11.494,0,0,0,4.952-1.112c6.057,1.2,5.584,1.112,5.723,1.112a1,1,0,0,0,.977-1.191Z" transform="translate(-150.783 -119.506)" fill="#ff5f00"/>
    </g>
  </g>
</svg>
