<svg xmlns="http://www.w3.org/2000/svg" width="72" height="71" viewBox="0 0 72 71">
  <g id="Group_387" data-name="Group 387" transform="translate(-707 -2123)">
    <rect id="Rectangle_898" data-name="Rectangle 898" width="72" height="71" rx="12" transform="translate(707 2123)" fill="#ffefe5"/>
    <g id="_598430" data-name="598430" transform="translate(725 2138)">
      <g id="Group_237" data-name="Group 237">
        <path id="Path_400" data-name="Path 400" d="M34.54,1.818H29.087V0H7.272V1.818H1.818A1.718,1.718,0,0,0,0,3.636V8a8.246,8.246,0,0,0,7.272,8.181v.182a10.934,10.934,0,0,0,8.544,10.726L14.543,30.9H10.362a1.746,1.746,0,0,0-1.636,1.273L7.272,36.358H29.087l-1.454-4.181A1.746,1.746,0,0,0,26,30.9H21.815l-1.273-3.818a10.934,10.934,0,0,0,8.544-10.726v-.182A8.246,8.246,0,0,0,36.358,8V3.636A1.718,1.718,0,0,0,34.54,1.818ZM7.272,12.544A4.855,4.855,0,0,1,3.636,8V5.454H7.272Zm14.543,5.636-3.636-2-3.636,2,.909-3.636-2.727-3.636h3.818l1.636-3.636,1.636,3.636h3.818l-2.727,3.636ZM32.723,8a4.691,4.691,0,0,1-3.636,4.545V5.454h3.636Z" fill="#ff5f00"/>
      </g>
    </g>
  </g>
</svg>
