<svg xmlns="http://www.w3.org/2000/svg" width="72" height="71" viewBox="0 0 72 71">
  <g id="Group_405" data-name="Group 405" transform="translate(-718 -3113)">
    <rect id="Rectangle_465" data-name="Rectangle 465" width="72" height="71" rx="12" transform="translate(718 3113)" fill="#ffefe5"/>
    <g id="Group_320" data-name="Group 320" transform="translate(439.362 2635.063)">
      <path id="Path_453" data-name="Path 453" d="M305.362,571.684V564.27a5.609,5.609,0,0,1,.22-1.555h-5a2.944,2.944,0,0,0-2.942,2.942v5.9a2.954,2.954,0,0,0,1.5,2.562v8.575a1.135,1.135,0,0,0,1.135,1.135h6.971V575.9a5.7,5.7,0,0,1-1.888-4.216Z" transform="translate(0 -56.059)" fill="#ff5f00"/>
      <path id="Path_454" data-name="Path 454" d="M310.157,522.339a4.451,4.451,0,1,0-4.451-4.451,4.451,4.451,0,0,0,4.451,4.451Z" transform="translate(-6.391 -17.023)" fill="#ff5f00"/>
      <path id="Path_456" data-name="Path 456" d="M361.168,502.538a5.3,5.3,0,1,0-5.3-5.3h0A5.3,5.3,0,0,0,361.168,502.538Z" transform="translate(-46.129 0)" fill="#ff5f00"/>
      <path id="Path_457" data-name="Path 457" d="M427.747,563.578a2.93,2.93,0,0,0-2.078-.863h-5.152a5.622,5.622,0,0,1,.22,1.555v7.414a5.7,5.7,0,0,1-1.888,4.216v7.918a1.142,1.142,0,0,0,.131.008h6.986a1.135,1.135,0,0,0,1.135-1.135h0v-8.575a2.955,2.955,0,0,0,1.5-2.562v-5.9a2.932,2.932,0,0,0-.863-2.078Z" transform="translate(-96.016 -56.059)" fill="#ff5f00"/>
      <path id="Path_458" data-name="Path 458" d="M419.339,522.339a4.451,4.451,0,1,0-4.451-4.451h0A4.451,4.451,0,0,0,419.339,522.339Z" transform="translate(-92.878 -17.023)" fill="#ff5f00"/>
      <path id="Path_597" data-name="Path 597" d="M357.116,553.821H349.1a3.4,3.4,0,0,0-3.4,3.4h0v7.414a3.419,3.419,0,0,0,1.888,3.045v10.951a1.135,1.135,0,0,0,1.135,1.135h8.78a1.135,1.135,0,0,0,1.135-1.135h0V567.684a3.42,3.42,0,0,0,1.888-3.045v-7.414A3.4,3.4,0,0,0,357.116,553.821Zm-.077,7.056-1.47,1.061a.617.617,0,0,0-.227.693l.592,1.716a.626.626,0,0,1,.031.222.65.65,0,0,1-1.022.471l-1.47-1.061a.627.627,0,0,0-.734,0l-1.47,1.061a.65.65,0,0,1-1.022-.471.633.633,0,0,1,.032-.222l.592-1.716a.617.617,0,0,0-.227-.693l-1.47-1.061a.665.665,0,0,1,.367-1.19h1.817a.568.568,0,0,0,.594-.359l.561-1.727a.626.626,0,0,1,1.187,0l.562,1.727a.568.568,0,0,0,.594.359h1.817A.665.665,0,0,1,357.039,560.877Z" transform="translate(-38.067 -49.013)" fill="#ff5f00"/>
    </g>
  </g>
</svg>
