<svg xmlns="http://www.w3.org/2000/svg" width="72" height="71" viewBox="0 0 72 71">
  <g id="Group_347" data-name="Group 347" transform="translate(-565 -975)">
    <rect id="Rectangle_677" data-name="Rectangle 677" width="72" height="71" rx="12" transform="translate(565 975)" fill="#ffefe5"/>
    <g id="_3524411" data-name="3524411" transform="translate(586.182 993)">
      <g id="Group_188" data-name="Group 188" transform="translate(4)">
        <g id="Group_187" data-name="Group 187">
          <path id="Path_288" data-name="Path 288" d="M26.361,10.831v.349H4v-.349A5.243,5.243,0,0,1,9.241,5.59h1.747V1.048A1.047,1.047,0,0,1,12.036,0h6.289a1.047,1.047,0,0,1,1.048,1.048V5.59H21.12A5.243,5.243,0,0,1,26.361,10.831Z" transform="translate(-4)" fill="#ff5f00"/>
        </g>
      </g>
      <g id="Group_190" data-name="Group 190" transform="translate(4 13.277)">
        <g id="Group_189" data-name="Group 189">
          <path id="Path_289" data-name="Path 289" d="M4,9.5H26.361V22.078H4Z" transform="translate(-4 -9.5)" fill="#ff5f00"/>
        </g>
      </g>
      <g id="Group_192" data-name="Group 192" transform="translate(4 27.952)">
        <g id="Group_191" data-name="Group 191">
          <path id="Path_290" data-name="Path 290" d="M4,20H26.361v.349A5.252,5.252,0,0,1,21.12,25.59H9.241A5.252,5.252,0,0,1,4,20.349Z" transform="translate(-4 -20)" fill="#ff5f00"/>
        </g>
      </g>
    </g>
  </g>
</svg>
