<svg xmlns="http://www.w3.org/2000/svg" width="79" height="78" viewBox="0 0 79 78">
  <g id="Group_351" data-name="Group 351" transform="translate(-1253 -2733)">
    <rect id="Rectangle_1090" data-name="Rectangle 1090" width="79" height="78" rx="12" transform="translate(1253 2733)" fill="#ffefe5"/>
    <g id="Group_274" data-name="Group 274" transform="translate(1268.073 2571)">
      <g id="Group_271" data-name="Group 271" transform="translate(12.541 182)">
        <path id="Path_504" data-name="Path 504" d="M151.556,182.889a1.415,1.415,0,0,0-1.314-.889H138.926a1.415,1.415,0,0,0-1.314.889l-4.527,11.316a1.415,1.415,0,0,0,1.313,1.94h20.37a1.415,1.415,0,0,0,1.313-1.94Z" transform="translate(-132.984 -182)" fill="#ff5f00"/>
      </g>
      <g id="Group_272" data-name="Group 272" transform="translate(0 198.974)">
        <path id="Path_505" data-name="Path 505" d="M18.572,362.889A1.415,1.415,0,0,0,17.259,362H5.943a1.415,1.415,0,0,0-1.314.889L.1,374.205a1.415,1.415,0,0,0,1.313,1.94h20.37a1.415,1.415,0,0,0,1.313-1.94Z" transform="translate(0 -362)" fill="#ff5f00"/>
      </g>
      <g id="Group_273" data-name="Group 273" transform="translate(25.081 198.974)">
        <path id="Path_506" data-name="Path 506" d="M284.539,362.889a1.415,1.415,0,0,0-1.314-.889H271.909a1.415,1.415,0,0,0-1.314.889l-4.527,11.316a1.415,1.415,0,0,0,1.313,1.94h20.37a1.415,1.415,0,0,0,1.313-1.94Z" transform="translate(-265.967 -362)" fill="#ff5f00"/>
      </g>
    </g>
  </g>
</svg>
