<svg xmlns="http://www.w3.org/2000/svg" width="72" height="71" viewBox="0 0 72 71">
  <g id="Group_393" data-name="Group 393" transform="translate(-809 -2708)">
    <rect id="Rectangle_1442" data-name="Rectangle 1442" width="72" height="71" rx="12" transform="translate(809 2708)" fill="#ffefe5"/>
    <path id="Path_578" data-name="Path 578" d="M1091.371,632.243c.487.237.958.448,1.413.692a7.093,7.093,0,0,1,3.909,6c.277,3.325-.46,6.3-3.306,8.395a9.174,9.174,0,0,1-5.054,1.7c-2.978.162-3.868-.033-7.222-1.388v7.641h-6.062v-1.038c0-9.154.046-18.308-.021-27.461a9.282,9.282,0,0,1,7.726-9.319,14.24,14.24,0,0,1,7.3.459,7.556,7.556,0,0,1,5.245,6.516,7.2,7.2,0,0,1-3.313,7.36c-.114.078-.236.145-.35.224C1091.553,632.085,1091.477,632.155,1091.371,632.243Zm-10.25,10.623a8.983,8.983,0,0,0,5.116,1.144,4.219,4.219,0,0,0,4.279-4.505c-.049-2.968-1.641-4.664-4.4-4.68-.749,0-1.5,0-2.211,0v-4.482c.785-.039,1.512-.044,2.231-.119a3,3,0,0,0,2.653-2.034,5.886,5.886,0,0,0,.086-3.778,3.025,3.025,0,0,0-1.844-1.981,4.119,4.119,0,0,0-5.9,3.845c-.023,2.19-.007,4.38-.007,6.57Q1081.121,637.848,1081.121,642.866Z" transform="translate(-239.782 2107.061)" fill="#ff5f00"/>
  </g>
</svg>
