<svg xmlns="http://www.w3.org/2000/svg" width="72" height="71" viewBox="0 0 72 71">
  <g id="Group_373" data-name="Group 373" transform="translate(-854 -3050)">
    <rect id="Rectangle_465" data-name="Rectangle 465" width="72" height="71" rx="12" transform="translate(854 3050)" fill="#ffefe5"/>
    <g id="_2780188" data-name="2780188" transform="translate(873 3052.777)">
      <path id="Path_218" data-name="Path 218" d="M48.174,23.556a1.033,1.033,0,0,0-.57-.5L40.016,20.29a3.077,3.077,0,0,0-5.5-2L26.938,15.53h0a1.034,1.034,0,0,0-1.265.5l-4.8,9.535h2.3l3.426-6.8,3.468,6.8h2.3l-3.679-7.22,5.181,1.886a3.073,3.073,0,0,0,2.053,2.853V43a1.025,1.025,0,0,0,2.051,0V23.085a3.056,3.056,0,0,0,1.3-.887l6.558,2.387L41.508,33.16h2.3L47.259,26.3l3.458,6.864h2.3ZM37.668,20.909a1.028,1.028,0,1,1,0-1.454A1.029,1.029,0,0,1,37.668,20.909Z" transform="translate(-19.444)" fill="#ff5f00"/>
      <path id="Path_219" data-name="Path 219" d="M168.747,404.243h-2.414a5.289,5.289,0,0,0-5.283,5.283,1.025,1.025,0,0,0,1.025,1.025H173a1.025,1.025,0,0,0,1.025-1.025A5.289,5.289,0,0,0,168.747,404.243Z" transform="translate(-150.042 -362.201)" fill="#ff5f00"/>
      <path id="Path_220" data-name="Path 220" d="M315.282,304.3H302.975a1.025,1.025,0,0,0-1.025,1.025,7.178,7.178,0,1,0,14.357,0A1.025,1.025,0,0,0,315.282,304.3Z" transform="translate(-281.312 -269.089)" fill="#ff5f00"/>
      <path id="Path_221" data-name="Path 221" d="M13.335,193.205H1.025A1.025,1.025,0,0,0,0,194.23a7.18,7.18,0,1,0,14.36,0A1.025,1.025,0,0,0,13.335,193.205Z" transform="translate(0 -165.588)" fill="#ff5f00"/>
    </g>
  </g>
</svg>
