<svg xmlns="http://www.w3.org/2000/svg" width="72" height="71" viewBox="0 0 72 71">
  <g id="Group_366" data-name="Group 366" transform="translate(-1531 -2897)">
    <rect id="Rectangle_457" data-name="Rectangle 457" width="72" height="71" rx="12" transform="translate(1531 2897)" fill="#ffefe5"/>
    <g id="_3815015" data-name="3815015" transform="translate(1544 2842.066)">
      <path id="Path_198" data-name="Path 198" d="M145.273,262.168h-2.227v-2.227a1.541,1.541,0,1,0-3.082,0v2.227h-2.227a1.541,1.541,0,0,0-1.541,1.541v7.536a1.541,1.541,0,0,0,1.541,1.541h2.227v2.353a1.541,1.541,0,0,0,3.082,0v-2.353h2.227a1.541,1.541,0,0,0,1.541-1.541v-7.536A1.541,1.541,0,0,0,145.273,262.168Z" transform="translate(-133.041 -179.014)" fill="#ff5f00"/>
      <path id="Path_199" data-name="Path 199" d="M281.471,188.806h-2.227v-2.227a1.541,1.541,0,1,0-3.082,0v2.227h-2.227a1.541,1.541,0,0,0-1.541,1.541v7.536a1.541,1.541,0,0,0,1.541,1.541h2.227v9.889a1.541,1.541,0,1,0,3.082,0v-9.889h2.227a1.541,1.541,0,0,0,1.541-1.541v-7.536A1.541,1.541,0,0,0,281.471,188.806Z" transform="translate(-255.248 -100.189)" fill="#ff5f00"/>
      <path id="Path_200" data-name="Path 200" d="M417.669,79.376h-2.227V77.149a1.541,1.541,0,0,0-3.082,0v2.227h-2.227a1.541,1.541,0,0,0-1.541,1.541V92.158a1.541,1.541,0,0,0,1.541,1.541h2.227v6.12a1.541,1.541,0,0,0,3.082,0V93.7h2.227a1.541,1.541,0,0,0,1.541-1.541V80.917A1.541,1.541,0,0,0,417.669,79.376Z" transform="translate(-377.455 -2)" fill="#ff5f00"/>
    </g>
  </g>
</svg>
