<svg xmlns="http://www.w3.org/2000/svg" width="72" height="71" viewBox="0 0 72 71">
  <g id="Group_375" data-name="Group 375" transform="translate(-437 -2897)">
    <g id="Group_370" data-name="Group 370">
      <rect id="Rectangle_461" data-name="Rectangle 461" width="72" height="71" rx="12" transform="translate(437 2897)" fill="#ffefe5"/>
      <g id="_879859" data-name="879859" transform="translate(446.641 2915.407)">
        <g id="Group_153" data-name="Group 153" transform="translate(10.359 -0.002)">
          <g id="Group_152" data-name="Group 152" transform="translate(0 0)">
            <path id="Path_212" data-name="Path 212" d="M40.44,16.893a.965.965,0,0,1,0-.853l1.228-2.513a2.859,2.859,0,0,0-1.234-3.8L37.964,8.419a.965.965,0,0,1-.5-.69l-.483-2.755a2.859,2.859,0,0,0-3.23-2.347l-2.77.392a.965.965,0,0,1-.811-.264L28.157.81a2.859,2.859,0,0,0-3.992,0l-2.01,1.945a.966.966,0,0,1-.811.264l-2.77-.392a2.859,2.859,0,0,0-3.23,2.347L14.86,7.729a.965.965,0,0,1-.5.69L11.888,9.73a2.859,2.859,0,0,0-1.234,3.8l1.228,2.513a.965.965,0,0,1,0,.853l-1.228,2.513a2.859,2.859,0,0,0,1.234,3.8l2.471,1.311a.965.965,0,0,1,.5.69l.483,2.755a2.858,2.858,0,0,0,2.819,2.376,2.938,2.938,0,0,0,.411-.029l2.77-.392a.965.965,0,0,1,.811.264l2.01,1.945a2.859,2.859,0,0,0,3.992,0l2.01-1.945a.966.966,0,0,1,.811-.264l2.77.392a2.859,2.859,0,0,0,3.23-2.347l.483-2.755a.965.965,0,0,1,.5-.69L40.434,23.2a2.859,2.859,0,0,0,1.234-3.8ZM22.362,7.918A3.483,3.483,0,1,1,18.879,11.4,3.487,3.487,0,0,1,22.362,7.918Zm-1.8,15.489a.95.95,0,1,1-1.343-1.343L31.758,9.527A.95.95,0,1,1,33.1,10.87Zm9.4,1.608a3.483,3.483,0,1,1,3.483-3.483A3.487,3.487,0,0,1,29.961,25.015Z" transform="translate(-10.359 0.002)" fill="#ff5f00"/>
          </g>
        </g>
        <g id="Group_155" data-name="Group 155" transform="translate(28.377 19.95)">
          <g id="Group_154" data-name="Group 154">
            <path id="Path_213" data-name="Path 213" d="M292.035,310.141a1.583,1.583,0,1,0,1.583,1.583A1.585,1.585,0,0,0,292.035,310.141Z" transform="translate(-290.452 -310.141)" fill="#ff5f00"/>
          </g>
        </g>
        <g id="Group_157" data-name="Group 157" transform="translate(20.779 9.818)">
          <g id="Group_156" data-name="Group 156" transform="translate(0)">
            <path id="Path_214" data-name="Path 214" d="M173.916,152.646a1.583,1.583,0,1,0,1.583,1.583A1.585,1.585,0,0,0,173.916,152.646Z" transform="translate(-172.333 -152.646)" fill="#ff5f00"/>
          </g>
        </g>
      </g>
    </g>
  </g>
</svg>
