<svg xmlns="http://www.w3.org/2000/svg" width="72" height="71" viewBox="0 0 72 71">
  <g id="Group_372" data-name="Group 372" transform="translate(-1124 -3050)">
    <rect id="Rectangle_466" data-name="Rectangle 466" width="72" height="71" rx="12" transform="translate(1124 3050)" fill="#ffefe5"/>
    <g id="_2891526" data-name="2891526" transform="translate(1146 3071.822)">
      <path id="Path_216" data-name="Path 216" d="M15.218,2.154,2.383.2A2.07,2.07,0,0,0,.724.659,2.088,2.088,0,0,0,0,2.224V26.832A1.171,1.171,0,0,0,1.168,28h3.8V21.868a2.039,2.039,0,0,1,2.044-2.044h2.92a2.039,2.039,0,0,1,2.044,2.044V28h4.964V4.175a2.045,2.045,0,0,0-1.717-2.02ZM6.424,17.2H4.672a.876.876,0,0,1,0-1.752H6.424a.876.876,0,0,1,0,1.752Zm0-3.5H4.672a.876.876,0,1,1,0-1.752H6.424a.876.876,0,1,1,0,1.752Zm0-3.5H4.672a.876.876,0,1,1,0-1.752H6.424a.876.876,0,1,1,0,1.752Zm0-3.5H4.672a.876.876,0,1,1,0-1.752H6.424a.876.876,0,0,1,0,1.752ZM12.263,17.2H10.511a.876.876,0,0,1,0-1.752h1.752a.876.876,0,0,1,0,1.752Zm0-3.5H10.511a.876.876,0,1,1,0-1.752h1.752a.876.876,0,1,1,0,1.752Zm0-3.5H10.511a.876.876,0,0,1,0-1.752h1.752a.876.876,0,0,1,0,1.752Zm0-3.5H10.511a.876.876,0,0,1,0-1.752h1.752a.876.876,0,0,1,0,1.752Z" fill="#ff5f00"/>
      <path id="Path_217" data-name="Path 217" d="M23.816,11.092,15.5,9.351V26.46h7.883a2.046,2.046,0,0,0,2.044-2.044V13.089A2.034,2.034,0,0,0,23.816,11.092ZM21.048,22.956H19.3a.876.876,0,1,1,0-1.752h1.752a.876.876,0,0,1,0,1.752Zm0-3.5H19.3a.876.876,0,1,1,0-1.752h1.752a.876.876,0,0,1,0,1.752Zm0-3.5H19.3a.876.876,0,0,1,0-1.752h1.752a.876.876,0,0,1,0,1.752Z" transform="translate(2.603 1.54)" fill="#ff5f00"/>
    </g>
  </g>
</svg>
