<svg xmlns="http://www.w3.org/2000/svg" width="72" height="71" viewBox="0 0 72 71">
  <g id="Group_368" data-name="Group 368" transform="translate(-983 -2898)">
    <rect id="Rectangle_462" data-name="Rectangle 462" width="72" height="71" rx="12" transform="translate(983 2898)" fill="#ffefe5"/>
    <g id="_2876748" data-name="2876748" transform="translate(1002 2916.677)">
      <ellipse id="Ellipse_1" data-name="Ellipse 1" cx="4.5" cy="4" rx="4.5" ry="4" transform="translate(5 18.323)" fill="#ff5f00"/>
      <path id="Path_209" data-name="Path 209" d="M31,399a1,1,0,0,0,1,1H44.006a1,1,0,0,0,1-1A7,7,0,0,0,31,399Z" transform="translate(-28.898 -365.854)" fill="#ff5f00"/>
      <circle id="Ellipse_2" data-name="Ellipse 2" cx="4" cy="4" r="4" transform="translate(21 18.323)" fill="#ff5f00"/>
      <path id="Path_210" data-name="Path 210" d="M271,399a1,1,0,0,0,1,1h12.006a1,1,0,0,0,1-1A7,7,0,0,0,271,399Z" transform="translate(-252.924 -365.854)" fill="#ff5f00"/>
      <path id="Path_211" data-name="Path 211" d="M31.149,0H3A3,3,0,0,0,0,3v8a3,3,0,0,0,3,3H6.589L8.3,15.715a1,1,0,0,0,1.415,0l1.708-1.708H22.73l1.708,1.708a1,1,0,0,0,1.415,0l1.708-1.708h3.588a3,3,0,0,0,3-3V3A3,3,0,0,0,31.149,0ZM13.006,10H5A1,1,0,1,1,5,8h8a1,1,0,1,1,0,2Zm0-4H5A1,1,0,0,1,5,4h8a1,1,0,1,1,0,2Zm16.141,4h-8a1,1,0,0,1,0-2h8a1,1,0,1,1,0,2Zm0-4h-8a1,1,0,0,1,0-2h8a1,1,0,1,1,0,2Z" fill="#ff5f00"/>
    </g>
  </g>
</svg>
