<svg xmlns="http://www.w3.org/2000/svg" width="72" height="71" viewBox="0 0 72 71">
  <g id="Group_369" data-name="Group 369" transform="translate(-709 -2897)">
    <rect id="Rectangle_460" data-name="Rectangle 460" width="72" height="71" rx="12" transform="translate(709 2897)" fill="#ffefe5"/>
    <g id="_61483" data-name="61483" transform="translate(725.261 2893.621)">
      <g id="Group_151" data-name="Group 151" transform="translate(0 22.379)">
        <path id="Path_201" data-name="Path 201" d="M10.464,122.53a22.432,22.432,0,0,0,2.916-.187V112.2a22.445,22.445,0,0,0-2.916-.187C4.686,112.009,0,114.134,0,116.755v1.029C0,120.4,4.686,122.53,10.464,122.53Z" transform="translate(-0.001 -103.971)" fill="#ff5f00"/>
        <path id="Path_202" data-name="Path 202" d="M10.464,219.921a22.464,22.464,0,0,0,2.916-.187V216.76a22.443,22.443,0,0,1-2.916.188c-5.044,0-9.254-1.619-10.243-3.774a2.315,2.315,0,0,0-.22.972v1.029C0,217.8,4.686,219.921,10.464,219.921Z" transform="translate(-0.001 -196.064)" fill="#ff5f00"/>
        <path id="Path_203" data-name="Path 203" d="M13.379,276.075v-.231a22.435,22.435,0,0,1-2.916.188c-5.044,0-9.254-1.619-10.243-3.774a2.314,2.314,0,0,0-.22.972v1.029C0,276.88,4.685,279,10.463,279a22.222,22.222,0,0,0,3.307-.242,3.744,3.744,0,0,1-.391-1.659Z" transform="translate(0 -249.85)" fill="#ff5f00"/>
        <path id="Path_204" data-name="Path 204" d="M178.7,22.379c-5.779,0-10.463,2.125-10.463,4.746v1.029c0,2.621,4.685,4.746,10.463,4.746s10.463-2.125,10.463-4.746V27.125C189.166,24.5,184.481,22.379,178.7,22.379Z" transform="translate(-153.152 -22.379)" fill="#ff5f00"/>
        <path id="Path_205" data-name="Path 205" d="M178.7,127.318c-5.044,0-9.254-1.619-10.243-3.774a2.314,2.314,0,0,0-.22.972v1.029c0,2.621,4.685,4.746,10.463,4.746s10.463-2.125,10.463-4.746v-1.029a2.314,2.314,0,0,0-.22-.972C187.957,125.7,183.747,127.318,178.7,127.318Z" transform="translate(-153.152 -114.472)" fill="#ff5f00"/>
        <path id="Path_206" data-name="Path 206" d="M178.7,186.4c-5.044,0-9.254-1.619-10.243-3.774a2.314,2.314,0,0,0-.22.972v1.029c0,2.621,4.685,4.746,10.463,4.746s10.463-2.125,10.463-4.746V183.6a2.314,2.314,0,0,0-.22-.972C187.957,184.783,183.747,186.4,178.7,186.4Z" transform="translate(-153.152 -168.258)" fill="#ff5f00"/>
        <path id="Path_207" data-name="Path 207" d="M178.7,248.675c-5.044,0-9.254-1.619-10.243-3.774a2.314,2.314,0,0,0-.22.972V246.9c0,2.621,4.685,4.746,10.463,4.746s10.463-2.125,10.463-4.746v-1.029a2.314,2.314,0,0,0-.22-.972C187.957,247.056,183.747,248.675,178.7,248.675Z" transform="translate(-153.152 -224.946)" fill="#ff5f00"/>
        <path id="Path_208" data-name="Path 208" d="M178.7,307.758c-5.044,0-9.254-1.619-10.243-3.774a2.315,2.315,0,0,0-.22.972v1.029c0,2.621,4.685,4.746,10.463,4.746s10.463-2.125,10.463-4.746v-1.029a2.314,2.314,0,0,0-.22-.972C187.957,306.139,183.747,307.758,178.7,307.758Z" transform="translate(-153.152 -278.731)" fill="#ff5f00"/>
      </g>
    </g>
  </g>
</svg>
