<svg xmlns="http://www.w3.org/2000/svg" width="72" height="71" viewBox="0 0 72 71">
  <g id="Group_371" data-name="Group 371" transform="translate(-1396 -3047)">
    <rect id="Rectangle_464" data-name="Rectangle 464" width="72" height="71" rx="12" transform="translate(1396 3047)" fill="#ffefe5"/>
    <g id="_617396" data-name=" 617396" transform="translate(1138.047 2578.003)">
      <g id="Group_159" data-name="Group 159" transform="translate(275.953 487.997)">
        <g id="Group_158" data-name="Group 158">
          <path id="Path_215" data-name="Path 215" d="M296.794,488a15.866,15.866,0,0,0-12.715,25.385l-7.317,7.318a2.763,2.763,0,0,0,0,3.907h0a2.763,2.763,0,0,0,3.907,0l7.432-7.432A15.889,15.889,0,1,0,296.794,488Zm0,27.63a11.745,11.745,0,1,1,11.743-11.743h0A11.756,11.756,0,0,1,296.794,515.627Z" transform="translate(-275.953 -487.997)" fill="#ff5f00"/>
        </g>
      </g>
      <g id="Group_161" data-name="Group 161" transform="translate(289.196 501.121)">
        <g id="Group_160" data-name="Group 160">
          <rect id="Rectangle_522" data-name="Rectangle 522" width="4.145" height="9.671" rx="1.969" fill="#ff5f00"/>
        </g>
      </g>
      <g id="Group_163" data-name="Group 163" transform="translate(294.722 495.595)">
        <g id="Group_162" data-name="Group 162">
          <rect id="Rectangle_523" data-name="Rectangle 523" width="4.145" height="15.197" rx="1.969" fill="#ff5f00"/>
        </g>
      </g>
      <g id="Group_165" data-name="Group 165" transform="translate(300.247 498.358)">
        <g id="Group_164" data-name="Group 164">
          <rect id="Rectangle_524" data-name="Rectangle 524" width="4.145" height="12.434" rx="1.969" fill="#ff5f00"/>
        </g>
      </g>
    </g>
  </g>
</svg>
